<mxfile host="Electron" modified="2023-08-23T13:41:48.731Z" agent="Mozilla/5.0 (Windows NT 10.0; Win64; x64) AppleWebKit/537.36 (KHTML, like Gecko) draw.io/21.6.8 Chrome/114.0.5735.289 Electron/25.5.0 Safari/537.36" etag="vvzNHOgSC8xG46HRPI8p" version="21.6.8" type="device">
  <diagram name="Page-1" id="PmGJfcKz4z9Pf8QoOYHT">
    <mxGraphModel dx="1418" dy="820" grid="1" gridSize="10" guides="1" tooltips="1" connect="1" arrows="1" fold="1" page="1" pageScale="1" pageWidth="850" pageHeight="1100" math="1" shadow="0">
      <root>
        <mxCell id="0" />
        <mxCell id="1" parent="0" />
        <mxCell id="YJ6UbeCUbPOiozkyNc1K-4" style="edgeStyle=orthogonalEdgeStyle;rounded=0;orthogonalLoop=1;jettySize=auto;html=1;exitX=0.625;exitY=0.004;exitDx=0;exitDy=0;entryX=0.25;entryY=0;entryDx=0;entryDy=0;exitPerimeter=0;" parent="1" source="YJ6UbeCUbPOiozkyNc1K-1" target="YJ6UbeCUbPOiozkyNc1K-2" edge="1">
          <mxGeometry relative="1" as="geometry">
            <Array as="points">
              <mxPoint x="300" y="80" />
              <mxPoint x="560" y="80" />
            </Array>
          </mxGeometry>
        </mxCell>
        <mxCell id="YJ6UbeCUbPOiozkyNc1K-1" value="" style="shape=image;verticalLabelPosition=bottom;labelBackgroundColor=default;verticalAlign=top;aspect=fixed;imageAspect=0;image=data:image/png,iVBORw0KGgoAAAANSUhEUgAAAgAAAAIACAYAAAD0eNT6AAAABHNCSVQICAgIfAhkiAAAAAlwSFlzAAALEwAACxMBAJqcGAAAABl0RVh0U29mdHdhcmUAd3d3Lmlua3NjYXBlLm9yZ5vuPBoAACAASURBVHic7N13mFxl2fjx75k+s723bHolpEBCCQQEpImU0EWK/njtIK8ivuqrKNiwIAoqoOKLFBEBkd5LEghEEgIhvW822zdbZsv08vvjsJBAyu6c58yZnbk/17VXIOze52aTneeep9yPhshmdmAuMA+YCkwHJgJ5QAFQBNgsy04IYaYk0AsMAINAA7AB2AS8C7wNxKxKTlhPszoBoVwZcBFwGvAJoNjadIQQGaoPWAo8DzwEdFibjkg3KQCygw34NHAlcAbgsjYdIcQoEwOeA/4GPAbELc1GpIUUAKPb0MB/A3C4takIIbLEduA24E4gbHEuwkRSAIxeJwN/AKZZnYgQIittB64BnrY6EWEO2QA2+tQADwIvIoO/EMI8E4Gn0JcExlqcizCBzACMLicBfweqrU5ECJFT+oAvAA9bnYhQx251AmJY7MBPgT+jH98TQoh0cgMXoJ8qegVIWJuOUEFmADKfC7gP/WifEEJY7SXgPKDf6kSEMVIAZLZ84F/AqVYnIoQQe1iBfgKp0+pEROqkAMhcXvQGHcdZnYgQQuzDe+jNxnqtTkSkRk4BZCY7cD8y+AshMtds4N+Ax+pERGpkE2Bmuh243OokhBDiIMajHxd81OI8RAqkAMg8FwO/sDoJIYQYplno9wistDoRMTKyByCzTEH/ISq0OhEhhBiBMHAMsMrqRMTwSQGQOWzAMuBoqxMRQogUrEW/kyRqdSJieGQJIHN8Efiq1UkIIUSKKgE/8KbViYjhkRmAzFAObATKzHqAz1XKmKLDqCk8lGJvPT5XGS6HD00OgggxqgWiYTr6/fv8b7FEgHDMz2CkBX9wC12D6wjFus1MZwCYDjSb+RChhhQAmeEm4LtmBK4vns+s2kWMKToMTZPBXohs1B0YoDc4eNDPS5KkJ7CRxp4X6Bx4F0iakc7twFVmBBZqSQFgvRKgAcUb/8ryJnLcxKuoKjhEZVghRAZKkqTF30M4Nvzl975QAxvb78Uf2q46nRD60cBW1YGFWrIHwHrXAZ9SF05jbt2FnDz1exS4q9SFFUJkLA0Nt8NJfzg47K9xO4qpLT4OTdPoDWxG4WyA4/1fX1AVUJhDZgCsZUN/91+vIpim2Th+0n8zvVKuDhAiF3UM+BkIh0b8dZ0Dq3iv5U4SyYiqVLqBWvTjgSJDyaKwtU5E1eCPxienfEcGfyFyWIk3P6W3dRX5hzOn7mo0TdmkcCn6ZUEig0kBYC1l7X6PGnclk8qPVxVOCDEKOe12fE53Sl9bnjeb6ZWXqUxH2plnOCkArGMDzlIRqL5kPnPqzlcRSggxyhV5vCl/7ZjiE6kuOEpVKqcBqVUjIi2kALDOHPRpMkMcNhfHTbgK2c4hhADwOtzYbam/HkyrvBSHzackFaSzaUaTAsA6J6kIMrPmbAo81SpCCSGygQY+Z+o39LochYwrPV1VNieqCiTUkwLAOguMBrBpDmbXnKsiFyFEFvE4nYa+fmzJydhtSmbvj1URRJhDCgDrzDAaoL5kHj6X4VUEIUSWcduNFQAOm4/K/MNVpDJdRRBhDikArGEHJhkNMqH0GAWpCCGyjcvhQDO4L6gyf56KVOqAfBWBhHpSAFhjHAp2x9YWzlaQihAiGzlsxl7eS3zTUbC5WAOmGA0izCEFgDUMz9s77V4KPNLqVwixb3aDBYDTno/bUaQilRIVQYR6UgBYw/CUmN7nX47+CSHM43VWqgij9KIzoY4UANYoMBrA5chTkYcQIktpmvE3CE67kn4Ahl/vhDkcB/8UYYLUD+m+z665VOSRkZLJBP3hdnqDTfQGd+EPNhOK9ROJDxKLh4gmQkTjAavTFDnCafPisHtx2j247Hm4HfkUeeso9o6h2DuGAnc1NnU99DOKTTN2muB9qbcmFKaSAkBYLp6I0Na/gRb/alr8q+kc3EI8Mfx7zYWwkk1zUJ4/idrCOdQVzaG6cCYONWfohTCVFADCErF4iO3dy9jS+QqtfWuJJ5RdQypEWiWSMTr6N9HRv4l3mx/CpjmoKZzJ5IqTmFi2EJeaaXQhlJMCQKRVi381mzpfYkfXMqLxoNXpCKFcIhmj2b+aZv9qlm3/I+NLj2Vq5SepLz4c2bgrMokUACINkuzsfotVTf+gY2CT1ckIkTaxRIStu19l6+5XKfWNZ07dBUwuPyFr9wyI0UUKAGGiJFt3L2ZV0z/pCey0OhkhLNUdaODVLTezqukfHFZ3EVMrTkbT5CCWsI4UAMIUXYPbeW37H2nvX291KkJkFH+wmcVbf8ua1sc5buLVVBUYvhZEiJRIASCUisVDvN30AO+1PEoiGbc6HSEyVtfgdh5b8y2mVpzEgvFfwuOUfjkivaQAEMq09q3l5c2/ZDCy2+pUhBglkmzufJldvas4acp1jClWcgOfEMMiC1BCgSRrWh/jqXXfk8FfiBQEoz08vf4HLNtxJ4lkzOp0RI6QGQBhSCjq5+Utv6Kpd5XVqQgxyiVZ2/o4XYPb+OTU75LnKrM6IZHlZAZApKw/3MHja6+TwV8IhVr71vL4mmvpDe6yOhWR5aQAECnpCTTy+Jpv0RtssjoVIbJOf7iDx9Z8S07RCFNJASBGrK1/PY+v/Zas9wthonCsn6fX/0Bm2IRppAAQI9IV2MGzG35IODZgdSpCZL1oPMjzG2+ktW+t1amILCQFgBi2vlArz6z7PpHYoNWpCJEzYokIz224ga7B7VanIrKMFABiWILRXp5Zfz2BaI/VqQiRcyLxQZ7Z8EP6w+1WpyKyiBwDFAeVSMZ4bsMN+EPN6X2wZoOJU2DcJBg7EWrrIa8APF7w5qU3F5G7QgEIBmCwH1qbYdd22Lkdtm2ERCJtaQQiXTy34QbOnf07HDZ32p4rspcUAOKgljf8NX23+BUUwvGnwRELYc58KChKz3OFGKnBAXhvJax4HZY8D37zZ8e6Aw0s2347n5j8TdOfJbKfFADigBq632RN6+PmP2jOEXDOJbDgBHC6zH+eEEbl5et/XxecAF/7Lry1FJ74J6xcZupjN3a8QG3RHKZUnGTqc0T2kwJA7NdAuIPFW28BkuY95IiFcNlXYOZc854hhNkcDjjmJP1j8zq4/0/wxiumPe617X+gMn8aRd46054hsp9sAhT7tWzHHeYd96uogh/eAjfdKYO/yC5TZ8KPb4Pf3K3vXzFBNB5kybbfYWpxLrKeFABin3Z2/4eG7uXmBF/0WfjbM3D8qebEFyITzDkC7nwYLr4SNE15+Na+tWzpXKw8rsgdUgCIj4klwizbcYf6wPkFcMPv4Or/BbfsYhY5wOmCL14LP/0jFJUoD7+84S9E4tKXQ6RGCgDxMe80PaT+vHFFFdx6Pyw8WW1cIUaDo46H3z+gH2VVKBDtYWXj/UpjitwhmwDFXsKxAda2PqY2aP0E+OWfobJGbVwxfMkk9Pv1jz4/BAfBlw82+4efU1gEJeUyO2OW2nr43X3wva/oPQQUWd/+DHPrLsTnKlUWU+QGKQDEXta2PkEkHlAXsKIafvUX/VdhrngcdmyGxh3Q1ACN26FpJ7S36AP/cHl9UFYJJWV6A6YJU2D8ZP1XE6axc0ppOfz6LvjGFfqfjwLxRIT3Wh7l6PFfUBJP5A4pAMQHYvEQa9sUnvkvKpHB30zhEKxfDWvehrXvwIbVesc6o4IBvYBoatBj76miCuYeCXOP0n+tqjX+vFxTWAy//Av892XQ0aok5Lq2p5lbdyEepzTOEsMnBYD4wPr2ZwlF+9QEs9n0Y371E9TEE7rBAXhzMbz2Iqx8HcLh9D6/sx1efFL/AKgZozfCOfFTMH22Kbvds9LQMdhvXAGxqOFwsUSItW1PMr/+MgXJiVwhBYD4wKaOF9QFu+Jr+jEoYVwsBq+/BC8+AauWQzRidUYfam2CR+/XP6rr4IRPwSc/rS8XiAObPgu++E2441dKwm1sf455Yz6LpsnebjE8UgAIADoHNtMdaFATbOZcuPRLamLlsp4ueP4xePwf0NlmdTYH19YMD96lf8w8DM67TD/1Ybcf/Gtz1XmXw1uvwdtvGg41GOmipW8NdUVzFCQmcoEUAAKAzZ0vqwlks8E1P9Bv8hOp2bUD7rsTlr6gZHrYEuve0T9q62HRpXDG+fotjmJvmgbXXA9fPBcixpdztnS+LAWAGDZ5lRYkkjG27l6sJtiiz8Kk6Wpi5ZrONvjtjfCFRfDK06N38N9Tyy64/Rdw6anw4F+z4/9JtbqxcOHnlYTa3vU6sUSa94WIUUsKAEFb33o1m/9cbvjMfxmPk2v8PfDHm+CKM+Dph/XjfNnG3wN3/VZ/p/vai3pfAvGhi/6f3inToGg8SIt/tYKERC6QAkDQ0qfoBeOMC6C0Qk2sXPHiE3Dl2fDvv2fW5j6z7GqAG78J3/p/0LzT6mwyR14+nP0ZJaGapQAQwyQFgKDF/57xIJoGF1xhPE6uaG2C734Jfvm/+rvjXPPeSvjiefqyQCJhdTaZ4bzL9WuFDWr2v6sgGZELpADIcbFEmI6BTcYDzZ6vHwMTB5ZMwr/uhS+cAyvfsDoba0XC+rLA1z8LDVuszsZ6xaVwxELDYboGd6jr5yGymhQAOa6jfyPxhIKNWaecbTxGtgsMwE+v0899p7uBTybbtBa+9hl49lGrM7Gekp+jJG396xTEEdlOCoAc1xNsNB5E0/RucGL/tm6Ar1wIS563OpPMFAnDb34Iv/xebhdHRx2vXyFsUG9wl4JkRLaTAiDH9QabjAeZOE0uiTmQ5/4NX79UPxInDuzFJ+Fbnx8djY/M4PboHQINUvJzLbKeFAA5TskLxdwjjcfIVg/+VX9nmws7/FXZuAauugS2b7Y6E2scdpThEDIDIIZDCoAcp6QAmDzDeIxsk0jArT/RN7nJmfeR6+7UZwLW5eCO9knTDIeQGQAxHFIA5LhApMt4kPrxxmNkk2gEfvxNePKfVmfyMTYblBY5mFjvZtJYNxPr3YypdlFSaM+8i/z6++A7X4SVy6zOJL3GTjQcIhwbIC4dAcVByF0AOSyWiJBIKug6N2a88RjZIh6Hn/0PvK7oboUU1de4OObwfGZP8zJ5rIdJY91MGOOmuHD/F/NEoklaOiI0tUXZvivMO+sDrFo3yLsbAgwELDqrHwrCD66Gm+6Aw462Jod0q6nXL1Ay2BEylggCPjU5iawkBUAOi8YDxoM4HEpamGaFZAJuvl6/ujfNCvLsfOoTRZx9UjEL5+VTXzPyneQup8b4Ojfj69wsnJfPFYvKAIjHk6xYG+DZJb08/1ofb68bTG/vnlgUfnId/PlRKK9M44Mt4nBAXgH09RoKE0uEsWlSAIj9kwIgh0XjIeNBvHnGY2SLP/5Cb+2bJk6HxjknF3PFojI+uaAQj9ucFT27XePoOXkcPSePG6+po6ktwr2PdXHPo7vZ2pimaea+Xrj3drj2hvQ8z2q+POMFQDyAyyGnc8T+yR6AHKZkBsAr7zAA+Puf4bEH0vKoqjIn119Vy7aXZ/HP303i0ycUmzb478uYahf/+5UaNj4/i5fvncYZJxSlZ//Ai09AYDAND8oAPuOFdSyhoMAXWU1mAHKYkvV/+/7XlHPG8iXwtz+Y/piyYgff/kI1V11Wic9jfe2uaXDCkQWccGQB76wP8LM7Wnn85R7zlgeiEXj3P3DMSSY9IIMouBNAyc+3yGrWv4oIMZrtaoCbvqOv/5vE7dL4/ldr2PrSLL79heqMGPw/6rBDfDzy+0m8/o8ZzJtp4qyQNFMSQpnMeyURYrQIDMCProHBAdMecdz8fFY9NpMf/3cdhfmZP9ty1Jw8lj98CLffMM6cfENB9TGFyFGyBCBEqm77KTRuNyW012Pj5u/U8+XPVGTe+fyDsNmgssxBMGTCrEhpufqYQuQoKQCESMUbr8JLT5kSevJYNw/dNok500c2lZ5MwsPPB3jgKT87W8IEgwmKi5wcNTuPr19WxOSx6ZlB+PeLPVzyze1EYyZ0QDxkjvqYQuQoKQCEGCl/D/z2BlNCLzqlhLtvGj/i6fO7Hhngf3+zi66ej++SX/Eu3H6/jYVHVvHI72ooKzZv5e8xMwf/+vEwfor6uELkKNkDIMRI/f5n0KOghfJHXHVpJQ/fOmnEg//nvtvJV67ftM/Bf0gikWDp8lamnraRFeuiRlPdp8de7OEzZg3+AFdcZU5cIXKUFABCjMSK12Hxc8rD3vD1Wm67fiy2Ef5EfuOmbu5/bCfJYV441OsPcMrnNtG+W+0Rscdf6jV38D/hdP1DCKGMFABCDFc8Dn+6WXnYn187huuvqh3x161cF+GP9zWM+Ov6B0Kc8WV1t8U9/lIvF39jm3mD/8zD4LqfMOp2QwqR4aQAEGK4nn4YGrYqDfm1Syv5zpeqU/raq37cTiLFrjvvruvk9VWRlL52T88u8XPJtWYO/nPhpjvB4zUnvhA5TAoAIYYjMAj33aE05CVnlnLr98em9LXhSJJ31xnbh/Cbu7sNff2zS/yc//WthCNmDv5/UtIWVwjxcVIACDEcD92tdOPfJ44s4O5fTBjxmv+QF94IE4vFDOXw7vr+lL/2iZd7Oe9qEwf/Qw+XwV8Ik0kBIMTBhILwxIPKwlWWObj/5ok4HamvaW9tNL6T39+fWoxnl/j5zDe3EYma+M7/53fI4C+EyaQAEOJgnn7E8NWsQ2w2uO/XE6mtdBqK43EZ/9F1pFCAyLS/ENlDCgAhDiQeh0fvUxbuu1+q4eRjCg3HmXuIy3CMyjL3iD7/yVdk2l+IbCIFgBAHsuR5aG9REmrqeA8/+NrIj/vty9GznPh8HkMxTjxq+IXIk6/0ctF/mzjtf+jhMu0vRJpJASDEgTz7qLJQf/zRWNwuNWfZNQ1O/0RFyl/vcNj5/peLh/W5zy31c/E3ZM1fiGwjBYAQ+9PZDu++pSTUJWeWctIC41P/e7rjRxV4vSObxh9ywRl1VFcc/CqQp17t5dyrZNpfiGwklwEJsT8vPQFJ41faOh0aP/lGnYKE9lZebOOeX03mkm9sJB4ffmvfSeNLuOfnlQf9vOeW+s2d9rfqnX8yAbEYxKPv//r+ccp4XL9SMZncx+8lIPH+9zgegyT6vx+sEZPDAbw/62O3f9jN0P7+79vsYLfp/26zg00Du+vgcYVQQAoAIfbnhSeUhLni3DImjEntnfrBnH+Kl/tvmc6V39lKMBQ+6OfPn1PBq/eM1celA3huqd/cDX8qdvvHYxANQyQCsejeg/pe//yR/5ZQew+CKQL7v9hJCFWkABBiX3ZsgV07DIdx2DW+88UaBQnt30WneTlh/ky++KNOXnytnXD44y1+a6oLuf6qGr58YcFB4z31ai8XXmPhhr9EXB/UI2F9gI9GIBLS/z0SeX/QD+mDuRAiZVIACLEvK5YpCXPRGaVMGmvOu/89VZbZePwPVcQTVTy9JMSqdWF6+2OMq3Vw1ol5TB47vB/1pxebPfgfBj/6jT6A9/VAOPj+x/uDejSiZNlFCHFwUgAIsS8r1RQAX7ioXEmc4bLb4OwTPZx94siPCOpr/tvNG/zHT4JFF8PGd82JL4QYETkFIMRHhUOwdpXhMBPr3Rw//+BT7png+df8nP/1bYTCJr37HjsBLvsiuM2fDRFCDI8UAEJ81OoV+nqzQf91YfmouML+mcV+zr1qq3mD/7iJcMWXZfAXIsNIASDER21coyTMhaeXKoljpmcW+7ngGhN3+4+bCJd/SQZ/ITKQFABCfNTmdYZDTBnnScvmPyOef83Phf+9zbzBf+wEGfyFyGBSAAjxUVs2GA5x2nFqu/6p9vxrfs672uQ1f5n2FyKjySkAIfbU2w1dHYbDnLowcwsA06/0lWl/IUYFmQEQYk/bNikJc+TsfCVxVJPBXwgxRAoAIfbU3mw4xJhqFxWlmTe59vxrfi64Rtb8hRA6KQCE2FNnu+EQc2f4FCSi1guv98mavxBiL5n3NkUIK+02XgAcOsWrIBF1Xnmzj0Vf22LutP8VXwKXDP5CjCYyAyDEnhTMANRVORUkosbWxjAXmXnUTwZ/IUYtKQCE2FPPbsMhqisypwC49ueN9PSZdP2tDP5CjGpSAAixJwUtgKvKM6MAWLM5yNOL/eYEl8FfiFFPCgAh9hSNGg5RXpIZW2uefKXXnMAy+AuRFaQAEGJPCmYAHPbMuAFozeag+qBDR/1k8Bdi1JMCQIg9RSOGQ2TKDYA9/pjagHY7XHi5HPUTIktIASCEYrYM+akqKVK8FBGPwwN/hcCg2rhCCEtkyEuVEBYLh6C9CZwuw6GiMZOO3I3QzMkm9CNobYa/3SFFgBBZQAoAkZuSSejrhcYtsGY5rHoNtm8Ap/Ed/B1diqfeU3TmiUXmBJYiQIisIAWAyB3hELQ1wcZ34a1XYd0KaG6Agf4PP0fB5rbd3ZlRAMyd4TPvVsLWZrj7dikChBjFpAAQ2S04qA/ya1fo7/J3bICeTkjspzmO22P4kR3dxo8SqnLL98ZSmG83J3hbi8wECDGKSQEgss/Q1P47y+DdN/R/7h/mmfj8AsOPb2gyfpJAlRmTPNx/8wScDpOOJshygBCjlhQAYvRLxPUWvlvXwoo9pvZDgZHHKi0znM7aLSacvzfg0ycU84/fTpQiQAixFykAxOgUDkHbLtjwNry1GDa+A52tEDO4/q6iADCjAY9B555SIkWAEGIvUgCI0SMc1Af9D9bzN0JvNyQV3nFfWmE4xM6WMH0DJl3AY8C5p5TwwC1pKAKCKcy8CCHSTgoAkdlCew76r+uD/nDX81OhYAYgmYQ3Vg0oSEa9805Nw0yAnA4QYlSQAkBknqHp/bUr4J00DPp7ysuHAuNH5158o09BMuaQ5QAhBEgBIDLFx47rpXHQ/6j6cYZDvPh65hYAIEWAEEIKAGGlYAB2bYN33hj5cT0z1U8wHGLd1iCNrZlzHHBfZE+AELlNCgCRXuHwh9P77y6Dpu0QyrB3iWPHKwnz4FPdSuKYSfYECJG7pAAQ5otF9SN661dZP70/HLX1+tW3Bt372G4FyZhPZgKEyE1SAAhzJBLQ1a733V+5RG/S4+8CMuOmvANyOGD8JMNhNmwLsWLN6HjnKzMBQuQeKQCEOskEdHfAptWwYjFsfk/vu58cBYP+R82YpSTMnx7sVBInHdIyE3DPnTITIESGkAJAGDfQDw2bYOVSffDv7tj/ZTujxYxZoBkfCO9/vIudLZm9GXBPps8EtDTJTIAQGUIKAGFMJAxrlkNro77Wny0Ki6B2jOEw0ViSW/6vTUFC6SNHBIXIDVIACGMSCtvwZpoZs5WEuevh3bR2jq7iSJYDhMh+UgAIsT+HzQeb8R+RUDjB929pVpBQeslygBDZTQoAIfansBimHaIk1L2P7WbJin4lsdJJlgOEyF5SAAhxIEccqyRMMgnX/LiRaGz0nYiQIkCI7CQFgBAHMnkalBi/IRBg7ZYgN/91dG0IHCJ7AoTIPlIACHEgmgZHH6cs3A23tbAsQ68KPpjzTjW5CGhpko6BQqSRFABCHMyRx+rHAhWIxZN89trtdPXGlMRLN9kYKET2kAJAiINxOGDhScrCNbVF+Px3dxCPj779ACDLAUJkCykAhBiOI47RTwUo8sxiP1fd2KgsXrrJTIAQo58UAEIMh8MBJ5yiNORfHurkp7e3Ko2ZTjITIMToJgWAEMM172ioqVMa8obfN4+qC4M+Km0bA0Mhc+ILkcOkABBiuGw2OOdiJd0BhySTcNWNO7nxDy3KYqZbWpYD/nlPdredFsICUgAIMRJ19TB/gdKQyST8+A8tfONnjaN2jDO9WdDWjfDOW+bEFiJHSQEgxEid8mnIL1Ae9vf3dXD5t7czEBidVYDpewIWv6BXS0IIJaQAEGKkPF4477N6kyDFHny6myPPX8+azUHlsdPB1OWA3h5o2aU+rhA5SgoAIVIxZToce6IpoTftCHHsxRu459+7TYlvNlNnAppG79FJITKNFABCpOrkM2DMOFNCDwYTXPm9Bk69cjNbG8OmPMMsiQTs7onh85rw8jI4OtsoC5GJpAAQIlV2O1x0ub4kYJKX3+hjzlnr+NkdrQRDmb83YPnqQY6+cD1f/dFO/P1x9Q9wudXHFCJHSQEghBElZXDJ/9OLAZOEwgl+eGszk09ew233tmdkIbB6Y4BLrt3Ows9s4O11JjbuKaswL7YQOUYKgBxm0xQMWqP13JpKE6fAootN2RS4p7bdUb75811MOWUNN/+1jc5u6y8Uev3tAc76yhbmnbueh57pNneTvsOhf69zQcL47ImSn2+R1RxWJyCs47ArmE6NRY3HyAZzj4CebnjlOdMf1doZ5Tu/buL63zVzzsklfOHCck48qgC73dwCZMiu1ggPPNnN35/oYt3WNJ5WOPwocOfIEoCCzocOu3lLUyI7SAGQwxw2j/EgkdG1Qc1UJ5wKfX5Y+WZaHheJJnn42W4efrabsmIHpy4s5MwTizl1YSGlRep+tOPxJG+vC/DK8j5eeK2P197uT//ET16+/v3NFQp+rhw2KQDEgUkBkMMcNgXvpqJR/cY2X57xWKOdpsHZF+qtgt9altZHd/XG+MdT3fzjqW40DaaM83D4TB/zDs1j9jQvtZVO6mtcFOTtf1o4mdTj7GgKs35rkA3bQqzdEuTNdwbo7TNhQ99wORzwmc9DQaF1OaRTLAYh4zMrDpuHhPRNEgcgBUAOcznysNucxBMGp/H9vVIADNE0OPN8fVPgm0stSSGZhM0NITY3hHjw6e69/lu+z0ZlmfODfy8ptNM/mKCrN0ZXr/V7Cj7G44FLvwDjJ1mdSfp071ayt8Zh8xKxsG4TmU8KgBymoZHvqsAfMngRTXur8lvyRjVNgzPO1YuA11+1Opu9DAQSDARGybJNQRFc8SWorrU6k/TqbDccwuMsxG5zQTyiICGRreQUQI4r8FQbDyLtWffttLPhnItMPSKY2Z/XWAAAIABJREFUtUrL4QtX597gD9DaZDhEsWeMgkREtpMZgBxX4K40HmTnDuMxstX8BXqvgH/eA0ETz8dnk/rxcNkXcndZafsWwyGKvVIAiIOTGYAcV5Y30XiQ1iYY6DceJ1tNmgpf+gaUKyi2spmmwbEnwH9dnbuDfzgEzcZn1IqkABDDIAVAjqvIn2o8SDIJm9YZj5PNyivga9fBguOtziQz+fL0zX6nn5PbSyYb1yrZAFjqM+eOCpFdpADIceV5k7DbnAf/xINZ/bbxGNnO6dQ3B15yZe6+w92XMePgq9fCtEOszsR676w0HELTbFQVyPdSHJzsAchxNs1Bed4k2vs3GgvUsE0/vlRariaxbHbILKgfB48/lNszJ243nHi6Pitik/ci9PXCDuPr/+V5k3E78oEe4zmJrCYFgKC++AjjBUAyCcsWw1kXKMmJUAj6+yAwoDdGGaJpele4vHz9XfRoHTgKCvWNbts2w9P/gs4OqzNKr2kz9b8rRcVWZ5I5li1WMv1fVzTHeC4iJ0gBIBhXeiQrd91nPNCq/8CJp0F+wfC/JhKBxu3Q2gxtLXpPga7OvQf9/dE0KCyGqmr9uFhVrd4wprAo9f+HdJs0Fa76H71z4EvPZH9r5fJKOPM8mDTN6kwyy+AArFDTQrquaK6SOCL7SQEgKM+bRJ6rjMFIl7FAsZg+iC26+MCf19mub3baugkadwxvsN+XZBL8PfrH5g0f/n5FFUyeBlNnwMSpmT9LYLfr0+Az58Drr8DK5RDNsgYu5RVw3Cf1S5My/c/DCkteVPJn7nbkU1M4S0FCIhdIASAAjQllC1nb+rjxUKv+A0ct/HhnwFAQ3lsF76yApp3Gn3Mgne36x5tL9dmIOfP0gSfTm8oUFumbBD9xCvzndXhziZJb4SxVXasf7Zs9Twb+/Wlr0f+8FZhUdryaTb0iJ0gBIACYXnmqmgIgmYR//wO+/E39na2/F157BVYt1y8OSreBfn1tddlimDBZfxc6ZXr68xiJvHw46XQ4+ji9YHp7uZL2sGljs8HEKfrAPznDv9dWSyTgyUeUrP0DTKn8pJI4IjdIASAAvSFQRf4UOgeM70KmtRmefQzicXjnLf3XTLBjq/5RUwcnfQqmz7Q6owPz5emD6LEn6EslK5fDunf1fROZqLZen22ZNVfv4y8ObvEL+p+tAoWeGqoLZiiJJXKDFADiA9OrTldTAICyKU1TtDbD3+/SZwI+dS5UjIIOfWMn6B9nXQDbN8Om9foRwj6/dTnZbFBdp++1mH24vvdCDN/2zXoBoMiMqtMBTVk8kf2kABAfmFpxMm833k8gmiPnh7dshO2/gmNP1KfcR0MHOqdTP0I3bSYkL9CLmR1b9X0VTY3Q233wGKkaGvAnTILxk/UTFx6Pec/LZp3t8M979SUzBVyOPA6pPlNJLJE7pAAQH3DYXMyuO5/lDXdZnUr6xOOw9CX93fSFl0NVjdUZDZ+mQe0Y/WPI4IBeCOzu0IuBnu4Pfx3OEUOHA9weKC6FsnL92F55pf7PZZV68x5hTJ8f7v0TBAaVhZxVcw4uu09ZPJEbpAAQe5lZ9WnebX6IULTP6lTSq70V/vQ7OPN8OPxIq7NJXV6+3lJ3X211k0n9NEYsqh+9DAb1Ad/l1gd2t0d26putpwvu+RP0qptlc9q9HFpzjrJ4InfIT7vYi8Pu4fAxl1idhjWiEf0EwwtPKpuazSiaBl6fvkGvpEyfOaishuIS/fdl8DdXazP8+Va90ZVCs2rOweMoVBpT5Ab5iRcfM7P6LMp8E6xOwzqvvQIP3p19zXiEdd5dCXf9Xvm12fnuSg6rO0jjLSH2QwoA8TE2zc4xE75idRrWWr8G7r/Lmt4FInuEQ/qs0r/+bkqb52MnfAWHXTZiitRIASD2qbZoNlMrcrypyPYt8MD/pd6qWOS291bBrTfBqrdMCT+u5CjGly4wJbbIDVIAiP06duJXKXDn+NnurRvhwb8p69QmcsCWjfCX2+Dh+/QbLU3gdhSwcOLXTIktcocUAGK/XPY8TprybTQtx/+abFoHzylokyyyVzik34Nx5y36ET9F3f32TeOEydeS7x4FDaxERpNjgOKAqgtnMqnsOLbuXmJ1KtZ6c6neBGc0HxEUavV268tEWzbqRWKa9ovMrl3E+NKj0/Iskd2kABAH1N6/ke1dyyx5drnLQYXTSZ7dRoHDTl8szmA8QXskSk/UgnX5Jx/WuwXmF6T/2cI64TBEQvq7/O4uvYtfR7t+DXWaVRZM46hxV6b9uSI7SQEg9isU6+OlzTeRSJo/2PrsNo4rLuD40kKOLspnWp6HYsf+/3p2RWNsGgzyRu8AS3r6eLN3gJDZ6/SxGDxyv7nPEGI/ijy1nD79R9g0edkWasjfJLFfi7fewkC4w9RnHFtcwBW15ZxTWUL+CHrxlzkdHFNcwDHFBVw3vgZ/LM6/2ru5r6WTFX3qWqwKkQl8zhLOOORneJ0lVqcisogUAGKftu5ews7u/5gW//TyYr49voajivKVxCty2LmyroIr6ypY2tPHL3a0srQnx9oZi6zksvs445CfUuiptjoVkWWkABAfE44N8OaOP5kSe6LXzS3TxnFymXn3xR9fUsjxJYU83tHD/2xupDksHf3E6OR2FPCpGTdSljfR6lREFsrx811iX95q/JspVwJ/cUwlbx19qKmD/57OqSzh7QWHcnF1WVqeJ4RK+e4Kzjn0ZqoKZlidishSUgCIvfhDLWxsf05pTJ/dxr2HTuK308bhSfOFM/l2O3+dOZHbpo/HoWlpfbYQqSrxjeWcQ39DiW+s1amILCZLAGIvb+/6O4lkXFm8YoeDR+ZM4ehiNWv9qbqyrgJfHK7e1mj+aQEhDBhfuoATJl+L22Htz4zIfjIDID7QE2hk6+7FyuIVOew8O2+a5YP/kBOLC/ltfX3aZyGEGA6b5uCYCV/mtOnXy+Av0kJeCcUH1rY+TjKp5t2x12bj4TlTmJXvUxJPCU1jttfLT2prsctygMgghZ5qFs36DbNqFgHyd1OkhxQAAoBIPMCW3a8qi3fbjPEcU5xZHfMSySQAx+Tnc1VFhcXZCKG/6z98zGe4cO6dVORPtTodkWNkD4AAYHPHS0TjQSWxrqgt55IM3HkfTyQ/+OeLSkt5NxhkaX+/hRmJXFZbNJuFE66SjX7CMlIACAA2d76kJE6d28Wvp45TEku1xB4FgAb8T3U17wQC9MfVbXoU4mAqC6ZxeN0ljCs9yupURI6TAkAwGNlN58BWJbF+OXUsefbMXFmKxJN7/XuJ3c6XKyq4ua3NooxELqkuOIS5dRfJwC8yhhQAgh1dy4DkQT/vYI4uymdRZeb2Kg/HP77B8ZziYh7u7mZnRLoFCvU8ziIml3+CqRUnU5E/xep0hNiLFACChu7lSuJ8e0KtkjhmiCchFv94kWMDLi8r46etrelPSmQlj6OQuuK5TCk/ifqSeXJ7n8hY8jczxyWScdr7NxqOMyPPy6lpavGbimBk/1can1pYyJ87O+mImX/tscg+HmcRlfnTqCuaQ13RXErzJqDJUT4xCkgBkOO6AzuIJUKG41xaU57RL3kD4f33N7BrGqcWFXF/V5fh5xR5anE58gzHEZnDaffitHn1X+1evM4iCj21FHvrKfaOkaY9YtSSAiDHtfdvMBzDppHxF+4MhA/87v60wkIlBcDcuouYXnWa4ThCCGG2zNyuLdKma3C74RiH5vuocTsVZGOOeCJJIHLgo34T3W4qncb/H/yhZsMxhBAiHaQAyHF9IeOb3z5RUqggE/P0BKPDOuMwz2e8bXFvsMlwDCGESAcpAHJcX7jdcIwjizJ7zbsnMLzNfYd6vYaf5ZcCQAgxSkgBkMMSyTgD4Q7Dcab4PAqyMUc4ljjo9P+QsS6X4ecNRozvIxBCiHSQAiCHReMBw7f/acCkDC4AOgaG3+CnXkEBoN+nYLypkhBCmE0KgBym4vIfn92G15aZf40i8SQ9geiwP7/Ibjf8zCRJYvGw4ThCCGG2zHzlFmkRjRs//5+vYNA0S2d/hOQI3oy7NA2nZrybQSSh5lZFIYQwkxQAOSyRNN75zmXLzPY/wWiCrhG8+x+iogCIJ+ReASFE5pMCIIc57G7DMQb3ccGO5ZLQ3BsiOZK3//qXEUoY//9x2oyfJhBCCLNJAZDDnHbj594H48PbYZ9OuwcjDA5z5/+eQokEKsoZpz1zN0UKIcQQKQBymNNmfKAKJ5J0RTPnEp1gNEFrX2qb8FRcBmTTHNhtxk8TCCGE2aQAyGFOuwebZnwT35ZB45sJVUgkYWd3kESKp/B2RYyv3bscxmdVhBAiHaQAyGkaBe4qw1HWD1q/6z0JNHQHCcdSn8TfETZ+fK/QXWM4hhBCpIMUADmuyFtnOMYbvf0KMjFmV0+I/pCxKfx3AwHDeRR7xxiOIYQQ6SAFQI5TMWAt6elTkEmKktDkD4+o4c++xJJJVgeNz2SoKKiEECIdHFYnIFITT4TpC7UZjuN25BuO0RqOsqJvkCMK03spUDIJjT1BeoPGN++9NThIUMURQLtXyZ+LEEYFIn5CMWOFcTwhXS2zWWZ2ccl+FwIPWZ2ESl8aU8kt08al7XnxRJKG7iADYTXHEH/Y0sLLfRbOZAiRvb4M/NnqJMTHyRKAUOLh9u60NQUajMTZ3DGobPDvicd5vd/6fQxCCJFOUgAIJXqiMf7abPxq4QNJot/ut60zQCSu7sa9B7u7CY+wa6AQQox2UgAIZW5rbDNtFmDoXX+rP6z0st3eeJxHe3oURhRCiNFBCgChTFs4yi92tCiNGYom2NkdZGtngFBUfXFxe0cHAQWb/4QQYrSRAkAo9YfGNtYNGD9ONxiJ09AVZFPnoJJd/vuyOhDgGb/flNhCCJHppAAQSkWTST63dltKSwGReJL2/ggb2gfZ2hnAH4qhdL5/D33xODe2tpoVXgjxITltlqGMN4IXqTgTOMXqJMyyOxqjORThrMqS/f7kJ5JJQrEEA+E4uwejtPSGae8PMxCOE0+1mf8wJYDrW1rYGMqMOwyEyHJ+4FGrkxAfJ42ArLHI6gTM9o+2LgqTNq6prcJu04glIJlMEk8kicaTRBIJ097dH8xt7e28MTBgzcOFyD3nAcVAr9WJiL3JDED6VQO3kAPTYm8PBtASMNnhJhxLEI4liMaTxC08cndnZyf/6O627PlC5CAnsA1YZXUiYm9SAKTfpcBZVieRLisGB+mPxzkqP9/SiicB3NzWxkNy5E8IK5QCd1udhNhb1r8LzUBPA2dYnUS6nVBQwPdqasi3pX/faU88zo0tLawYHEz7s4UQgL7gNw3YYnUi4kMyA5BeBcAd5ODei4ZIhFf6+pju9VLldKbtucsHB/nWrl1sDculJkJYSAP6gFesTkR8SGYA0ivrLgEaKQ34VFERX62ooNRhXh3UHo3y+44OXpUe/0Jkil3AePQVOZEBpABIr78Dn7U6iUzgsdk4u6iIS8rKqFRYCLREo9zf1cUzfj9R6e8vRKY5BXjJ6iSETgqA9HECHejHYcT7bMCReXmcVlTEgrw8CuwjX5Xqjcd5Y2CAZ/1+3g0E5O2FEJnr78BlVichdFIApM8pwAtGg7g0Fw6bS0E6wxNLRokk0rN+bgOmejzM9noZ53Yz1uWixG7Ha7ORZ7MxkEgQTCToisXYFYnQEImwOhBgW1jtBUEH4rZ5sGs5t4VDjHLJZJKEwZ+ScCKgIpUAUIO+H0BYTF7J0udcFUG+Wvc/zM6bryLUsPTFevnJzuvoju02/VkJYGMolLEd+qpctfxg7K/w2fOtTkWIEYkmE6wZ3G2oBPhnx410RZuNpuIDLgLuMhpIGCd3AaSHhoKz/26bhxm+2QrSGb5CRzFfH/N93DZPWp+babw2H1fXflcGfzEqOTUbRQ63oRhTfUcryobPqQokjJECID3mA2OMBpmVdzhOLX3T/0PGuifw+eqr0XJ0xciGja/UXkete6zVqQiRsjKnsSJ+mvdobGqGjGOBKSoCCWOkAEgPJdP/h+UfpSJMSo4sWMhnKv8r54oADY0ra67h0LzDrU5FCEOK7G4cWuo/vz57EfWemSpS0YArVAQSxkgBkB6GL/+xa3Zm581TkUvKTi45k4srr7Q0h3TS0Li86qssKDzB6lSEMEwDSh1eQzGm+RaoSQY+jzSis5wUAOabCswwGmSa99CMWH8+peQsLqr4fNbPBNiw8bnqq/hE8alWpyKEMkaXASZ45uK25alIZQxwoopAInVSAJhPzfR/gXXT/x91WukivlJ7HS4L9iOkg9vm4eq673Fc0clWpyKEUj6bA68t9cNfds3BFO8RqtKRzYAWkwLAfOcYDaChMTf/SBW5KDO/4Fi+Xf8TCh3Z1deoxFHGd+p/xpx8ZS9yQmQUo7MA09UtA5yPNEazlBQA5qoGDL91H+eZRKmjXEE6ak30TuP6sb9mmk/JxiDLzc6bzw/H38I4zySrUxHCNKUOj6EFvErXBEocNSpS8QIXqAgkUiObMMx1KQrO/59Y/CmmZugg67XncUzRSeTZ89kYWENiFDbidWouLq78PJdUfQFPjvc7ENnPrmkEEjFCiXjKMWJEaApvUJFOKXC3ikBi5GQGwFxnqwhyuIXH/4ZDQ+PkkrP4/rhfM8k7zep0RmSGbzY/Gn8LJ5eclfUbG4UYUuaQngBCZgDMlA/cgcF2y5WuGs4tv1RNRiYrcpSwsOhk6txj2RHaQlBN73BTlDor+GzVF7m48koK7IVWpyNEWrlsDnZHU784y2nz0B7dgT/WYTQVDfADrxoNJEZOCgDznANcYjTIwqKTmZk3V0E66aGhUesey/FFp+K159EcaSScyJze/uXOShaVf5b/qrlG1vpFztKAaDLJYCKacgy75mBb8G0V6YwHboO03ekl3ieXAZnHcPMfyPzp//1x2zx8qvRcTik5kzf7lvB892O0Rposy2esewKnlS7iyIKF2DSpe4Uoc7jpiKY+SzfeMwe3LY9wYtBoKmOBk4CXjAYSIyOLnuZwAh0YPOJSaC/iN5PvVrXWZrmWcCNv9C1mWd8r9MV6TX9esaOU+QXHML/gWKZ4DfdiEiLrrA90E0zEUv76pb0PsHZwsYpU7gcuVxFIDJ8UAOY4BXjBaJDji07hc9VXKUgnsySScTYF17ExsIYNgfdoCG0lnkx9R/IQh+ZgomcqM/JmM8M3h8ne6bKxT4gDaI8GaAoPpPz1HZEGHun8uYpUAkAN0KcimBgeWQIwh5Lp/0zq/qeSTbMzwzebGb7ZnMul+OPNXLvVeKFz2+T7c/7aYiFGotThoTk8kPLie6VrPCWOGnpirUZT8QEXAXcZDSSGLzvmljOLhoLjf26bhxm+2QrSyXxuzdg95R/EkcFfiBFxajaKHMZ+/qbnHaMoG2kNnG5SAKh3JPpFF4bMypuHM0t77QshMofhngC+Bar2KS0ERlcjkVFOCgD1DPf+Bzgsw3r/CyGyU6HDjUNLfa+Mz1ZIvUdZp9LLVAUSBycFgHqG1//tmp3ZefNU5CKEEAdkA0odXkMxpqm7IOjzSH+atJECQK0pgOHzZtN8s/DZ8xWkI4QQB1dmcB/ARM9cPLY8FamMAU5UEUgcnBQAap2nIohM/wsh0slnd+K1pX4ozKY5mOxVdoW2bAZMEykA1DK8/q+hMVcKACFEmpU5jW0GnK5uGeB8DDZRE8MjBYA6VYDhg/vjPZMpdZQrSEcIIYav1OEx1Dar0jWBMmedilS8wAUqAokDk0ZA6ixCQUEl7/7FaBRMBOiJddEb6yYQHyCSjBBNRIkmw0ST+oUzGhre99eJXTYXpY4Kih0llDjLcWXRkddoMkJPrJveWDfd0U7CiTAAoUSAxPv37zk0Jy7NjVNz4LK58dryKHGUUuwotWz/z1BPgN5YOOUYU31H86b/XyrS+RzSFMh0UgCoo+T432i9/Efkhq5oJ43h7TSHd9IU3klzuJHdsQ4iidQHDYB8ewFj3OMZ55nEeM8kxrsnU+GqzvhWzruj7TSEttIQ2sbO0DZ2hXfQHzfWzdaluSh1VjDGPY4691jqXOMY65lIhbNKUdb7V+bwGCoApvkW8B//vz8odAwY6gmwyWggsX9SAKiRj4Kdq5WuGmrdYxWkI4QaPbEuNgyuZkNwLZsCa+iKdprynIF4PxsDa9gYWPPB7xU5SpiTN5/Z+fM5xDcnIzo9RpIRNgbeY/XASlYPrKAn1mXKM9oizbRFmlnZ/8YHv1/iKGO671Cm+WYxwzebcmel8mcP9QSIJVNrDjzUE2BnaM3BP/ngLgOuVxFI7JsUAGp8GjD86jQv/2gFqQhhTFe0k7cH3mBF/xvsCG4madE17f5YD0v9L7LU/yJOzcUhebNZWHQyc/OOSOuVzgkSrB1cxWu9L7E28I7h2Y5U9cS6eLNvCW/2LQFgnGcSRxQcy/yCY5XNDgz1BDByTfA03wJVBcDngRsA4zeFiX2SAkANJdP/c2X6X1gkkYzzzsBbvNz7NJsD6ywb9Pcnmoy8/657JUWOEo4rOpnji06lzFlh2jN7Yl285n+J1/wv0W3SzIcRO99fdnik814me2dwUvEZzCtYgEMz9rJe5nAbKgCGegKEEoOG8uDDngAvGQ0k9k0KAOOcwKeMBil0FDPJK22wRXqFEkFe7nmaV3ufNWU62wz+WA9PdT3M012PcHTh8Zxd9hkqXTXK4ndFO3my658s63uVhIJrqtNha3ADW4MbKOos4YTi0zi5+MyUNxMO9QQIJmIpff1QT4C1g4tT+vqP+BxSAJhGCgDjTkLBmdXD8o/M+A1PInvEkjGW+V/hsa4H6Iv1Wp1OSpIkebNvCcv7ljKv4BjOr7icSmd1yvH64n5e6H6cl3qeIpqMKMw0ffyxHh7f/SDPdz/OicWf4tNlF+C1+UYcp8zpoSk8kHIe030LVBUA5wNfB0bnX9IMJwWAcTL9L0aVt/pf558d/0dvrNvqVJRIkmRl/zLeHfgPp5eex5llF4zoJs14Ms5z3f/mqa6HiIzSgf+jQokgz3Y/yjL/y1xQ8TmOKTpxRG8wSh0emsMDKS8EDfUE6Io2pxjhA0M9AeRIoAnk0gVjNOBOoNBIELfNw+VVX8Gexo1NmSSWDPBM9xOG45xT/hkF2WSv3lg3f227jae6HiKUCFqdjnIJEmwOruOtvteoc48d1sa4xvB2ft/8c5b3LSGehXvNwskw7wz8h42BtUzyTqPAPryXKrumMZiIEk6k/j2JJsM0hTek/PV7KAXuVhFI7E06ARpzJPpGFUNm580b0TsWIUbqP31L+f6Oq1jV/6bVqZiuI9rGb3b9iHvabiecCO3zc6LJCP/o+Cs/abiOnaFtac4w/TYH1/HjhmtZ6n9h2F9TpuCGQJuaIWaoJ4BQTAoAY5RM/x8m0//CJIlknEc67+XPrbdk5bv+/UmSZKn/BX6881u0hBv3+m/dsd38qvEHvNTzpIqGNaNGJBnhnrbbuav1t8M6yljkcOPQUh8ihnoCKHKZqkDiQ1IAGLPIaAC7ZmdW3uEqchFiL4PxAX6x6395tvtRq1OxTFukmZ83fpe335/5WDv4Djc2fJPtoc0WZ2adN/uWcFPj9/DHeg74eXpPAGPXBE9Td0HQ55Ela+WkAEjdFGCG0SDTfbMs6/0tspc/1sOvdn2fbUHppBpMBLij5Vf8runH/K7pxwzE+61OyXKN4e38ctf3D9rZ0egywFBPAAWGegIIhaQASN15KoLI9L9QrSfWxS93fZ+m8E6rU8kYSZKsGVyVcQ2OrNQeaeEXjd+jM9q+38/x2R14bakfFhvqCaDI51QFEjopAFJneP1fQ5Pb/4RS4USI25p+SnukxepUxCjQHdvNLbt+xMABLjAqcxjrcj5d3TLA+SjouSI+JAVAaqoAw2/dx3smU+IoU5COEPoxuL+0/pbG8A6rUxGjSEe0jT82/4LY+9c2f1Sp02OoRdlQTwAFhnoCCEWkAEjNIhR872T6X6j0VNdDvDPwH6vTEKPQ5uB6/tV5/z7/m1OzUegwdkx5qk/ZRWeyDKCQdAJMjZrjfwVSAAg1GsPbearrYUtz0Ow2vOVe3MVuXEUubA47Dq8Dza6RiMaJhxPEwzHC/jDhnjCh7iDZviTvKfPgLvLgLnZj9ziwu2zYXHZIJIkGYiRjCcJ9YSL+MMHOIImYdccSX+x5gsMKjmKq95CP/bcyhxd/LPUuidN8C/iP/98qjl0O9QSQ3a0KSAEwcgXo/f8NqXLVUuuqV5DO6OKP9dAY3kFHpJWOaBud0VY6FK1XX99wDZXOaiqd1VS4qqly1jLWM3HY3c9Gq0Qyzl9bbyWexotrHD4nZYeUUTC2kILxhRTUF5I/Jh+bY/gTY7FQjIFd/fQ19NHf2Edfg5+ejd2WDoKp0uw2SqaVUDihiMKxhRSM078nDt/wX2KT8QQDzYP0N/bRv1P/nnSt7yI6kJ72xEmS/F/rrfx4wu9xfaQx2VBPgFgytT+boZ4Aiq4Jvhz4gYpAuU5unxm5C4GHjAY5rXQRF1V83ng2GSyWjLI1uJHNwfXsDG2jIbTVkv7zpc4KxrsnMd4zmam+mUz0TM2qtstL/S9wT9vtpj/HV+WjfE4lVfOrqTisckSD/XDFw3F2v9dJ+8o2Ola2Eeredye/TODMd1E+u4Kq+dVUHVmNM8+p/BnJRJK+HX7aV7TRvrIN/zbz78S5qOL/cVrpxyc5d4X76Yim3kxqW/Btnu/+k5HUhjQCEyCHujiZRAqAkfs78FmjQb439iYmew23Ecg4rZEm3htYyfrAajYH1w+r41i6uW0epvsO5RDfHObkHzmsnvGZKpaM8r87vnbQ89yp0uwaNQtqmXj2ZIqnlJjyjP1JJpN0rGhn+xNb6Vq3O63PPpCSaaVMPHsy1UfXoNnS+xLat8PP9ie20vJ6s2kzJQWvzmVIAAAgAElEQVT2Qn458c+4bXvv/g/EY2wIpl7Ax5Mx/tb2bcKJQaMpApyCXBNsmBQAI+MEOjB4FKXQUcwtk+7Omut/u6KdvDOwnBX9b7A1qOTyj7SqddUzv+BYFhR+Qum98ulg1rt/u8vOuNPHM+HMSXgrRn6drGr+bb1se2wLLcuardk3oEH1UTVMOmcKJdNLLUhgb6HuEA1Pb2fHM9uIh9Qv/exvFmB9oJtgIpZy3KW9D6i6Jvh+9KUAYUB2jEDpcwow/Ns09uP4olP4XPVVCtKxTiwZZUX/Mhb3PsfW4Ear01FCQ2O6bxYnFJ/O4flHYRsFywQ3NX5PedFVfXQtM6+chbfCWBc4M3St2c17d7zLYGvqd9WPVMG4QmZ9aQ6lh2Tekd1AR4A1d66m8539N/NJxRj3OG4cf+vHfr89EqApkvr3viPSwCOdPzeS2pAAUAPsv4GBOKjMf4XLLN8CDLe1WlTxWapctQrSST9/rIenuh7mrtbfsbxvCd2xzJmaVWF3tJ2V/ct4zf8S4WSQOvc4XDZj/dDNsjvazsOdf1MWz+FxMOfqw5h+6SGmrGer4KvyMfaUcSQTSXo2mryfRIOJZ09m3nVH4KtW0s5WOWeekzGfqCevNo+uNbtJRNUsC/TF/RxecDRFjr0nO902Ox3RQMpx8+zFbAu9TTBhuB2zE9gOrDIaKJdJATB8GnAnYGhLudvm4fKqr4y6TWj98T6e7Ponf2n7LZsCa4kkM29tX6VQIsimwFpe7X2Wvngv49wTP7YmarXX+15m7eA7SmJ5yjwcfeOxVMytVBLPTDa7jYo5lRSMLaT9rTaSCfVrAprdxtyvH86kc6eg2TN/orRwXBHVR9XQ8XY70cF9N/QZcUx7EdN9s/b6PbumMZiIEk6kvuwQTYZpCiuZtSoF7lYRKFeNrlHIWkegzwAYclj+kRxVeLyCdNIjnAjx2O6/8+eW37ApuDatR80yQTwZY3toM0v8z5MgwUTvlIwp3l7oeYKWyC7DcdxFbhb85DgKxo6u45IF9QUUTiii9Y0WSKorAjRN47BvzqPu+NF1TNdV6KbqyBpa32whFkx9nX6I3ebkmMITPvb7Gho9sdTfABTZK3hv4GUV9zLUAw8A6T9alCWkE+DwnasiyOH5yjpimW71wAp+0PB1nu3+N5Fkes4iZ6pQIshjux/ghzuuYfXASqvTAVBy05+macz95jzy60bnjZRV86uZ/lm1p2kmXzCV2oVjlMZMF1+lj/nfPVLJEc0dwc37HKSHegKkymcvot4z00hqQzTgChWBcpUUAMNnuPufXbMzK3+eilxM1RPr4je7fsRtzT+j26TjZaNVR7SN25p/yh+bf0H/AS5QMVsgMUhPrMtwnDEn1VMxJ/On/Q9k4rmTKRyvZvbCV5XH1IunKYllleLJJYw7fYLhOMFEgO7ox/f42IBSh7F9MdN9xxj6+j1cgYxjKZNv3PBMAT7eH3OEpvtm4VNzN7ZpVg0s54aGb7A+sNrqVDLaqoHl/HDH13lv8G1Lnq/qTvuJZ09REsdKmqYx4azJSmJNOHMimn30vyxOPGeykjNe+7slsMxh7ITIBM8cPGpeC8eioDNrrhr9f9PTY5GKIJl89W88Gee+9jv5Y/MvlA0u2a4v7ue2pp/ySOc9Knqcj0ggbvwYnLvEQ8HYAgXZWK9iToWSOOWzR/dsyBBvuZf8WuN/toP7eS3w2R14bal3krdpDiZ7DR+oGiIXBKVICoDhMbz+r6Fl7O1/gfgAv226kcW9z1mdyqiTJMmz3f/m1qafEkykfjxqpMIKOiy6Cozd8JZJXIVq/l9chZl5/DEVKr4n4QOc9ilzGDsVM923wNDX7+F8DDZny1VSABxcNWB45B7nmUSJI/MaiXRG2/lZ43fYEHjP6lRGtbWDq/j1ruvxx3rS8jyv3XiTnlB3kKTC3fNWCnam3qN+rzi71cTJBMHdxgtSr23/XSDLHB5DqwyVrgmUOpX0Q/ECF6gIlGukADi4c1DwfcrE3f/d0U5u3nU9bZFmq1PJCjtD2/jlru+npQjIsxmf3o0OROleb3wjYSZoe6tNSZx2RXGs5t/uV1IU5dn3//fMYbNR6DA2yzBN3SyALAOkQAqAgzO8+x/gsILMmv7viXXxq10/YHe0w+pUskp7pIVf77qevpi5t7bl2wuU3CWx5aHRf616PBRn+xNblcRqeHZ72q7fNdOWh9W05y60Fx3wvxvdDDjNtwCbmmFoITC6j29YQAqAAytAwQ7TKlctta7MaSoSTAS4edcP6Yyq7R8udK2RJm5t/ilRE3snuG0eql11huPsfq+Tnc/tUJCRddbetZpwj5prg6MDUd67/V0lsazSvLSJtuWthuMUO0opchz4BkjDPQFshap6AgBcpipQrpAC4MBOBww3gs+k3f9Jkvyl9RbLp/1tmosiz0TGFJ/IIZXnK4k5vepy6oo+QaFnPDYt9R3KKjSEtnJv+52mPmOid6qSOGvvWkP7ytE59b3l4U3serlRaczWN1tY939rlMZMl+6NXbx3h5r20BO9B39DbQNKnEY3A0pPAKtY+yqZ+ZQc/zs8g3b/P7H7n5Z0snPa8yjzHUp5/mwKPRPwuarR3v9ZtSe6Wd/xL8PPqC/+5Af/nEzGGYy04A/tYPfge3QPriWWUPMucbje8L/CBM9kTio+w5T4k70zWOZ/xXCcZDzB2796izlXHzZq2t8mk0k23reebf/eYkr8HU9uIxlLMvO/Zo2KuwAA2pa38s6tK5VdDzzZM31Yn1fucNMZSX3D4XjPHNy2PMKJwZRjvG+oJ8BLRgPlCikA9s8JGH7lLnQUM8k7vB8kszWEtvJU10Npe57PVUVF/uFU5M2h2DsFLY099DXNTr67nnx3PXVFx5P4/+3deZhcdZ3v8fc5ta9dvXc6SSch6WxkX1jCDrI5gGzKIggyKOJl5JnR0TtedZzxj7l3nBnXueo4M3pdZ3xGRxQdXFAEkREMBLKRhOxJJ53el6ru2u8fbTBAIJ06p/pUn/N5/cPzhK5ffZNO+nzqt3x/5QIDmR30pjdxbPRZxvNTs/ntO8e+ypnRVVW5/XFt/Fy+aXyJQtl63/dSvsRzn97IwI4Bltx1Jr5gbdx3cDKZo2le+MImel+obpfKff+1h5EDw6x6cA2R5tffDe+0wniBHd/Yzr4f77HtVIeBwfrkeZP62qgZIGL6GStV9vfQZ/jpjKxnS/qxil7/KnehADBptfuv3HmXA/daHeSc5IU1sQRQKhf5XNffMFio7r0ZBgYN0TNZ1PJ2FrfeQWNsGZFAE8YbrBOa5TFe6v+J5fee3/T6EzaGYRINttAUW0FH/RXURxdSKufJ5I6C9UtJXleJIody+9hQd6ktm/ZOFDSD7B/fbetyzuCuAY482UWsLUasvbbuBygXy+z5wW6e/btnSHdZb4Q0GWM9GQ4+uh8zYJJakMIwa2s24Niz3Tz9if+mZ5O9m3kXR5fzpvprJv31pXKZ4WLle14iZpxtmV9X/PoTdAKfB9x9XalNFABe358xcQOgJdc33VaVT3+n6+eDP+LJoUerNr7PDDO34SqWzbiPjvo3EQu2MdlepFMRAE5kYBAJtNCaOIu25DkYhslI9gDlKnXz68v30BKcwezQXNvHDpkRfjvyuK1j5kdzHH78EL2bewjEg8RmxjEM5x58xWyRg4/uZ9NnNtL1xCHKxantXVDKl+jZdIzDvzoEBiRmJzEDDi41lyce/Jv/6Xl2fWcHhYw91/+e6MamO5gVmjPprw8bPo7lK18GiPnq2T2+kbGS5S6kAWA38KzVgbxAAeDkDOCLgKUbRkJmmDtb3+P49bH5co4vdH2SbBXWwA0MZiQ3sGrmg7TE1+D3nf5U6VQHgBMFfHGaYstprzuffHGE0ewhy3WczKHsPi5NXf2GMyGVaA3OYHP62arM7Iz1jNH168N0PX4IA4NoWxRfaOpWDTNH0+x+6CU2fWojR37TRW7E2eN5+XSenmePsf+RveRH8kSao7Z1IJzU+4/mOPTLg2z6zEb2PrybTHd1Ok/OCM7ijrb7TmvGyjQM0qU82VLl+w/y5SyHstsrfv0J6oGv2DGQ22kPwMmtAyzfB7o8toaA4Xy71V8N/rQqzWlSkYUsbn07idP4pFCrwv4Gls14N7NSl7Lj2DcZHrf3aNyx/FGeGXmSs5MX2jqugcH1TbfxqUN/beu4J0ofSbPln19g679sJnlGHa3r2mhd30bdGSlbLpw5rlwuM7xniO5njtL9u6MM7a5uL4VK5dN5dn9/F7u/v4toa4ymlc20rmujeXWLLdfwnijTnX75z6NvSx/lYvXvnLiu6daKzuY3+iMMFSoPaYsi5/Dbof+0416N85lYCqjODlEXUQA4OVt2/9dC7/8yZX7S/32bRzWY13gN85tueHknv1ukIgs4q+Mj7Ol7iL19D9u6LPBf/d+zPQAALIutYUVsHS+kq3u6o1wuM7R7kKHdg+z89xcJpUIk5iRJzkkSn50kOTdJtCV2yk/F5VKZ3HCW0UOjjBwcZmT/MCP7Rxg+MEQhY31D41TKdKc58NM0B366D3/ET2J2ksScJIk5CRIdSRKzEgSToVOeJMiP5sh0ZxjeP8zIgd//mRwYZrx/ak+uLIwsZX1icpv/Xu14T4BCubJ/M1FfHbPDZ7J/3PIRTIOJI4EftTqQ2ykAnJzlAOAzfKyIr7OjFkt2ZrbRX3jtnd6VCvhiLJvxbppiK20bs2xaO0cMEDLtCyKG4WN+043UReazuesLth0fPJjdR1f2AO2hDlvGO9Hdbf+Dj+77E9I23BI4WdnBLNnBHnqff+VufMNnEqoLYgZ8+MI+TL9JKVekmCtRHC+QHc5Wc9+lYwpjBQZ29jOw87XLMcFkCH/Ejxkw8YV8lItlCmMFSoUiuaEcpcLU3iZ5MiEzzD0zHqx4s+rxngBWjgQujm6wIwDARAD4S5jiazqnGXd9fLPHQmCp1UEWRZYRtee+a0ueGbFlZy0AIX+K9R0ftfXhD1AiStxvbZ9EfdD+pZam2ErWzv4LAj77vo9P2/j9OFGdv547Wu+rytinq1wsMd4/TqY7zcj+YYZ2DzJycIRMd5rskDsf/qeSG86S6U4zemiEod2DDO8bItOdZrxvvCYe/gC3NN9Dc6DV0hhNfmt90473BLDB8Z4A8gYUAF7LVb3/nx39b1vG8ZtR1s7+0O9399tvXszaTYmzo9Z+cL2eZHgOq2e9H9OmvRx2fT9O5qzEBVzdcGPVxhf3urDuci5KXWF5nOM9ASp1vCeATXRB0CkoALyW5el/A6Mm1v/78z02bf4zWN5+H7HgDBvGOrmZyTWWXt+cqN5ti3XhM1jaZs/Pkq7sQcZL1bty9qbmO6uyz0Dca1lsNXe2vse28Rr9NdMa+EYsnuRyOwWAV2oDLD9J5oTnU++39onWDvuyu20ZZ0Zyg+3T/q9WitxMe7iym8UWxOoohK+0uaJXmpE8z5Y/gzJlDmT32FDRyRkY3N32AMti1gKVeMPCyJnc3/5BTBuPKjf6w5YOh7QE59IQsKV3ShR4mx0DuZUCwCtdiw1/JrXw6R/g4Pg+y2NMbIi7wXoxp1A2/Kyace9pb+aL+XwsaruP8hT8VV7QbM+lRXZ8X95I0AjyJzM/zLqEbZ+kpr2QGeaaxrcR9dVWd0MnLY+t4U9nfYywae1K31fzmyZJv7Uls0XRc22qRssAb0QB4JVcdfnPSNH6OeqG6FIigSYbqjm1fHAtl3XcStQ3uU8jSb+fi+fcQ85vec/mpCRCHSTD8yyPM2zD9+VU/Iaf+9o/wMWpq6r+XrVuRnAWH5nzSW5oup2Pzfl7OkLWv4fT3bnJi3lg5ocJmpYvOz2pRr+1ULEock5FvQhO4jwmegLISagT4B8kgC9g8Whka7Cd65tut6cii54a/hWHc9auSp2VuphUZOr+/ZT885lft5hwcSfHsie/HcwA1tTPZGn7n5L3r5iy2gDG8scYHLPWX2RmaM6UHBE1MFgZX0dLsI2tmU0Ubbg0aLpZHT+bB2d9lAb/RIiN+eKcV3cpw4Uh9tu0RDadmIaPm5rv5JaWd2La3JXyRCHTT29+jFKFRz4CZpju/F6GCpbvODCAIeCXVgdyI/UB+IOrAMtxuBYu/jluzPr1moT8KRsqOT153yLa2v6W2U1byGaeYCR3lLHCGBF/lLrQTAKRi8n7O7G/A/qphf0NlsfI2PB9OR3nJi9mdmguX+r6e7pyB6f0vZ0S9cV5a/NdXFh3+Wv+X8AIclfbe1kcXca3j/0zI8VhByqcei2BNt7V/mecEV5Y9fdST4DpQQHgD2xZ6F4Tr95u9NMVsGF6r1DFHeunkvcvw0wuow6oO/HXnSoIyJes918PGdWZdn0js0Jz+fjcT/PTgYd4qPffyJed7atfTSvj67iz9f5TbsQ9O3khy2Nr+I/er/H44M8ou7RBgWn4uDR1NTc23UHIhqZbk9XkD1kKAPPCKwmbMcatB+YO4BKgerehTVMKABMCwNVWB0n6U8yPLLKhHHvETesbntLZLhsqcY901vrVuzGHNqL5DB9XN9zIqvhZ/Nuxf2VL2l0XpjUHWrmt5V5Wxid/jjzqi/OO1veyLnEe3+r+Mkdy1bkMyimLosu4veVeZlXhJspTOd4TYKxU2dKTafhZEFnPlvRjdpRzNwoAr6E9ABMuA95ldZCzExfW1BLAS2PbeWnsRUtjZAsDdDRcYftd9tNRqZxje/dXKVlcS18VP5vOyBKbqjp9CV+Sc5MXsSy2mp58N715e++Sn2oN/iaub7qNe2a8j/bQ7IrGaA60cUn91cwMdXAwu4900fK1tI6aF+7kHa33c1PznSQdWMY7rlQuM1ysfLYpYibYlnnCjlIWAJ8HsnYM5haaAZhgz+U/idp5+AMvb3yyIlsY5MjQk7TXXWBDRdPbwYFHbbkXoKEGekQAzI8s4s9nf4LtmRd4dOBHPD/6jB03sU2ZBn8TVzXcwEWpK/AbAcvjGRisS5zH6vg5PDn8KD/u+y49+W4bKp0aBgbLYqu5rP4alsVW10Rob/SHOZRPQ7my5ZXjPQH685ZnIqPAW4F/sTqQmygATOwStdz+N2xGWBKd2h3ppzIvYs9mn5d6v0dzfI2tPfGnm/FCP3v7H7ZlrDNqaJkIYEl0BUuiK+jNH+OxwUd4avgxBguvvdCmFhgYLI+t5eLUlSyPr7XrqNgr+AwfF9ZdwQV1l7M1/Ry/Gvwpm9LPUCpXftd9NSX9Kc5JXMQlqatoqWK3zkr4TZM6M8hQsfIP3oui5/LU0HftKOduFABewfmI6Lz1wNNWB1mXOI/72//chnLsUywXeWDXbeRs2PDVHF/Nqpnvw4t/ZcrlIhsP/i0DYzssj5X0p/jU/K9aL6qKypR5aexFfjfyJBtHnmKg0OdoPQYGHeEzWBVfz3nJy2gMNE95DYOFfp4c+gWbRp9m7/guxzcMJv0p1sbPYV3iPBZGz6xKELLLQGGcPeOVn7TIFIf42tEP2TE7VWbisreXrA7kFpoBsGv6v4bW/o/zGT7mhjvZObbV8lg9o8/xYvc3WNx6B14KAWVKbDn6ZVse/gALwottGaeaDAw6I0vojCzh1pY/5kj2IC+ObWFHZgs7M1sZLg5VvYaYL05nZCkr4+tYEVtHyobjl1ak/A38UePN/FHjzQwXBnkh/TueT29kV2brlBwjjPsSdEaWsji6nMXRZcwMzamJKf7JqPOH8RujFMqVPcCjvjpmh8+040igwURnwI9aHcgtpsffoOraisXrf32Gj08v+FpNXP/7ar8c/C++0f0l28ablbqUxS1vx7Cxd3itKpXzbD3yzxwd+a1tY97X/gHOSpxv23hOGCz0cyi7n0PZfXTlDtKT62aoOMBAoY9c6fSmeqNmjFSgkQZ/E7NDc5gbXsDc8AKaLF5LO5X68z3sG3+JvdndHBrfS1+hh8FCP+ni6GmNEzSCpAKNpHz1NAZamBnqYGZoDrNCc2zZz+Okg9kRjuUrP1K8e2wjP+m35efYAWAe6gkAaAZgIRYf/gCLostr8uEPE1fE/vuxr9h27vvQ4C8Yy/ewfMZ7XL0nIFsY5IWuf7Tc9e9EUV+8JmeKTlfK30DK38Cy2OrX/L+xUobR4giFcp5cKUuunHv5757f8BMyJs6hB80Qjf7mqrWinUoNgWYaAs2sSbyyf32unGMg3/vy7Y/ZcpZCeaKLhd8IEDJCBMwgASNIzIy5+p6ChkDYUgCYG15JyIyRtacnwKXAz60O5AZeDwA2Nf+pjd7/JxPzxVkVX88zI0/aNmZfejO/2fcXnNn2x1W/JdAJx0Y2sq37q+RtPgp2duICAoa1S1JqXcSMEjGjTpdRE4JGkNagLbfaTXsxiz0BfIafTvt6ArwDBQBAlwFZ3v1vYNTU2f+TuarhBtvXC3OFYZ479Gle6PpHxvPObhKzy3ihny1H/onnuz5n+8PfZ/i4vP5aW8cUmU4a/da6EC6274bAm3llc1HPcv9C7utrA/4Bi/sg5oU7ubLBco6oqpS/gcO5g1XpA5/OddE19Dilcp5EqAOfOf0+4eYKw+zp+z5bjnyZkey+qrzHxakr2VB3SVXGFpkOwoaP7kLlywAxXz27xzcyVrIczgNMnAR4zupA052XA8BtwHVWB7kkdTULo2faUE51dYTm8djQI1U5vlQqFxgY28GhwV9QKGWIBlumxf6AdO4Ie/oeYuvRLzOQ2UGZ6pzzDplh3tv+IdvvXReZTkzDIFMskLXQTyFfznIou92OchqAr9gx0HTm5QDwCWy4J/rtLe8i4a/92aS4L0GunGfX2LaqvUepXGBwbBcHB37O4PhuDMNHJNCMadTOVpNCaYzukafZcexb7Or5DsPjeyhXucHLTU13cmZsVVXfQ2Q6MAwYKFTeFKjO18wLo4/a8UFmNvBNoDY7Xk2R2vnJPLUSTPT/t6Q12E57qMOGcqbG9Y23sS29iX3j1e2DUaZMX3ozfenN+MwgTbGVNMVW0hBbast1uqdrLN9DX3orvelN9KW3WO7lfzqWxlZxRYPliSYRV1BPgNri1T4AbwW+Y3WQqxpu4K3Nd9lQztTpznXxV/v/jKwNPe0rEQu2k4osIBmeSzI8j3hoFqYNfdyPK5ayjGYPMjy+j+HsPgYyOxlz6LKbuC/JX8/9DHX+ekfeX6QWqSdA7fDqDIBru/+dSmuwnXva3scXuz7pSDvTdK6LdK6Lw0OP//5XDMKBBqKBViKBZkL+OoK+JAF/goAZwzAMfEYIw/BTKhcolbOUyyXyxTS54gj54gjZwgCZfA+ZXDfZwsCU/55Oxm/4eU/7B/TwF3kV9QSoHV4MAAHgzVYHSfpTzI/UflvXk1mX2MAdrffx9e4vOl0KUGY83+eao4QwcTT07rYHau5yKJFaoJ4AtcOLfQAuBixfkL0qdta06cV9MhenruKaxrc5XYYr3dpyD+cmL3a6DJGaZb0nwAabKuEmIGnXYNONFwOALd3/Vidqt/vfZN3QdDs3N79jWgeZWmJg8Lbmd/ImNfwReUON/vDEkYAKtQTn0hiYaUcpUSb2hHmS144BGsAXsZj4QmaYO1vfg88FF+J0RpbQGGjh+fTvHL/idDrzGwHe1f6nXJS6wulSRGpejfUEqMejPQG8NgOwDphldZDlsbWu6ul+Xt2lPND+P9XDvUIJX5L3z/74tL/lT2QqNQasXQS1KHIOpj2PsPOBBXYMNN14LQC4/vKfSq2Mr+ev5n6GBdN0Y6NTFkWX8fG5n2ZhpPa7QYrUkomeAJU/go73BLCBwcRmQM+Z/nPYp+dzQLOVAXyGj7ta30tgGva8P5WoL8Z5yUswMNk5ttXpcmqaicm1jbfwzhkPaOZEpAIGkC8XSVd4GgDANHzsHttoRznzgc+Ct9ZBvTQD0AkssTrI4uhyV9/bbRo+3tJ0Kx+Z80nmhS13SnalOeH5fHjO/+EtTbfaNQUp4kkNAWunAc4IryJs2nLvyCwmToh5ipdmAN4FvMnqIFc2vMUTD8aUv4Hz6y4j7kuwe2wHhXLe6ZIcF/PFubn5Tu5ue4B6f6PT5YhMe0HDx2AhW3FrYMMwGSn2cyy/z45yDOA/7RhouvBSAPhbJi6AqJiBwTva7vfMlK9hmJwRWcR5dZdSosSh3H6KVb44pxZFzChXNdzAe2a8n0XR5To2KWKjYrnMSDFX8esjZoJtmSfsKKUT+DxQ+W1F04xXAkAr8Cks3n0wL9zJlQ1vsaeiaSRsRlgWW8NFqSsJGiEOZPd4YkYgbEa4vP467m//ICvia12570PEaWHDR3eh8tbAMV+KPePPMlYasVpKANgNPGd1oOnCKwHgdsDylWyXpK5mYdS7u71DZojF0WVckLqchC9JX6GHdNHyP7qaMzPUwbWNb+OPZzzIyvg6gnrwi1TNRE+AfK30BGjAQz0BvDKX+SNs6P//ibmfnVbX/1ZbmTIvZjbzq8Gf8PzoM+TKlU/jOS1khlmb2MBFdVfoKKTIFBsoZNkzPlTx6zPFIb529EOUrF/sVwYWAtW9M71GeOEyoDgTNz5Z0hKcoYf/qxgYLImuYEl0Bblyju3p53lm5EmeH32GjPWbuqou5ouzIraOVfH1LI+tJWRa25EsIpWp84fwG2bFmwGP9wTYP77ZainHewJ8zOpA04EXAsCbAcs/2dfEz7GhFPcKGkFWxtezMr6eQrnArrFt7MxsZefYNvaM7yRXcn5fTdiMsCCymM7IEhZGl7EgsljH+ERqgAnU+0P0WLgmeHF0gx0BAOAu4ONgfTqh1nkhANiya291/Cw7hvEEv+F/eWYAoFgusm/8JfaO76Ird4DD2YN05Q6SKY5WrYa4L8HM0Bzag7OYGZrLvPACOkLzMF1wf4OIGzUGIpYCwNzwSkJmjKz12ccO4BLgUasD1Tq3B4AgNqz9J/wDA8kAAA3tSURBVP0p5mtduGI+w8f8yCLmRxa94tcHCn305o8xUOhjuDDAYKGfwcIAI8UhSuUSY6UMJUqMl8YolYv4DD8hM4zP8BM2wpiGj6Q/RcrfQJ1v4r8pfz0tgRkk/ZZvfBaRKRQz/URMP2MVdgb0GX46I+vZkn7MjnLuRgFg2rsEsPwkWB0/S2e/q6De36iGOiLysgZ/mMO5ymcGF0fPtSsA3AQ8AFS+M3EacPsCqC3T/6tcePmPiEitafKHwaj8w1ZLcB6NgZl2lBIBbrZjoFrm5gBgANdaHSRkhlkSXW5DOSIi8kb8pkmdGbA0xsKobRu277JroFrl5gBwFhMXPFiyIraWgKFGMCIiU6ExELH0+kXRc+063XMBsOiUXzWNuTkA2LT7X9P/IiJT5XhPgEpFzSSzw7Z1bH27XQPVIjcHgOutDuAzfCyPrbGjFhERmYTjPQGsWBQ9155i4J24uGW+WwNAJ7DE6iCLo8uJ+uI2lCMiIpNldRngjPAqwmbMjlJmARfbMVAtcmsAuNGOQTT9LyIy9Y73BKiUafhZEFlvVzmu3Qzo1sPtTwIbrA6yJnEuCV/ChnJEROR0ZIoF0hU2BQIYKfRyMLvNllKAGcCwHYPVEjcGgFagC/fOboiIyNS6F/gXp4uwmxsfktfjzt+XiIg4w5XLAG58UF7ndAEiIuIq5zOxDOAqbgsAfuBCp4sQERFXMYDLnS7Cbm4LAGcBOrcnIiJ2u93pAuzmtgBwi9MFiIiIK10BLHC6CDu5LQBc5nQBIiLiSgYuawrktgDQ4XQBIiLiWp1OF2AntwWAUacLEBER13JVMyC3BQDd2ysiItWSd7oAO7ktAKScLkBERFyr1ekC7OS2AODaaxtFRMRxrjpm7rYAICIiIpOgACAiIuJBCgAiIiIepAAgIiLiQX6nC6g1H6hbTdjQH4uISK0YKBYYKhUtjbEt38OzuSM2VeQOetK9yrsSZ5IyQ06XISIiv7cvn+VQ3voRfAWAV9ISgIiIiAcpAIiIiHiQAoCIiIgHKQCIiIh4kAKAiIiIBykAiIiIeJACgIiIiAcpAIiIiHiQAoCIiIgHKQCIiIh4kAKAiIiIBykAiIiIeJACgIiIiAcpAIiIiHiQAoCIiIgH+Z0uQEREakOmXGBHfoDd+SGGSznS5YIt49aZQRrMMJ2BOhYEUvgwbBlXrFEAEBHxsIFSlu+md/ODzB6ezfWQL5eq+n51ZpDzw+3cFJ3PFZEOAoYmop2iACAi4kGDpSz/MLSJr4++SMamT/qTMVTK8aPMPn6U2cdMf5wHkyu5I75IswIOUPQSEfGYhzJ7OLfrP/jSyJYpffi/2uHCKB/sf5Irjz7EjvyAY3V4lQKAiIhHFCnzFwNP8e7eX9JfGne6nJdtzvVx5dEf8P3MHqdL8RQFABERDyhQ4r7eX/KvI9ucLuWkxsoF7u99jK+Mbne6FM9QABAR8YAP9D3JDzN7nS7jDZUo8+H+pzQTMEUUAEREXO4ro9v5dnqn02VMSoky7+t7nK25fqdLcT0FABERF9tfGOHjA791uozTki0XebD/cYqUnS7F1RQARERc7C8Hfst4ueh0Gadtc66Pb4zucLoMV1MAEBFxqW35fh4Z2+90GRX7zPDzVW9M5GUKACIiLvWvI9un9ST64cIoPxs76HQZrqUAICLiQvlyiR+4YDf9dzMvOV2CaykAiIi40PO5XoZKOafLsOyJ8S5K03oeo3YpAIiIuNDG3DGnS7DFUCnH/sKw02W4kgKAiIgL7c4POV2CbRQAqkMBQETEhXpKY06XYJuBGrq3wE10HbCIiAtlStZv+Ysn6ggGQ5bGSKdHyI5bCyOZct7S6+XkFABERFzIjo1z9Q0t1KUaLY3RdWiP5QBQLGsTYDVoCUBERMSDFABEREQ8SAFARETEgxQAREREPEgBQERExIMUAERERDxIAUBERMSDFABEREQ8SAFARETEgxQAREREPEgBQERExIMUAERERDxIAUBERMSDFABEREQ8SAFARETEg/xOFyAiUk3dxQzbzV5GghliBFk83kq7LzbldfQaaV6IH6bXlyZBkPmjrSwsNE15HSLHKQCIiOuUgR+bu/h89lmeOzpKufzK/7+iPcr9dcu4Pr0ME6OqtTyW3MlnMs/x1N7X1tHRFODe2fO5u+8cQviqWofIq2kJQERcZbSU525+wD37HufZI6996AK80JXh/u1Pc4vvuwwaY1WpI28UeX/dj7hlyxP8Zs/J6zjQm+djz73IlcVvszfcW5U6RF6PAoCIuEamXODmwn/yyIGeSX3943uHeEvue4wYWVvrKAP3x3/ANzYfndTXbz+c5bpjD3Mo3G9rHSJvRAFARFzjf/l+wXNHR07rNS8eGef9kUdsreOfWp/gh1tP72F+bLDIu/OPUDJOMlUgUgUKACLiCluKvXx7/8GKXvvQi738Lr7fljoGA2P8/baXKnrtxr1jPNS8yZY6RE5FAUBEXOFrkedOus4+WV/3P29LHQ+3bGIoXaq8jqEdttQhcioKACLiCo/3d1t6/S8O2LP+/thol6XXP703Q9aXt6UWkTeiACAi016+XOLAoLWNfMcGi4yb1h+8B0atnSrIF8ocjmkzoFSfAoCITHtlyhQrn3V/WdYoWh5jPG99E1/Jb70OkVNRABCRaS9o+KiPWWukEw4aJEthy7W0xgPWx0jXWx5D5FQUAETEFdY211l6/VlnRLHjBN7aBmsP7xVzQySyEeuFiJyCAoCIuMINwU5Lr7+uvsOWOq7JLsaw0F34+hmzbKlD5FQUAETEFa4fX8qCllBFr+1o8XNr93pb6ljWM4erllc2G9GYNLmr52xb6hA5FQUAEXEFPyb/mLyUUPD0Pn4HAwb/d94GAgXra/fHfbJ0GTMaT29PgmHA3y1ZTTyn6X+ZGgoAIuIaq3Lt/L/5FxCPTO5HWzRs8KW1a1h/xNrywas1D9fzzTmXMrNpcheuBvwG//ucRbz5yCpb6xB5IwoAIuIql6Q7+dmsa7ls4etPwxsGvHl5HT9bfBVv7qrOQ/fM3g5+1nQ996xrJRR4/VmJczqj/HDVxdx9+Pyq1CHyeiYXT0VEppEzsk18i5vZufQoP4m/yPbsAAO5PE2RIItCdVyTXsrcwdaq19GYqeNvMtfwgflD/LhhK8+O99CTzVEfDLAgnOCybCfLejvgWNVLEXkNBQARca2Fo20sHG37wy+knamjMVPHnZkN3OnM24uclJYAREREPEgBQERExIMUAERERDxIAUBERMSDFABEREQ8SAFARETEgxQAREREPEgBQERExIMUAERERDxIAUBERMSDFABEREQ8SAFARETEgxQAREREPEgBQERExIMUAERERDzI73QBIiJSm3K5LGNjaUtjFAoFy3UYlkeQk1EAEBFxoZBh/cd795EDdB+xoRiL7Pi9yGtpCUBExIXqzKDTJdgm4aLfSy1RABARcaE5/oTTJdhmli/udAmupAAgIuJCZwYanC7BFn5MzgiknC7DlRQARERcaEN4BqYLts+tCDYSMwJOl+FKCgAiIi5Ub4bYEJ7hdBmWXROd53QJrqUAICLiUm+PLXS6BEsChslNsflOl+FaCgAiIi51XWzetN4MeEuskzZf1OkyXEsBQETEpfyYfCS13ukyKhI3A3ygbo3TZbiaAoCIiItdF53HlZEOp8s4bR9JrWeGPv1XlQKAiIjLfbbxQmb7p89Z+rdE5/HO+BKny3A9BQAREZdLmSH+rfkqGs2w06Wc0jmhNj7beJHTZXiCAoCIiAcsCNTxUOsfMbOGZwIuDc/iWy1XEDZ8TpfiCQoAIiIe0RlI8dPW67goPNPpUl7BxODB5Eq+3nK5mv5MIQUAEREPafJF+PeWq/hUwwU0+yJOl8OqYBMPt17Dh1Pr8OuRNKV0x6KIiMcYwO3xhdwQO4Nvju7kG6Mvsj0/MGXv78PgovBM7kks4U2RDhc0LJ6eFABERDwqYvi5N7GUexNL2ZUf5NfZI2zO9bEnP8RQKUe6nLflfVJmiAYzzIJAHetCLVwQbp8WGxLdTgFAREToDKTo1K17nqIFFxEREQ9SABAREfEgBQAREREPUgAQERHxIAUAERERD1IAEBER8SAFABEREQ9SABAREfEgBQAREREPUgAQERHxIAUAERERD1IAEBER8SAFABEREQ9SABAREfEgBQAREREP8jtdQK0ZLuWcLkFERE4wUsozWrb2szlXLtpUjXu4LQDkgKCVAdZ3fcemUkRExGXGnS7ATm5bAhhyugAREXEtVz1j3BYA9jldgIiIuNZepwuwk9sCwGanCxAREdfa4nQBdnJbAPiV0wWIiIgrjQDPOV2EndwWAB4Gsk4XISIirvNDoOB0EXZyWwDoZyIEiIiI2OmrThdgN8PpAqrgLOC3ThchIiKusQlYA5SdLsROPqcLqILDwApgidOFiIiIK7wD2O10EXZz4wwAwGzgBSDldCEiIjKtfRO4w+kiqsGNMwAAw8Au4G24N+SIiEh17QSux6Wby90aAAC2AxngcqcLERGRaaeHiedHl9OFVIubAwDAb4BB4Ao0EyAiIpPTBVwJbHO6kGpyewCAiRMBW5j4ZoYdrkVERGrbY0w8L1y36e/V3NYH4PV8j4mTAd9zuhAREalJg8D7gDcBRxyuZUp4cVr8LOCDwLVYvDpYRESmvUPAl4HPAQMO1zKlvBgAjmsErgYuApYD84AkWiYQEXGrYaCPid39TwM/B34NlJwsyin/H46D6XkLHoPSAAAAAElFTkSuQmCC;" parent="1" vertex="1">
          <mxGeometry x="200" y="120" width="160" height="160" as="geometry" />
        </mxCell>
        <mxCell id="YJ6UbeCUbPOiozkyNc1K-2" value="" style="shape=image;verticalLabelPosition=bottom;labelBackgroundColor=default;verticalAlign=top;aspect=fixed;imageAspect=0;image=data:image/png,iVBORw0KGgoAAAANSUhEUgAAAgAAAAIACAYAAAD0eNT6AAAABHNCSVQICAgIfAhkiAAAAAlwSFlzAAAOxAAADsQBlSsOGwAAABl0RVh0U29mdHdhcmUAd3d3Lmlua3NjYXBlLm9yZ5vuPBoAACAASURBVHic7J1neFVV1oDf29JJAkkooXdC772jYMHee1ewl08dy9imOGMZGR17Z9QRlVHRwV4QaYogqPTeE0gCqaTe78dOFDDl3rP3uXW9z3OeGcnda+9zcnPW2muv4kAQhEgmERgNDAS6Az2ADKBpzc8cQBGQD+wF1gBrgWXAt0Bx4JcsCIIgCIIVWgI3AfOBMsBr8SqvkXFTjUxBEARBEEKQ8cCHQAXWlX59V0WN7AmBuhlBEARBEBrmaGAB5pV+fdcC4KiA3JkgCIIgCL+jFTCTwCn+I68PgHa236UgCIIgCL9yLlBA8JR/7VVQsxZBEARBEGwkHnie4Cv+I6/ngDgb71sQBEEQopZU4BuCr+zruxYDabbdvSAIgiBEIa2AlQRfyTd2raxZqyAIgiAImqQAPxJ85e7r9TPQzJYnIQiCIAhRQgKBTfEzdX1bs3ZBEARBECzwKsFX5lavN2x4HoIgCIIQ8VxK8JW47nWR8aciCIIgCBFMJ1QjnmArcN2rCOho+NkIgiAIQsTyIcFX3qaujww/G0EQDOAI9gIEQfgdpwD/NS20Q2pTTuzRk5Ft29ExpSnNtuyE8gryKsrZUlLMwv37eD9nF1tKbekAfBIwxw7BgiBYQwwAQQgtnKhc+l4mhDlwcFafvtw6ahz9Wx6Rnn+gEFZtQG3Sf+PHwv08vHkts3ZvO+InWqwE+v9uMkEQgoYYAIIQWhjb/Y9q157HjjmBQZmt6//Qui2Qm1fnj34oyOfG1ctZuD/XxHJAvACCEFK4gr0AQRAO4yWgra6QKwcP483Tz6FNSkrDH4yPg+y9df4oMzaeC1q3J7usjGUF+bpLAtU58CUTggRB0EcMAEEIHXoAf9MV8vDk4/jLpCm4nM7GP+xxw8GDUHKwzh+7HA6mNs8kye3ms9xs3aW1Q9UGqNvlIAhCQBEDQBBCh5uAMToCrhs2kvsnHu3fIJcL9jWsk0emprOvopzvD2jr7nzga10hgiDo48MWQRCEAHG6zuCJnTrzyJTj/R+Y0gRi3I1+7LEe/RnXLMPCyg7jDF0BgiCYQQwAQQgNMoFuVge7nU4eP/ZE3L64/Y/E4YCmTRufw+Hg6Z6DcDu0YoezgAaiEgVBCBRiAAhCaHCUzuDLBw0lK6O5dQFJiT59rHtiEy5q3cH6PIrxugIEQdBHDABBCA2GWB3owMHto8fpzZ4U7/NH7+yUpZs/PFRvuCAIJhADQBBCg+5WBw5p3YZ2Kal6s8fHgdM3td4hPpEByY0fGTSA5aMOQRDMIQaAIIQGlg2AE3tk6c/ucICr8UDAX+dsnqkzm+V7FQTBHGIACEJoYFmjjmlvqNme2/es4LFNtbIBtKwHQRDMIAaAIASfeMD37fcRdGmWZmYVLt9fB10SknRmiq25BEEIImIACELwaaIzuGmc7wF8DVJZ6fucnhjd2bQsCEEQ9BEDQBCCj1ZFTqdeXv5vVPhuALj057Ts8RAEwQxiAAhC8CnWGVxQVqa/gupqqKr2+eMHKit0Z9S6Z0EQ9BEDQBCCTwngtTp4U76B3jql/hkRm0qKdGarRt2zIAhBRAwAQQg+lcAeq4O/37ldfwWF/il0zaZAu1FGgCAIQUQMAEEIDbZYHfj+2tX6s/tpALyXs0tntk06gwVBMIMYAIIQGqyxOnDelk3sP3jQ+szVXjjguwGQV1HOt/l7rc8Ha3UGC4JgBjEABCE0+M7qwIqqKp76bpH1mfMPQIXvQX3/2raBSq/lkAWAxTqDBUEwgxgAghAaaCnFhxfMY1+JxcD6bN9389nlB/nHFu0N/BJdAYIg6CMGgCCEBisAywfrBWVl3PXFJ/4PLDnol/v/znU/UehHwaA62A78oiNAEAQziAEgCKGBF5ijI+CFH77nuaV+bq637sDXDMSXd27mlZ1b/F7XEczxeUJBEGxFDABBCB3e1BVww0cf8NXmjb59ODcf9hf49NEvcrOZ/ssyjZX9yiwTQgRB0EerBKkgCEbZCpwFWG61V+X1MuuXlbRukkL/Vg003auohHWbfKr+98bubZy7YgnlXu3U/TXA7bpCBEEwgxgAghBauIFjdARUVVczZ+0q8ktLGdmuA7HuI8ruV3th3UYobjh18EBlBbeuXcmd637Sjfqv5T40sh0EQTCLoS4igiAYIh5VKKelCWEZiYncPXYiVw4eRoyrxt7fvB321B/5X15dzbPbN/LnTavZV26gz4BiF9AZ0ChYIAiCScQAEITQ43rgnyYFpsTFcUyXbpyc3ooRXjdt4xIO+/n2gyUs3p/Lezm7+GjvbhPNfo7kWuBJ00IFQRAEIZLwAD+houVtueJdLm/zmFhvi5g4b7zLZds8NdcKpP2vIAiCIPjEWKAKexVzIK4qYJThZyMIgiAIEc3DBF+B614PGn8qgiAIghDhxKDK5gZbiVu9lqCOMwRBEARB8JNWwDaCr8z9vXYCbWx4HoIgCIIQNfQD8gm+Uvf1ygP62vIkBEEQBCHKGADsI/jKvbErHxhi0zMQBEEQhKhkAFDbvScUrx1Af9vuXhAEQRCimNbADwRf2R95La1ZmyAIgiAINhEL/I3QqBNQDTwLHF5aUBAEQRAE25gMrCN4yn99zRoEQRAEQQgwscCdqMj7QCn+POAuIC4A9ycIgiAIQgOkAHej8u/tUvy7gD/WzCUIgiAIQgjhBk4C3gYK0Ff6hcA7wClIQx9BEARBCAtigZlYV/5vIm5+QYhYnMFegCAItlEG7NEYnw0cNLQWQRBCDDEABEEQBCEKEQNAEARBEKIQMQAEQRAEIQoRA0AQBEEQohAxAARBEAQhChEDQBAEQRCiEDEABEEQBCEKEQNAEARBEKIQX0p7OoCuQAegHZBW8++JQEw9Y6qAHGAt8BWqIEk44wSGAoOAFjR83wU1/78I2FpzrQXKbV6jIAhCpOABuqP0TnsgqebfkwFXPWPKUHrnB+A7VKvqcCYWGA/0AJpT/32XA8U1/z8X2AZsBjagKnpaohfwDKoamE4t8f2ozmH1Kc1Q53zUw9Stp/42MDHAaxeEh7D+vf1nENYrRDfjgbdQ70ydd+4m4NzALt0YMcAdQD56z2AP8BTQ05/J44AngErNyY+85gNN/XoMwcUFvIDZZ+AFPgQyA3gfQnQjBoAQDrQE3sf8+/Z5wuuoOxWYh9lnUIn6W260r0czYKHhyQ+9Pqd+N0ao8Xfsew7bgd6BuxUhihEDQAh1soAt2Pe+fTBgd6KHE/gE+57DApSOr5NY1C7drslrr0stP57A0Q91nm/nc9gBtA7UDQlRixgAQijTChUnZee7thLoE6gb0uAi7Ne/86jnOP6BAEzuBX7ReUIB4hUC8yw+CtD9CNGLGABCKPMBgXnXvhSoG9JgBYF5FvceOXEmqu1nICb3oiI7QxndwEd/rmMCdE9CdCIGgBCqHEXg3rO7A3RPVmlD4J5FKSrm4tfgiGmoI4BA0TGAc/lLAirlIlDcEMC5BEEQQoVAvvtaot7toUqHAM4VB1wJv9UBODWAk0NoBwIGem2TUJGf+wM8rxAZxKJebpmoGhWtj/jfgRqyz0adne4B9tZc2TX/vanmKtWQL0QvScDRAZ4zlLMBAr2204EH3KiCPlkBnnxrgOfzh0JU/mWgUhY9qKDDeQGaTwhPav9Oe9ZcvWr+twP2vTya07g3bBewseZaC/yIOssMdZerEFz6EVivcy6qOFuosj3A8/UCEtyol0ggrY9NwPoAzmeFT1C7n0DRGzEAhN+IAwYDY4ARqO9HB1RVzlAjs+Yac8S/56AMgeXAYlQKUk5glyaEMIFOg/4kwPP5y2ZgHdAtQPM5qdn4n0vggg+8hMeZ90gC+0xmBOa2hBAlFTge+CsqFTeQAbmBvFajCrNciCrvKkQvjxC47101MDwwt6XFtQT27/FsUMEAgZrwe8KnJLAdVQDru14M0D0JoUN/4D5gGfbXnAjVaxXwMKpEtkfraQrhxjME7nv2bIDuSRcPylsWqOdyBcCNAZrsZ8Kr8E0sMIfAPJs3A3RPQvBwoeqcz0C/t0QkXgdQ/TLOB5pYe8RCGDGTwHyv3id8Np2gCiOtJDDP5kaA22yepAx4nPD8o3YCtwB52PuMZgfqhoSA4gKORRWW2kfwlWy4XCXALOAkAhsoJgSO/2DvdygXuJnQjvyvjyTgMZTutPMZ3eZLO+CG2Ah8Uc/P8oE1wP9Q6UPhSDXwKPA0MAXltm1B3cFYvVGxA4LQHlXy+hKgbZDXEo7EA2fWXPtRBvLzwJJgLkoIGZagAkyPxItKU10OfIoyJMORIuAm4C+o2KAe1F/DfxLQWWcyHQ/AGzoTRxg3YP05igcg/IkBTkC1MjXdSVMuda1C/Z3V9oYXwhcdD8BtQVhvqKL1HMPRPSIIoURbVETzTlTMyBmEdqGrcCYLFUOxE/gX0D24yxGE8EYMAEGwRkdUrfx1qDiR9OAuJ6pIBq5BeQQ+AIYFdzmCEJ6IASAI/tEHFcG8DrgeVbRHCA5OYCoqdepb1BGMIAg+IgaAIPjGSNRucwVwAb/10RBCg1GoI5j5hEfRF0EIOmIACELDZKEC+xagdpuhWI5X+I3RwCKUsdYlyGsRhJBGDABBqJvWqAqNP6EC+4TwYirwCypoMC3IaxGEkETcmIJwODGoHNy7CZN0M4fDQUZ6OpktW9CqZQvaZGbSskULMlu1pHl6OnFxscTHx5PcpAnxcXHEx8eR3KQJTqeTsvJySktVR9/y8nJKSg8CkJubx768XPbl5pGdncOuPXvYk51Nzt597Ni1m+y9e/F6vcG8bV+IQaUNXoTqs/AEqs+CIAiIASAIh3I0SkmEbHpZ68xW9OzenZ49utMrqztZ3brRtUtnYjzWSunHxsQQG/P7Sqkd2tVdv6i0tJTCAwXk5uWyZdt2tmzfzuat29m6fTubtmxl89ZtVIeeYZAKPARcBlyOChgUhKhHDABBUC7iGag69CFDfHw8QwcOYMSwIYwcNpTeWT1ITUkJ+pri4+Nplp5Gi+bNyerW9TBPQHFJCT+tWs3KX1azctVqflq1mqLi4iCu+DC6o9puPw3cARQGdzmCEFzEABCinbNQvSqaB3sh8fHxjBw2hJFDhzJq+FAG9OuLxx2af6Jut5tm6emkpDZl/4F8CgsK8VZXk5iQwPDBgxg+eBAA1V4vm7dsZemKlcxftIQfflxBeUVFMJfuRNUQOAG4Cvg4mIsRhGASmm8XQbCfNFSb0NOCuYiU5GSOOWoixx8zmaPGjSUuLrzKCrjcLtLS0klNbcqB/QcoOLD/MI+A0+Ggc8cOdO7YgbNOPpGS0lIWL13G/EWL+Xbxd+Tt3x+spbcDPkLVdLgJ1fBLEKIKMQCEaGQS8CpBak+dkZbGcVOO5oRjpjB65HDL5/ehhMvlollaM5okNyE/P4/iwqI6P5cQH8/EMaOYOGYU1V4vv6xew8dffMVHX3zFgYKCAK8agAtRsR/nAV8FYwGCECzEABCiCQeqw9btBDgF1uVyMXHsGC485yymTJqI2x2Z7QI8Hg/Nm7egLCWV3H37KDtYf9C90+GgT88s+vTM4oZpVzB/0RI++ORTFn63lKqqqgCumlbAZ8C9wIOoLqCCEPGIASBEE8+jIsEDRmarllxw1pmcd9bptMnMDOTUQSU2NpbMzEwKi4rIz81tVKHHeDxMGjuaSWNHsy83j7mff8F7//uYrTt2BGjFuIA/owoJXQDsC9TEghAsxAAQooWLCKDyHzNiOFdfcSlHjR+HyxWZu/1GcTho0qQJiYkJ5OXmUeijiz89rRkXnnUG5595OvMWLOTVN9/mp1WrbV7srxwDLEMFhy4K1KSCEAzEABCiAQ/wgN2TOBwOjho/jluuu5qhgwbaPV3Y4HS6SM/IICmpCfv25lDhYxaA0+FgwuhRTBg9iuU//cyrb77Ft4u/C0QBoraodMHbgcfsnkwQgoUbvdrmIVfxI4jonBtKSWZ7GY2K+rYFp9PJ8VMmc8t1V9O3V0+7pgl74uLjaN2mLXl5uRQcOODX2AF9ejOgT282btnKzDffYu7nX1JdbetRvQf4B9ANuBYIaFBCFKDzzpMYjd/Q0cEOJ+rsyyryi/gNnReEGAD2MtQuwVOnTGbBp3N59Zl/ifL3AYfTQVp6Oi1btcLl8t8B2blDe+7/w63MevFZxo8eacMKf8c04F0gIRCTRRE67zwxxn5D51m4nOh5AMQA+A0tS8zYKoS6aGpaYK+sHrz3n38z87mn6N5Vms75S3xCAq3btiEh0Zpe7dS+HY8+cC8v/2sGfXtmGV7d7zgB+BLIsHuiKEL0jhm0noXuzlN+EWaQ52gvxoq8NE1N5a/33s1XH77P2JEjTImNSlwuFy1atqJZWhoOhzV90LdnFi898Rj3/+FW0poZt/MOZRiwhBDuExFFyPvSDF4nejtXCSL8jfCv5hK5LNcV4Ha7mH7ZJSyb/yXTLr04YvP4g0FKaiotW2VazpZwOBxMnXwU/331Rc497RScTttO1DoC87HxSCmK0NE78sf3GzrPwusESjQEBL1+egiRrjFW53cgNM5XwG6rg7t27szHs9/iL/fcRUpyssFlCbXExceR2aYNMRqlkJMSE7nlmmm88q8ZdO7Q3uDqDiMD+BQYYtcEUYLOO0/nXRtppGmMLXYCOzUEDANiNcZHEuM0xur8DoTGqQTu8neQ0+lk+uWXMG/u+wzs38+GZQmH4na7yczMJDExSUtOrx7dee3ZJ7ns/HPsqsGQAnwCSK6ndXTeeWONrSK8iQWGa4zfpWsApKAaaUQ7E9D7UooBYDPZ61evOe3EqfXXpT2CDu3aMufN1/nLH+8KuwY94YzD4aB5yxY0bdpMS06Mx8PVl17Mq0/+k3ZtbGn50BTlCehrh/AoQOedNwaYbGohYcxNQKrG+J0u1FnMzRpCRgH/JXpLZyYBcwGdN9YLQMBKnUUb+Vs2nOJ0u94/bvLR8SWlpSxd/mO9n3W5XFx6wbnMfOYpOnfsELA1CocTFx+Py+XmYGmplpyMtDROnDKZPTk5bNi02dDqfiUBOB3197/XtPAIpxVwjsb4scBLQJmZ5YQdWcAb6MWe3VcbersT0ClUvhQYgXK1RhtPo3KFdWgLBKzoeTSRt2X9NTgcj3NIxstPq1bz7Euv8OU389mTnQNAyxbNOWr8OK64+EL62J9WJvhIcVERe7OzjVQcm/Pxpzz0+JOUNtCgyCJ7gPHAWtOCI5iWaMTl1PAycKmBtYQbblSZ6sEaMnYAbWsNgNdQ7TB1uA+4X1NGuHEMyvrXyWldj6o2Jhgmd8uGWxwOHqaB309FZSVVlZXi5g9hSkqKydmTbaQE8Kat27j57nvZvnOXgZUdxnZUTJSuUosmVqF2sjqcBMwxsJZw4l6UvtXh38CFtbuitzSFAdxNdKXHpALPoV/EZ5aBtQhHkLd1w20OB4/QyO/H43aL8g9xEhISadGqFQ6nfr2sTu3bMfOpxxk6cICBlR1GW+BDING04AjGhN55AWhhQE64MAALAc118Cb89nKMAbagzmV0WI2KjDXuYwtBXgfO1ZRRjbKA1+kvR6gld+v6+xw47g32OgSzlJaWkr17txFPQGVlJQ//62nemfOhgZUdxtuoToLSJ6VxOqOOTXRTNWajYjEinTjgB0C35vguoANQUfvgq1DGgG5kZQbKAv5EU06ocwZmusu9AzxjQI5QQ97WjX9wwJ+CvQ7BPB6Ph9jYOIqLi7RlOZ1OxgwfRmpKCou+/8Fkh8FeKIX2lSmBEUw+Spn11pTTE9gIrNReUWjzd+BEA3LuB76Fw92jSShrTCcYENSudhLwtaacUKUl8BP6xSgqUe6cn7VXJACQv3XDRV4VGCS9FSKY4uJi9mbvwZTO/vSredzz4ENUVBqLYfYCF6Jiq4SG6Qn8iH4l1f1AHyI3mHocqh+FbpnLnUAPoAgOd72Uox7eGZoTOFARsS8TmSka/wH6G5AzA3lBGCN/24aTvep5SpnQCCcmJga3201JsZkCmp07diCrW1e++nYhlVVGGs05gONRL+ztJgRGMHtRXuPRmnLiUJ6E17VXFHo0AT5GL9W8lis4pDT6kS/LX1CBfF01J0lFBWZEWnTmZcD/GZCzFXVOWG5AVtSzf8uGiV7VsjUm2GsRAkNMbCwO4KChlL52bVozsF8fvpy/gPKKChMi3agsoVcBvWIGkc8i4Ez0FVxnIAf4XntFocWTKK+6LnM5IoCwLldpK5SLW6fGcC0nAh8YkBMKdECdMTXRlBPpRyQBZf/WdZ2qcS5B6oNHJftycigsLDQmb/W69Uz/vz9QWKQfZ1DD+8ApSFBgY4wC5qHvwStGeWg3aK8oNDgelV2iSx7qiOSw/Ne6HnYRKjf9LAOTHgXMRP1SwhknqtqhiVagM4BnDciJenLXr0/G5fwcZZwJUUh8QgIHD5ZSaej8PiMtjUH9+vLpV/NMxQT0IDJ3pabZjqqsqHsUEINq1PQK4W90paFc/3rNMRSXAIuP/Mf6rK01qC+ubnRmIuo44U1NOcHmJuAqA3LWoAyraKyYaBSv1+s6WJQ/G7VzEKIUh8NBQkISxUXFVFebaRPfIiOD3lnd+ezrb6gyExMwCbWLyzYhLIKZj/Ia6+b1t0Udu3yrvaLg8gqquJQub1JPkb6GoqVTUS7vtgYWcAHhG/CWhcq9jNeUU4lSVt9pr0ggd+v6xxw4bgz2OnyhorKSHTt3caCggILCQrzV1SQnJ5OUmEC7tm2JjYnO0IXyigq279hJYVERBwoKwOslJSWFJomJtG3bhhiP74HhZQcPsnvXLpPpfHy9YBG33fcnU0bAKtTOVFp/N0w/1DtS94+iHBXPtkJ7RcHhXMwENO5Guf5z6/phY+lSxwL/8+FzjRGuKRoeYCF6NZdreQBVwlFonKHARSiDqTVwABWX8i7wn7ytG6eAdw4hmu63JzuHL7+Zz7eLFrN0+Qq2bttWrzvZ5XLRtnUm/fr0ZsyI4UwYO4aO7dsFeMWBYfvOnXw9fwHzFy5m+cqVbN2+ncrKupWr2+2iXZs2DOjXt+a5jKZt64a7+hUVFrI3J8fomj/4+FPue+hRU+KeAaabEhbB3AX82YCcFah3SbgFW2ei3ne6QZFeYCoq+K9OfHmBPoMZ9/dnwBTC61zGRM1lgGWovs1GwosjmERUeeVzqOe76fF4Nn/0zqxmA/v3TQnoyhqhsrKK9/83lzfemc28bxdquaOHDBzAOaefylmnnkx8vK7jKbiUV1Qw+/0PeOPtd1i45HvLO3SHw8GIoYM55/TTOP3kE+v1muzNyaHIYFAgwBPPv8gr/zFRtRYvcDTwhQlhEYwbdRyg0+u+lgeBOw3ICRQOlMI+xoCs54ErG5usMZJQhRo6G1jQtaiUhnBgMGr3r1ug4mCNrF+0VxTZJKAyI4Y09sG4uDj++9orDB9iwjGjR1VVFa+/9Q4znnqGLdvMpnxnpKVx9RWXctUlF4Vdv4Lyigpefu0Nnnj2eXbt3mNUdquWLbjuqiu49ILzfndM4K32smPndirLzdna1V4vN911D98uNnJ6tw7oS2TWSDFJN1S+eoKmnCpgDCrVMBy4CjPVYTejjlMatIZ9daGORr2cdVM0SlApGus15diNqZrLoOoGGPMhRjAvAxf7+uH0tGYs+fJTmqam2reiRvhh+QpuueuPrPxlla3zdGjXlr/dfw+TJ06wdR5TzF+0mFvvvpd1GzbaOk/Xzp15+M/3MXbkiMP+vexgGbt37TBWKRCguKSEi6+5gU1bt5kQdz9mPIuRznXA4wbkrEdVXQ31bLTOqM22btR/NTAB+KaxD/qq0Leh3LO6Edce1G74FUL7KOAhzNRc/gaYRmjfaygwEXjMnwElpaq2yvgxgU8C8Hq9PP7Mc1x5w83syTZ75lwX+w8U8M77H7Bl2zYmjRuDx4/guEBSWVnFw//8F9ffdgf7cvNsny8vP583Z7/LnpwcJo4bg8ulXmdutxtwcLDUXP2dGI+HEUMGM/fzLykr1z5SHoHqhFdnYJbwK9+jNp+dNOWkASk0cBYeAriA94AuBmT9A+X+bxR/gqhiUb+QPlZWdAR3AX81IMcOTNVcLkS5YDZrryiyiUEF6/Twd2DLFs35efG3OJ26vyrfKSwq4qJp1/L1/OBkGPXK6sGsl18gs1XLoMxfH/ty8zj3sitZuvzHoMw/aEA/3njxOTLSVP0yr9fL7p07KSsz62lf8N333HDHH01kG3yBigeQzUHDtEUFxOnG/HhRMWifaa/IHm5DNfvR5RfUJtunEpn+vDnLUOl8JiIq78NMZL1pkoAX0Vf+ADcjyt8XbsaC8gcVbb9z927Dy6mfvfv2ceJZ5wVN+QP8snoNR510KqvWrA3aGo5k+86dHHf62UFT/qCOY6acfDqbtmwFVNBgekaG8TSRUUOHcNYpJ5kQNQn9duLRwHbgegNyHKhjxqYGZJmmJ/Xk6ftJJargj8/1sa38fdwJ/MXCuCP5CRXw5Y+J3h6Vl98aVZK39nKhdtyFQAGq4MYaYBP+Fd15AVXvX5e5qPQLse4bphXqfC7RqoDP35/NwP79zK2oHgoKC5l6xrn8vHq17XP5QnpaMz56ZxadO3UM6jr2ZOdw7GlnsnV7aGT4ZrZqycf/fYs2maqpaX5eLvvz9xudo7y8nPOnX8fGzVt0RWWjCqWZTVuITN4FTjYg59+oTo2+4kIdQWShChQ1AZJr/reK33ROIarT3hpUrxdfiUFV6Bvgx5j6uBc/29RbMQBMpmg8BNxez8+SUGfDk1GGQhb+1+EvQ/1CVgKf1lz1HdpOxUzfglzUMUngtqbhy3Oo7lSWWfzFJ3TrYiJBpX7Kyso46ZwL+O6HZbbO4y8d27fj43ff/tXtHWgKCgs57vSzQ8obAZDVvRtz33mTlORkvF4vO3aYzQoAWL9pMxdefT3lVyQXRAAAIABJREFU+vEA92Fm9xfpNEdtGpsbkHUaqrR7XWSgdM7RqCPcLNTxtz8UAqtRR+afoo6U62su8WeOaNBjke+BkfhZZdaqh8xkisY4YEHNf6cA5wOno27GdIk0L2rdc4CX+K1VZxrwM2DiYPVsYJYBOZFOL9TZv+XMkiZJSWxc8QNut70dgG++84+88vp/bJ3DKmNGDOe/r7/6awBcILni+puY/X5o9vo65qiJvP7CszgcDg6WlrB7l3l7/I3Z7/Lok9oZWwWoHaYEBDbOKdSvuP1hL2qTVluauTVwKXASaiduOqioHKXjZqMq4h6o+fdhqHLFbk35pcBA1GbXL6y+NXJRX9zjLI6vxYkyAFYC96DOaE5CNXex443mQLmdx6POlYagUkPuxEzN5VmINe8rL2Hx7L+WU6Yex4nHmaiXUT9z5n7MfQ8+ZOscOmzbsYMYTwwjhzVaPsEoL/37df75dOj2tNqwaTNpzZoxqH8/3B4P5WXlVJhp8/srvbN6sPynn9m1R6vOQSzqPRiqwWmhxBqUsaR75peI2sQWAo8AT6FiMjKxp7qoC+iI0pfXo4599qPizUx4NG7DYsdAnZt1oNwbR2nIiCR2o5on2Z//FP4MR7Mwh9vt4ttP5trq/i8sKmLYxMkBSfXTIcbj4dtP/0eXTrrZUr6Rs3cvQydMpsBwxT3TJCUmsuTLT2nVsgUVFRXs3L7daK8AgC3btnP25dN0OweWopTCTjOrimhSUEcBJnrURAJfoXSwpdKjOq4OL6pwS76GjEjickT5+4q2l+SS8861/ez/r488FvLKH1TVvTvuN1E63Tfu+tNfQ175AxQVF3P3n1W2scfjITnZfPXoDu3act4Zp+qKiQfuNrCcaOAASu9IgLXywl+CReUPZtwdFwAzDcgJZ57DTL+EaGAkv8V8WKJpairff/05zZraVwUwOyeH/qMnGM8jt5O577xpe3nkdRs2MvLoY4213rUbh8PBNx99QK+sHlRXV7N96zaqq4109/uVg2VlnHHJFezao9XttwKVDrbBzKoinidQpeWjmUtRx+aWMRHs8G/MBGaEK5tQ5X4F39DuiHjX/91kq/IHePzZ540rf6fbQ0JaaxKbt8Pl8TewuHH+8a+njcs8kkefeMq48ne6Y0jMaEtiRlucbrNxv16vl8eeUoF6TqeT5NRko/IB4mJjuWm6tv3vAe4wsJxo4XZUX4Vo5QM0lT+YC3hIR53LhFZ5MvupRqUqzgv2QsKEvqha15a/d1nduzFv7ge2Rv6XlZXRY/AI1aNeE098E7ofdxXtR59GevehOBy/2dz5W35i28J3WfPhU5Tma+0eAbXbXTb/K9q3baMtqy7y8vfTc8gIyg0E08U2aUb346fRfuSppHUZCI7fvhK5G5ap5/K/pykr0A+O97jd/PzdAjLS0vBWe9m+bStVVWa9AADX3/FHFizRahhUhgqANts9KXIZhIolCs3a2PaxD5XFoP09MfUWLUEVdDnHkLxwweeaywIAD6MZwfvyU0/QoZ298T8ffvwpb737nracThPO4+gH/ke7kaeQmN4Gh+Nwuyc+tQUt+4yj+3HT8FZVkrNav2FZs6apjBo2VFtOXbz21tt88sWX2nJ6HD+dSfe+T5uhx5OQlnmY8gdIaNaKVv0m0v24K6koLWLfuu+15quurqZ1q1YMHtC/5nfgpdRgn4Baunftwuw5H+ocTrtRkemyofCN3ajGbWOCvZAAcyEq718bk/mOczDgkggjfkECd/yhDapGgmWOOWoio4bbo9wOZc5HH2vLGHjxXxl722vEpTae5eOJT2LwZQ8x7vY3cLr1NjMfzP1Ea3zDsjWfi8PBiOueYfi1TxGT1HhF1pjEVIZf/S9G3vD8YZ4TK3xwyO80OTkVl8t8/4hO7dsxeeJ4XTHT8b/wTDRzP8qrGC28jqonYATTfwU34l8ZxHClAmWF+VxzWeAaNF11t95wnaGl1I/X62WBZt/3niffQN+z/D/O7TjubIZe6VdTxN/xy5o1tnTiKysr43vNWv8DLniA7sf5f1be7ZjLGXDhn7TmXrrsR0pK1K7f4XTYkhEAcMUF5+k2p2qJpqEcZZSj3sXhE61rnR2oFsnGMG0AFBAd0fAPAaFVFza0iUWzx8LRE8YzoK+JRpQNs37jJvbu22d5fErbHgy+/BHL43uccA1thlivr+X1elm8dKnl8fWxdPkKraDIjKwR9DvbesXTvmfdQYteoy2PL6+oYOmPvxkwTVJSfnckY4IO7dpyzKQJumJuNLGWKOInzPSnCXWmYzjt3o4+qqfZIDPUOA6NBjZRyBmoGtuWufna6YaW0jBr16/XGj/gwj/hdOlV9hx06d9+dy7uD2vW6d1DXeg+l0GXPKh1Tzgc6rlocOhzcblcJDXxt7WIb1x54fm6pZn7o6qVCr4Rh35V2nDgDNMCTRsAf0CzuUuYMAB4FXsMqEhkms7gCWNHM2zwIFNraZD1G613cI5JTKXdcP1WsU079FGR8RbZsHGT9hp+J3OT9eeS1LIjLfuM015D856jSG7d1fL4I59LSqo9xwBtW2dy7FETdcVcbWItUYADeAUzzelCnQupv3meJXSbEBzKVALghvG4HfRok0D75nG0ahZLE7cDR1k1haVV5BZXsmlfGWuzSykpt71QyWmo/gX32T1RmJMFjNIRcOv1gav3kbN3r+WxmQOP1g7iq6XNkOPJXf+DpbHZOdbvoV6ZGs9F50ijLlmrdv7T0tgjn4vHE0N8fLwtGQGXnns2//v0c53Swyegyt4eaOyDUc6dwFl2TxIf46Rb6wQ6towjIyWGRKC6rJri8ipyCitZl13Kpn1lVFTZXqDwr6jGdf8zIcyUAdAC1djAlh1xVtsETh2VwbGD0xjQKYm4mCOmKavCsa8CqtXDr/bCih3FfLm2gPd+zGfhpkIMlwCv5W5UP4SFtkiPDC7QGTygbx/bq9sdSlFxseWxTVqaq8XfpGVHy2OLSqzfQ70yizSeSwvr93IkSRqy6nouTZKTbTEA2rdtw9CBA1hivYV0HKor6ovmVhVxDMXGDdjIrBROGp7OhH6p9O+UhMt5xBHWgQocBb/1gCirrGbx5iK+XFPA28vyWLPH/PcKpWNfRNVU0a5TbsoAeB4zXY1+xemAqcPSue6E1kzo27Th48NYF94MB4695VDtxemAAW0TGdA2kVuOasXGvQd55pscnp2fQ1GZ0QIgLlQZ5P7U3+85mnGi2jtb5tILzjW0FN8oPWg9sSOmSeOpbb4Sm5xueWxttLtJDmo9l2bG1hGXYva5JCQm4nK5bCkMdMZJU3UMAIDzEAOgPhJRVWhNerFJjHNxxTGtmHZca7pmxjf84RSPUlT7VWGsWLeTcV2TGdc1mftPaMOSzUU8/tUe3vohj6pqozvQFqjy8yfrCjKxY78A5a4yxuSBzVj93DDevbs3E/s1ovxriXFCs5g6a8x1zojj4dPasfkv/blxYkvcR1pyenQGHjQpMIIYj0bXrtSUFE49Yaq51fhAfFyc5bEmqtbVcvCAdZd7QkIjLy4LxOk8l8LQfS4Oh8O2YMCxI4bTIsO6wYJqlS5d7+rmz6iWvkZwuxxcf2IbNr00nEcv79K48q/B28SNN6luG2RYxyRev7QLq+7ty0n9zG0OajgJzc0V6BsASYBeaO4hZKR4mHlLFh890Jcurfx/iXnjndC0/lriaYlu/nFGe5be2ZsBbY0G8U8DepkUGCFo5TOfc8apxMebV2YNkZRo/XtRuMdc8F2RhqykxCRj6/hVZpL151K029xzKdSQVd9zaZJsjwHgcrk45Xit+Acn0Vdd1Rd6oOqKGKFfxySWPDaIx67sQnqyhRieph688fVnfXRtHse707ox5+rutLQiv37+hmY2mq4BcDuQqSkDgDG9UvjpqaGcN6GFlhxvogtvQsNeob6tE1hwa0+mj9Wb6xDcwKOmhEUIbjRcVA6Hg0vOC/y7r0Vz6ydZu374lKoKM/VIti/50PLYVi2MnsYB0FLjuWxf8gGmgnB2fGc99qm+5+LxxBAba0/xvVOOPxa3W8tLrb3Li0AexVD9/yuOyWThowPp30nTaG7mAVfDnuWpfVJZdlcfJnY31pCqNXCrjgAdA6AlcIvO5LVcOKkln/6lHxkphqyjpu5GfxlxHidPntOBR09vr5WefAhTgKOMSIoMxqKR+z925Ai6dDIXVOcrXbtYn7OitJCtC/QbY+ZuWEbeJutV9+x4bl07W5dZvG8Hu378QnsNe1Z+reVl6dLAPSQmmfeaAKSnNWP8qJE6IvrUXIJiAgZy/h0O+PslnXnm2m6/Dyq3gtOhjqAboWWyh4+u68EFw7SOhg7lVjTi73Tu/FpA2z972ZRWvHRjD2LcBhMIfPxlANw0qSXPn9/JlBFwmxEpkcHpWoNPPtHUOvyiR9cuWuOXz/wj1ZXlWjKWvqj3NequeQ92yFz28h14vdZTc73eapa+pJcC3dA92GUAAJww5WhdEYENhAlttHa8oJT/U1d34/9OMxte4Y1z1hsPcCgel4NXLurMVWOMeOoS0DgOsap1E9Es7gJwxpjmPH1NN1PK9zC8cc4Gz2UO5dKRGfz1ZCNfhqPR7HYXITjQCAyN8Xg4Xv+laYnOHTvSPMN60cLC3RtZ+Lj1atg/v/MwuzV2y06n05a0yYH9+2kFAu5bv5TlM/9oefzymfewb631Hg2xMTEMGdC/3p+73W6t+2uIoYMGkJiQoCPiWFNrCXN6AcfoCvnTBR258lgjJ9e/J7Vx7zMoI+RfZ3fgtAFGMmSuRhkCfmPVALgQSLM4FoA+HRJ56cbuv8+tNEmK72dvt0/O5LyhRtwyN5kQEub0QXX/s8S40aNITbGnSltjOBwOxozUKyq24bNXWPbKnX6fe6//5EV+eNn/JkKH0qdnFmnNjEccExsTw7BB1qsTAqyc9SA/z/a/T8Kq92awctZfteYeOmhgowo+QSPQsSFiPB7GjBimI2IEkGpoOeHMjdSZ5+U7Z41tzh1ntje0nDpwOKCJb3rH5XQw85LO9GmtZRwCpGOx3opVA0CruEtinIs3/9CLhFitetmN43HiTfB9jqfP7UC35tq7gFOxaI1FEFpW+knHB3fDc+Jx2psMVs56kC8eOJminMabY5YV5LLw8atYMONyvNV6+egnHmffs9N+Ll4vS1+4lW8eOo/S/D2Nfrw0P5v5D1/Ad8/epB1E6MtzSdDbpTfIpLFaLevdKO9iNBOHZi38Lq3iefa67oaWUz/eJN+8AADxHiezLu9CYqz2EbilYFEr1lR7YLPFsYAKvjB9/lIvFdU49vgemf3N+kImPLZK931zJvC2loTw5mtUDrPfxHg8rPlhcdA8AKA6x/UcMoK8/P3aslwxcXSedCEdRp9G856jcMepXWZVRRm565eybeF7rPv4BcqL9edyOp38uOBr2mTa497cf+AAWUNGanUFrMUdl0jXyZfSfuQpZGQNxxWjwomqyg+yd81iti16j/WfvEhFqX59rRiPh1XfL6JZ08Y30Tu2baOiokJ7ziMpKytj0iln6hSaehm41OCSwo1Tgdk6Aube35cpg8wVpWoIR1EV5PseC/S3T3Zx53vbdab0Ah2Bxncch2AlP+VsNJR/18x4rj+ptdXh/uNxqiJBPvYGGNu1CWcOSmPWUq3iJWcTvQZAIsplaYnxY0YHVfmDUhjnn3Umjz/znLasqvKDrPvoOdZ9pGTFJKbidLk5WGC95XB9TJk0wTblD6ow02knTuWNt7XewwBUHixm9ZwnWD3nCQBia6oFlhXmacs+klNOON4n5Q/KC3DggPny+7GxsYwaNoTP5823KuIY1HvX9mLzIYpWvf/TR2cETPkDeBNcOPbj82/r5kmteHXRXtZmWzYQHSgPiV9nbFb8Dlo+xvvP72g24t8XEv07arj3+NZohiYcjeESlWHESMC3FIw6mKLfS90I11xxqS1BYeXF+21R/gD/d52x2ij1cvO1V+u2uq2TssI8W5S/0+nkhum+B2XGJ9jX5XvimNE6w1uhSo5HIy5UmrUlnA6499wO5lbj06TgjfP97yTG7eCu47Q3xn7rZn81cSxgOZqlXUYcp43SagtvCW+Cyy+fRY+W8brRmU1QLYOjkfE6g8eN1mocaIyM9HSuuEgr1CWgHDf5KAb062v7PJ06tOesU7VLkAeMM085iR7dfG8hHBcfh8OOtCRg9PChukWBorXOSF9UZ0RLnDg8nZ7t7DPs6sPh58bz7MFpdEzXKkg1HD83X/4aAENRwRiWmHZcJm4fgyOM4nSoYwA/uGy0do7mWF0BYcp4qwPbt21Dpw42Ruj6yR9uup62rQN4XGWRuLg4/nLP3QGb74G77vDZpR5MmiQlce8f/EsbdzgctlUFTExIoFcPrSC0aOh5Xxda79LLp7QytQ6/8MY78SfH3e10cPEIrQ1yAjDEnwH+GgCWz3ZBncMEC6+fUZaTuieTmWLZkw3KFR5txOPnF/BQQmX3X0t8fDwP/ele23aEprj7/26mfVvLWZd+06xpKg/cpZeuGAj+cs9dlko7x9nYf2LoQC0vvlYuYRhjWe+0SI3haDO59hZw+K13zh+arlsXx69n5a8BYNl87d0+kc4WGvyYwuFnyqHL6WBKT61gNPvzTUKPAWjU6B4fYgYAwJRJE5l22cXBXka9TJ44gemXXxLwec894zTOPu2UgM/rK6eccDznn2Utaywuzr73VEPFiHygNRr1NcKYHlYHThnULDhe5xocsf7N3TE9lh4ttL5/fukdfw0A3w/TjmCC+XaIfuH1+P8lmNhDq2lDZ8y0Ww4nLO/+nU4nY0ZqOZhs4747bmecXj13W+jetQvPzHgkaB6KR/78QEDiDvylf5/ePP536x264+Li9KrNNECfnlnExGh5FqPNC+BAvUstMaFvkI+qPP6rgEl6escvHR0wA6Bfx8AHYRyGy4G/of1D2mvVB48j+np5D7U6sGf37rZUsDOBx+3m388/Tf8+vYO9lF9p1bIFb736YlBTJhMS4nnrlRfp2tny+9k4Hdu3Y9YrL5CYaL2oj8PpIMamOIAYj4csvb4K0WYAtEK1nbfE4K72tHr2Fa8FA2Cwnt6xzQBwApb75/btaF+zDZ/x0xXUKSMWj577qKXO4DDEchH6/n1DR7nWRVJiIv99/VVb6uz7S/u2bZjz5ushEaCY1qwpH8x6jT49s4K9FLp37cKcN18nI12/pLfmLr1B+vTSelbRFgho+R3qcjqCeuysFuG//ujWQiv9uAV+5Lz5YwAk+CP4SFqn2WNR+4PXz/Rlt9NB26ZaL4Lgmp+BJRGwvLUJpd11faSmpDD73y8zdcrkoK1hyMABfPr+bDp37BC0NRxJ84wM5sx6PajHJGNHjuCj2bNonWkm4tsuDwBA3549dYYPIrpqjFjeObZOiyXWwg7cKA789jx31NOVLvwoRe/P09HawqckhsB31sJZaUq81rpDwO0RMHqhEfMQDgYAqMyAV599kr/eezcxHsvxjn7jcDi46pKL+OCtN8hI0+rDZQspycn89/VXufcPt9pSKKg+HA4HN0y/itmvvWL0OCQ21p7OgAC99VIBE4iuAGPL79BkP/rA2IqfeifFxy62DeDzM/PXA2AJj9tBvJ95+LZgwX+RpNekIciBDwGlj9WBHrebXlmWA30DjsPhYNqlF/Ptp/8LSOpil06d+O9rr/DgfX8MqNHhL7XK+IsP3mWwXrS7T/Tt1ZOP//uWLUZHTGyMbYGALZpnkNxEyzkYTQaA5Xdooh+V+GzF4V/15jiPE7deKVqfn5k/2s1yB5DKKi/Vmt11jGBhCWWVWuv2rQFBZGB5C9+jW1fbiq/YSa1ifunJx+mpt6urk3Zt2vDoXx5gwWdzQ65GQkPUKuYnH32ILp06GZffuWMH/vXI3/nig3cZMtCegpsOhwOPjXEAXTt31BkeTQaA5faY5ZUh8vr1U4VUVnup0tOXPutqf/zblttyeb1QVFpFckKQjwEsPNOCg1rtWe3zI4Yell9K/cLE/V8XDoeDk6cex0nHH8vnX8/j9bfe4ZMvvrLcMc/lcjF+zCjOPvUUTjz+WDx6pWODhtPp5JzTT+WsU09m7mef85+3Z/P5V/OoqKy0JM/jdjNp/FjOOf1Ujpt8dECOGdyeGMrLfe/o5g/dOnfmhx9XWh5uci0hjuUovsISvdbaxvBT7xSVVet2oy309YP+GgBeLAYC7s4rD7oB4Kj2/6nuPqD1AngMWAUs0RESJlgOAMzqFv7vM4fDwdETxnP0hPEcKChg/qLFzF+wiKU/rmDjps0UFNb9NxkfH0/XTh3p27sXY0eNYNzoUSF5xm8Vp9PJ1CmTmTplMnn5+5m/cBHfLFzE8hUr2bBpM0XFxXWOS0xMoGunTvTv24exI0cwdtTIgJcfjolxU1L38rTpolfyOlo8AAOBJ6wO3pNfjtdrKfTLLH5qc02d48WPzbo/GrmqRrClw6t1O0vo3sZ6bq4Rqvz7RewpqOBAqZYVmQJ8gupkFclGgBvoYHVwxxCq/2+ClOTkX5VeLXv37aOgoJDC4mK8Xi9JiQkkJSbRskXzkC81bIpmTVM56fhjOen435qW7cnOoai4iKLiErxeL02SEn99LsHG7bHvCKB9O60SIeFvMTfOQOBzwHJxkKKDVezMLaONXoMdParx2wOg0RIYoAA/jp793ZJvAvr5OQaAn7cWc8Iw/fxcy1R7/TYAftpZYmLmaDACOqBRAjiUGgDZRUZ6upH89EhDKfrgK/u6sDPgsp1eDYc0IB2wp6908BkEfIaG8q/l5y3FwTUAKvyPQ9DUO5v8+bC/Ie5r/fz8r3y1cr/VoWawEMw3b12BqdlrjYBIreJlWYM7nc6ANrIRBF+x0wOQ1qwpCQlaRWoi1QtgTPkDfP1TcPWOw4IBoKl3/NLRATMAFq0uoKQseEEZVn4Rn60+YHIJkWwEWK7WldmyZVhmAAiRj8vlxOmwL31Z0wugVU84RDGq/AG++DHflChLeCv823gWl1WzcJPleHuw2QD42c/P/0pJWRVzFudaHa6Nt8y/X8T6nIMs3WY8AihSjQDLBkA0uP+F8MVlYxaGZpyD5bLsIYpx5Q+wbGMha3YYOcq1hKPMv43nuyvyOGhhs3oIfulofw2AeVhKplO8+sUeq0M18eLwM5jv34v36aZi1EckGgGWX0aRFgAoRBZut33phs31YkIiyQCwRfnXMjNYeqfK63cMwL8Xa4V1eIFv/BngrwGQjUprs8Rny/NYttHnFEVzlFWrIEAfKS6r5tn5OTYu6FcjIFIae1guwB4K0d6CUB92egCap2ule0aKATAA9S60rRXo8x/vplAvm8sSDj9ryKzYUcLna7SOnX8C/FJcVg64vrQwBlDpkH9/e5vV4dYp9s8Ke3JeNnuLKmxazK+kAB8TGZ4Ayy+jtGbNTK5DEIxiqwcgI0NneCQYAIOAL1BZDbaRV1jBUx/utHOKuin2zwD489ydul7nr/wdYMUAmGNhzK/MXrCXb34OYGSmF7/c/3sKKnjw44B9WSLlOMDyyyhdDAAhhHG57PMApDfT2vSGu+vMVrf/kfzt7W3syrNczd5/KqqV59lHvlpXwH9/zNOd9X1/B1j1AOywMA5QXoBrn1pPmV6gg884iir9cv/f8s5W3eI//hIJRoDlIMC0NDEAhNDF6bIvCyAlOVlneDh7AAKq/AEKSiq5+fmNgZoOinzXIQcrqrnuzS26u/9tqBg9v7Dy7a4GXrMw7ld+2VbM/70YgF+GFyj0vfb4y4v28p/vg5KpEM5GgBtVlMQSkVT2Vog8nM6QNQAy0Gi/HUQGAJ8SQOVfy9vzc3j5s932T1TlxeGH+//md7ayanep7qyvYaH5nNUv0KtoZAMAPPXhTl7/KltHRKM4iip9rv63bFsx18/aYut6GqHWCBgazEVYIAWNF1Gg67sLgj84nfbFAKTotQR2YfPZuQ3UnvkHze13/TMb+GGDzYHohZU+1/+fuXgfz3yjHXDuBf5tZaDVA641qFiAkyyOB+Dyf66leaqHowfY8H2o8kKBb7v/TfvKmPrkWor9zNm0gRSUdTwZ+C7Ia/EVyx0PHQ4HhYVFlJRq1b4WBNuorChnz277do0ul4uqKstHjknAXoPLsZOAu/3roqSsiqn3/cQ3Dw2ga6ZWJca6qajGUejb7/OTVQe44jW/KvfWx/sonew3Ol1IhmBASSXGuXjrD704ZrBhIyC3HIcP7SDX7Cnl2CfWsjWQASKNc4DwMQI6AxuCvQhBiEJ6AquDvQgfGEyQ3P710TY9lrkP9KVnu0SDUr04csp9Cv6b+/N+znx+PSXlRjadQ4ClVgbqnCF9j/qlalF8sIqT//wTL31qzsp2lFT5pPy/WV/ImEdWhZryh988AeFwHCB1fAUhOITD317IKX+A7fvKGHf7j8wzmJHmKKzySfk//20OJz+9zpTy/xiLyh/0g0huA3yPsquHikovVzy+lkseW0Oxn8UTfi+sGvIbzuGv9sJfP97FUTNWk1usvXwAxo4aRUyM0eYh4WIEWD4CEARBi1D/2zOu/D0eD+PGjDEiK6+wgqPvXMFfZ22lyo9MsTopq4b9DeuSorIqLn51I1e9vplK3fkUlcDtOgJ0I1yyUYEoRirardhcxMwvsklP8dCvY5L/Aqq9OPaVNxj4t3x7Mac/u56Zi/f5kx3YIB3bt+e6adPo1rUrS5ct0znTO5I44ExUgYcgVLLwiY7AZcFehCBEIa8BW4O9iHoYgDrzN3a263a7uebKKzl64kTWrl9Pbp523jxer+pU++F3ufTtmGStdXCVF8fe8gYD/z5Ymc+JT63jm/VGAxBnYDH4rxYTIa4LgYsBrZDWWgpLq3hv0T6+/DGfzGaxdPE1UMML7CvHUV73L2HFjhJumLWFm97voTFmAAAgAElEQVTeyvb8chNLBVQQz3XTppGakkJas2Z06tiRpcuXmzYCzkDVXwhFI6Az6vcvCEJg+Q8QwOR2nxkMfI5B5R/j8XDd9On06dULh8NB+3bt+HbRIqqrzQRu78kv55XPdvPz1mK6tk6gZVMfvbm1m8562s1//Mt+Lpm5iYc+3W26vswu4HRAS5npBAEeynHAhwbl/UqPNgmcP7EFZ4xpTpdW9RgDtcr/iOOD7IIK3luRz2tL9rFwU6EtzX1OOeEEph577GH/tnrtWh5/+mnKy80ZGoRuYOAxwEfBXoQgRCEnoVmZ1QaMu/1jPB6unTaNXllZh/373E8+Yfb7fhe/axSHA0b0SOH8iS04aXh6/caAFxx7y3537r9h70He+iGP15bsY80e7fz+uqgGpmLgvWtSYf8dFRNgG+0y4hjTO4We7RLplhlPWoqHpBgX7sIKigoq2V9axbrsUtbnHGTBxkJ+2V1qV0c/ALp27sxtN91UZ7GQKDICTgLeC/YiBCEKORN4O9iLOITBKLe/seIe9Sl/AK/Xy8MzZrB2/XpT09VJr3aJjOyZQvc28XTLTCAlyU2TWCfVeRUUFlaQW1TJ2uyDrNlTyrz1BWzLM/rOr4u/AXeYEGTSAPAAXwMjDcoMWZqmpvLH228nJSWl3s9EiRFwJjAr2IsQhCjkAjSrshokoMq/loKCAh7429/I3x/A/jLB5VtgAgaC78FsKckK4DTASGWDUCbG4+GaK69sUPkDZHXvzvXTp0d6doDxYx9BEHwiVP72gqL8AZKTk7n2qquI8XhMTR3KbETFg5lJXcN8Lek9qN3pHsNyQwan08kVl1xCxw4dfPp8Vvfu3HTttcTGGk3ZrTUCwrF3gCAIkcMAVAlzY8rf7XYz/YorGlX+tXSoycJyu+3r3BgC7EXF2hnVrXY0k9gIHI9yVUcUTqeTyy68kIH9+/s1rluXLlw3bZodnoCPCR1PgCAI0cUQVHaS0Wj/G6ZPp2/v3n6N65mVxWUXXmhr86YgcgAVbL3OtGC7ntYyYDShmbZmCbfbzZWXXMLwodb0rU2egFTEEyAIQuAZiNqAGN/59/Rx538kQwcP5porr8QTWccBe1Bn/svsEG6nufQzMAawN0QzAMTHxXH99OkMGTRIS454AgRBiACGYLirn9Wd/5H079uX66dPJz7ehkY/gWc9Kqh+uV0T2NfrUrEfeBPojyoYE3a0aN6c/7vhBjp17GhEXkZ6Op3tKxYUjIqBvVEFKQRBCCzvAisDPOcQlNfRaMDfddOmWd75H0lGejoD+/dn1Zo1FBUXG5EZBD5F5frb+j632wAAKAFeR0UujsNer4NRhg4axHXTp9Osqdk+FhFmBIgBIAjBIdAGQMgr/1qSkpIYOWwYuXl57Ny1y6hsm6kC7gWmAbZbL4FOIxkDPA90D/C8fpGQkMC5Z57JCIvn/b5iU52A/cAUAlcn4CyUl8dv+vXqyUtPPGZ4OYJglp/WbzFpqB/GQzNmsHad5diuC9GsBe8HYaP8j2TJ99/z+ltvURz63oC1wBXA/EBNGOjd+HygD3AjUBTguX1i8MCB/OWee2xX/iCBgYIghAXGA/5qa/vbrfwBhg0ZwoP33cdREybgcIRK6YTDKAXuB/oRQOUPwXHHVwD/RBkCL9f8d0iQlJTEKSecQHJycsDmlMBAQRBCGFsC/q6bNo2ePXqYEtkoiYmJTBo/niZNjPSsM0UF8ArQE7gPKAv0AoJ5Hr8FuBToCjwFHAziWgAoKiri4Rkz2JOdHdB5baoYmIoq0CFGgCAIVghbt/+R5Ozdy0OPPUZBQUFA562HMuBpoBtwCUoXBoVQCMjbClwDtAQuQrWRtLGFT8PsP3CAvz/2GLt27w7ovHIcIAhCCBHWbv9D2Zeby6OPPx4K/QJ+QB1/twWuJoiKv5ZQqp14AJhZc3UCjgUmAuMx6H7yhYKCAh59/HFuvfFGWrZoEbB5a48DDAcG1h4HNBQY6EJZo/1RHpmMmqsFUOsz86ICDL3AbmBbzdXF1EIFQfCLAajsn7ZAe9QmyolS2rWH3YVANqqU7F5UbvkKVFW5+mrK27Pznz49oG5/+G3nHyTlnw/MQ1VLnIuqkhtShGRExBE4gV5AFip7oAfQDkgCkjn8y56MwdTG1JSUgBsBYGt2wGTge1TnxjGo2tJjUal8Aa+cIVkAQjgQwlkAOpQCv6AU1Eeo4LNyRPk3RjWHl7nPRwW0F6G82WtQ0fxrUMXw7PniGCIcDAB/OAN4A4OejQg0Ar4EjkIZS0FFDAAhHIhQA+BIClHHrxMQ5V8fVcDFhE4LZm1CIQbAJG8DZ2MwsyACYwJOJQSUvyAIIUUT4BQiQPnbdOZfhQrYixjlD5FnAADMBs7BoBFQUFDAw//8Z8CNgG5dunDjNdeYNgIEQRBsJZjK/+EZM9iXm2tSbK3yD1TRpYARiQYAiBEgCIIQFET5hw+RagCAGAGCIAgBRZR/eBHJBgCIESAIghAQRPmHH5FuAIAYAYIgCLYiyj88iQYDAMQIEARBsAVR/uFLtBgAoIyA86i/+pXf1FYMDHTvgDatW9OiefOAzikIglAXLVu0oEO7dgGdM2fvXv7+j3/YofwvJkqUP0SXAQCqToBRT0Cg6wQcOHCAhx97jG3btwdkPkEQhIbYtmMHDz76KHn5+QGZrzbP3/B8EZnn3xjRZgAAvAOcSxgeB+Tv38/f/vEPtu3YYes8giAI/rBr924efPRR0zvy35Gblyduf4NEowEAygg4nzA6DjhQUMDDM2aQs3evLfIFQRB0yMvL4x9PPMGBAwca/7AFcvbu5W/mjYyoc/sfSrQaAABvESbHAeXl5TzxzDNk5+QYlSsIgmCS7JwcHn3iCUpLS43Kzc3Ls8vtfylR5vY/lFBqBxwM3kEZQa9j6FmYbiVcXV3NMy++yOYtW/QX1whul4N+bRPIah5P1xZxtErxkBLvJjHGSXmVl9LyavYUVLAtr4z1OQdZsrmI3GJjThRBEPwkrYmHod2T6ZoZT7vmsbRK9uAurSbGq/p27y2sILuwgo05B1mxo4RfdpdSUeW1dU07d+3iuZdf5rpp03A69feYOXv38vCMGXYo/4uJYuUPYgCA8gSAQSNg/4EDPDxjhhEjYM7cuaz46ScTy6qT9GQPp4/O4MRh6YzsmUJyYSWUVfs8/ql52Vz75hbb1icIQt3MuLIL153Y5vc/8AIHKnAU/t44L62o5qu1Bcz9eT//XZ7HngJjDtDDWPnzz7z/4YeccuKJWnJE+duLGACKkDQCVq1Zw4cffWRiOb9jdM8Ubj61LccPScPtOqQrdB0vjYZolhh5X6Fde7KZ8/EnfLfsR3L27qW4pMSYbIfDSbOmqbRr3Zrxo0dyzKQJxHg8xuSHGwWFRcz5+BMWfvc9u7Nz2G/4/Dg1JYWWzZszatgQTjxmMslNmhiVH0yaJtXzvXEAqR7wOCG/XBkENcR7nBzXO5Xjeqfy2Bnt+WBlPk9/k80XawqMr+9/n3xC1y5d6N2zp6XxovztJ/Le3tYJKSOgpKSEF159Fa/XrLtuWPdkHr6sM6N6phiVGwlUe7089+q/eeWNWVRU2ne0caCggM1btzFv4SKen/kaD9xxGwP69LZtvlDlf599wSP/eoqCwiLb5igoLGLbjp18t2w5L772BrdcPY2pU462bb5QwpvowuGMgdwKqOM94nE5OHVAM04d0Ixv1hdy95ztfLuh0Nz8Xi8vzpzJn/74R5ISE/0aK8o/MERzEGBdvIXhYkG1RoC/2QH/eftto9G0zZp4eOXmHix4ZKAo/zrwer3c8+BDPD/zdVuV/5Hs2pPN9Ftu59vF3wVszlDg32+9wz0PPmSr8j+SgsIi7v37I7zyn7ca/3CE4I13QboH5Raon7Fdm/DNLT15+aLORr16BQUFvPn2236NEeUfOMQA+D1BNwJWrV7NwiVLTE3PxH5NWf7EYC6Y2BJHw++BqOWN2e/y0edfBmXuispK7vzzg+yJkiyP75f/yOPPvhC0+Z984SWW/LA8aPMHGm9cjRHgw9/+RcPT+eWevhzVw9wmYdF33/HzqlU+fVaUf2ARA6BugmYEVFdX85933jE1LTee3IaP/9SXNunSO6A+CouKeH7m60FdQ3FJCc+8Eh2pyI898zzVho+2/KHa62XGM88Fbf5g4I13QdMYnz7bItnDR9d159ajWxnbMMyaPZvq6oaDi0X5Bx4xAOonKEbANwsWGKkj4HDAE9O68ujlXXA5ZdvfEPMWLKKwKHCu6Pr47Kt5HCwrC/YybGX9ps3/3959h9tR1fsff88+vZ/0RkIaSQgQeu+hiVQpglIUQVAvV1Gs2MArV/ldC3bvBTSKikBQJCCghBICIaEmEEjPSS8n5+T0fvb8/hgCAXKSs2etvdfsPZ/X88zjY8ha882evWe+sypLl69wHQbLVq5i6YqVrsPIKL8sD7+8f837eQmP2y4Ywy8uGWslCdi4aRNPP/tsn/9dD383lADsXkaTgJ6eHiuj/j0Pfv25SXzu7FHGdcXB62++5ToEADo6O1m+cpXrMNJq0eL+NQVnQpRiyZgdswP66XMnDuPOK8Zj4x3ikcceo7v7g9MO9fB3RwnAnmUsCXhu3jy2NzQY13/bVRO49syRxvXERd1288/clrr6zGyo4oqN77ctdRnavCZSPPAHFfZrPMAOVx09hFvPH2186obGRubOm/eeP9PD3y0lAP2T9iTA930enz3buN7Lpw/jxgvMf6xxUl6e2hSldKqoKHcdQlqlOh0snSrKc/uz7lOBB5WprT3xtdNH8qljhhif+l+zZ78ztVkPf/eUAPRfWpOAJcuWGa/1v9+YMv73+smWoouPiWPHug4BgITnMW7vzO6rnmnjx+7tOoR3TIhQLJnmV+RDXmrt+r+4dCxTR5QYnXdrbS2L33pLD/+IUAKQmrQlAQ898ohRPfl5Hr//0hSKC3VJU3Xy8cdYWbPc1MEHHsDA6mrXYaTVIdOi8W+srqri0IMOdB2GOztWC0xBSUGCu6+aQGG+2YCAhx99NF0P/6vQwz8l7u962SctScCyFWYjo284fy8OnZg7y5xm0qgRIzj79FOdxuB5Hp/55JVOY8iE/Px8rr7i467D4JrLP0ZBfrwXQvVL81IaEAhw8Ogyrj9puNF5l69cma6Hfzzm0VqkBCCcHVsJR2IrvAHl+XztotxuOk63r1z/OadNwld9/FIOmXaAs/Nn0kfPP5cTjzna2fmPPvwwLvnIec7OHykVqSdB3/rwKAb3czphBuzY0lcP/xCUAIQ3E8stAWF99aIxDKyI74YyNpSWlvCbH93GtKn7ZvS8Cc/j2k9czuc+9YmMntelhOfxg29/gw+dcnLGz33G9JP40fe+E4kunyjwS/NSHgtQXZLHV06PxCyjHW/+f3QdSLaKTBqXpe4DksA9OPosS4vyuOaMES5OnXMGDRzAXT//CbMe/zcPPPQwby5bbn0zph1Kios57qgjuOrjlzJ54oS0nCPKioqKuPWbX+es007lT/c/wMsLF9GTpj0Y8vPzOfTAA7js4gs59ojD03KOrOW9vWlQU2qf/XXHD+XWf26gqaM3TYHtkd78LVACYG4mQUuKtV0EU3HF9GF6+7cokUhw3plncN6ZZ9DS2sqW2m10dXVZPUdlRQVDhwyOfR80wDFHHMYxRxxGZ2cnm7fW0tbebrX+0pIShg8dQlGRlsLuU2kepJgAVBbnccWRg/nVM6ltcmaJ+vwt0R3IDmctAZednNo2w9J/5WVlkZq3nsuKiorYe/RersOIp4JEcHTvfq3+97v08EEuEgC9+VukjjB7ZpLhgYHDqgs5et/KTJ1ORHKUX5z6o+CY8RWM7ucGQ5bsePirz98SJQB2zQQuJ0NJwIcOG0hC+/uKiCGvOC/1Mh6ctq+9bYP3QAP+0kAJgH33kqGWgGMy9+MTkRzmF4Z7kThqfEaWU1azf5ooAUiPjLQEHD5JC/+IiAUJL+XpgABHjUv7PUhv/mmkBCB90toS4HkwaVRpOqoWkRjyQywjvs/QItLYC6k3/zRTApBeaRsYOLiygBKt+y8itoRY478oP8Gw9ExD1oC/DNATJP3S0h0wYoDmNYuIPV6ILgCAvezPBFCzf4YoAcgM690B2vVPRKxKhEsAivKt3ovU7J9BeopkjtXugALDLTlFRN4j5C2lIGTLwS6o2T/DlABklrXugJ7e9KxRLyIxFfI5nrSzX4aa/R1QApB5VroD6pq67UQjIgKEHc6/tdn4fUbN/o4oAXDDuCWgVgmAiNgU8k2+ttnoXqQ3f4eUALhzL3B12MKNrT1sabC7S52IxFiIbsW61h7qWo1aAD6L3vydUQLg1o5dBEN5c02rxVBEJM78EAnA4o1G2zf7BDuoiiNKANzqANaHLTx/WbPFUEQk1pKpJwDzVhvdgzYDLSYViBklAO6tCFvwyYXbbcYhIjHmdaeeADxj9hKy3KSwmFMC4N6rYQs+92YjTW0Z2XlYRHJdd2q9kc0dvcxZ3mRyxtdMCos5JQDuvRC2YEdXkgfnbbMZi4jEUXcy5dFIDy7cTltX6CFMAPNMCos5JQDuhU4AAGY8sdlWHCISU16IB/kfX6g1Pa3RvU/MKQFwbz2wLGzhZ15v4MXlGgwoIuH57aklAK9vaOPJpUbN/yuBGpMKxJwSgGiYZVL4x39bZysOEYkb38frSC0B+MFjG8OuG7SD0T1P7FACEA0PmRSeOXcrz7/VaCsWEYkRrz2Z0iqAr65r5b6X60xP+w/TCsScEoBoeA7YELaw78NX7lpJb4h5vCISb35rb7//btKHz9+7JsySATvbBMw1qkGsUAIQDb3A700qeGFJEz/9e+g1hUQkjnp8vI7+JwA/nb2J51YajzmagaVt0cVMvusA5B2/A27CICn77p9XM/2gag6ZUGEvKnlHfUMDT899npcXLmLF6ho2b9lKS6uWY3bJ8zyqKisZOXwYkyZO4IiDD+KEY46ipLjYdWjZoan/z+HX1rfxnYeMXzJ8DF92xB4lANGxGngYODdsBR1dSS66dTHzf3ooQ6oK7EUWcxs2beLXv/sDTzzzLD09enGJEt/3aWhspKGxkTeXLuPBRx6ltKSEC87+MFdf/jEqK5QM96nXx+vnQmJ1rT1c8NtltKe4WNAuPIpWAIwMdQFEy62mFazZ2sH5//U6ze39b9aTXWvv6OBHv/otF37iGh6b/ZQe/lmirb2dP93/AOde9knuvm8mScPh6jmrsTt4H9+Dls5ezvv1MmrqOm2c1fgeJ/YoAYiWBcATppW8sKSJ8255nbZOJQFhbd22jWu/+BXueeDvdOvBn5WaW1q4/bd3cMNN36G1rc11ONHSlcTrx+C/tq4k5/56Gc+vsrLWyJPA8zYqEjuUAETP1zDYIniHZ95o4LRvLmRLQ5eFkOJl+arVXP6Z63lzaej1mSRCnpu/gKs//yW2N2iqLAA+eNu79/jX6lp7+PAvl/D0MqMFf3Y6K9+wUZHYowQgel4hGCVr7IUlTRx74yu8XqOBav3V0NjIjd++hbp67bSYS5avWs2N37mFru49P/hyndfcA3tY+vf1DW0c8cM3mGNvldE/ErRwSoQoAYimbwJWXldWb+ngqC+9zO0Prldf6B509/TwpW/fwoZNm1yHImmw8I3F3PbzX7kOw63OJDT23aWV9OGnszdz5G2LWb3NSp8/QBN6+48kJQDRtBm4wVZlHV1JbrxzBdO//hovr9C+AX2Z+Y9ZLHxjseswJI0efORRXnw1prvQJn28ui76Gvn30ppWTvrJm9w4cw0d5qP9d/YlgsV/JGKUAETXDCwvl/ns4kaO+uLLXPnjt1i8Vt0CO2tra+d3f/6r6zAkA37xf3fhx601zPfxarug94P/7jc2tnPl71dy1G1vMNf+C8Is4C7blYodWgcg2q4FDgNG2aow6cOfn9rCX57ewvQDB/DpM0Zw5uGDKC/Os3WKrPSXB/5GfUOD6zAkAxYvXcYzz7/AScce7TqUDPGhrus9/f4tnb088noDdz63lSeXNplu7NOXTcCn01KzWKEEINq2AhcCTwNWlzbzfZj92nZmv7adksIEpxw0gBMPqObIoSUcNKyY8qK+E4KkD2vrO3lxTSv3m28K4pzv+zz02L9chyEZNOuxx7M+Abh/7lYK8j0On1TB3kOLyUt4H/xLPlDXTWtDN6+ua2P+6hbmLG/iiSVNtpv536+T4N61JZ0nETNKAKJvPvBZ0rh8ZntXkocX1PHwgncf5oPK8hkzsIhBZe9+RVq7etne1svqbZ109qT15pFRK1fXsGHTZtdhSAa98NIrdHV3U1iQvStm7vybLcxPMHZYMQMr8inb0ZrnQ31DF2u3dVLXmvG1LP4TmJfpk0pqlABkhxnAGOCWTJ2wrrXHxU3DidcWv+k6BMmwjs5O3lq2nAP3m+o6FCu6epIs2xCZxY6+B9zhOgjZMw0CzB7fA37gOohctHrNWtchiAOra9a4DiEX3Q5813UQ0j9KALLLTcD/uA4i19TV17sOQRyo265Bn5b9Evii6yCk/9QFkH2+BtQRtAbsYtSPpKqjM/yCJ9Xn3UTFyZ+yGI2kov4vX6N1wQOhyra1t1uOJtZ+jh7+WUcJQPbxgduAVcAfgBK34WQ/kznh+YP2omDoeIvRSCryqocblI7ZWgDp0UUw1e+PrgOR1KkLIHvdD5yOptmIiBtbgdPQwz9rKQHIbnOBA4AHXQciIrHyGHAwMMd1IBKeEoDsVwt8BPgEoIX+RSSd2gj2KfkwsNFxLGJICUDu+COwH3A3kDur9IhIFPjAn4ApwM/QAIqcoAQgt6wDrgSOAJ5xHIuI5Ib5wHHAFQT3GMkRSgBy08vAScApwEOoRUBEUpMkuHecChwFPO82HEkHJQC57UngPGASwQpdmjEgIruzheBeMYng3jHbbTiSTkoA4mElwSIdo4ATCfrwtP6tiEDQrP8zgnvDSIJ7xUqnEUlGaCGgeOklmLYzh2Ak71iC5r0j3z4mAkNSqK+TYObBYKtRikh/1APlQGEKZbYBywn69ecDLwA11iOTrKAEIN5q3j7+utOflQB7E+w+WEVwgykgSB6aCKYBNQCrgU3AR99XPlYmlnpMGaAVmV15oSj4UsbUFwlG5o8gSOYHEPx+qwmWCd/xm20iaPGrAbT+sbxDCYC8Xzuw5O1D9kCPfnEsCWx4+xBJicYAiIiIxJASABERkRhSAiAiIhJDSgBERERiSAmAiIhIDCkBEBERiSElACIiIjGkBEBERCSGlACIiIjEkBIAERGRGFICICIiEkNKAERERGJICYCIiEgMKQEQERGJISUAIiIiMaQEQEREJIaUAIiIiMSQEgAREZEYUgIgIiISQ0oAREREYkgJgIiISAwpARAREYkhJQAiIiIxpARAREQkhvJdByDiWsILnwfXLp1PxciJFqPpv/yiEipGTKBkwHAn5wfA92lcv5T2+k0kk70ZP31DzRuhyyYSeRYjEck+SgAk9kpLSkKXXfHvGaz49wx7waTK8xgy6QgOuOQbjDn6vIydtru9hcV/+zHLHr2DtroNGTuvTaUlxa5DEHFKCYDE3tAhg12HEJ7vU7t0Pk9+73wmnHIFx3zhDvIKitJ6ysZ1S5h98zk0bVyR1vOk27AhQ1yHIOKUEgCJvQnjxroOwYqVs+/GT/Zywlf+BJ6XlnO01W3g8W+cQlvdxrTUn0m5ct1FwtIgQIm9Qw+c5joEa1Y99RdWz7k3bfXP+8Vnc+LhX1lRwT4TxrsOQ8QpJQASeyOGDWXKPm4G8qXDwnu+n5Z661ctZN38WWmpO9NOPu4YEmlqJRHJFkoARICLzj3bdQjWNKxZTNOGZdbrXTvvQet1uvKRs850HYKIc0oARIDzzjyDcXuPcR2GNY3rltivc+1b1ut0Yfrxx3LA1H1dhyHinAYBigCJRILPfeqTfOW733MdihUHdr/OCQWjrNa5uHsTq63WmHl5eXlcf82nXIchEglKAETeNv34Yzn79FN5+F9PuA7F2JTBRYxO1Fmtc/Sgcl60WmPmff7aq9l79F6uwxCJBHUBiOzkW1/+IodMO8B1GEaKioqYOmWS9Xqz/XM5+/RTufziC12HIRIZSgBEdlKQn89tN3+L/aZMdh1KaB+afhIlxfZXuTvxmKMZUF1lvd5MOPXEE/jmjTe4DkMkUpQAiLzPwOpq7rz9R3zolJNdh5KyyooKrvvklWmpu7S0hOuvviotdaeL53l85pNX8sPv3ERhQYHrcEQiRQmAyC4UFhby/Zu+xve+8VWGDx3qOpx+KSku5v/d/C2GpXFp4/PPOpNLLzg/bfXbNGWfifz2x7fx6Ssvw9Ocf5EP0CBAkT54nsdZp53CaScez30PzuL+h2axfuMm12Ht0uSJE/juV29k8sQJaT/XV67/LGNH78Wv7ppBc0tL2s+XqqmTJ3HZRRdw+vSTtNiPyG4oARDZg8LCQi7/6IVcdvEFLFuxkhdfXciKmho2bd5Ca1ubs7hKS0oYO2Y0Jxx9FMcceXhGH3YXn3cOZ0w/iX89PYcFL79C7bY6unt6Mnb+nVVXVTFi2FAm7zORIw85mNGjRjqJQyTbKAEQ6SfP85i8z0Qm59CywSYqKyq46JyzuOics1yHIiIhaAyAiIhIDCkBEBERiSElACIiIjGkBEBERCSGlACIiIjEkBIAERGRGFICICIiEkNKAERERGJICYCIiEgMKQEQERGJISUAIiIiMaQEQEREJIaUAIiIiMSQEgAREZEYUgIgIiISQ0oAREREYkgJgIiISAwpARAREYkhJQAiIiIxpARAREQkhpQAiIg40tvba1TcVhwST0oAxFRn2IIdnaGLiuSExsZGk+L1tuKQeFICIKZC34Q2b63F932bsYhkjcbGRrbV1ZlUYVRYRAmAmAp9E19rntQAAB3pSURBVGpsamLxkqU2YxHJGi+8+KJpArzNViwST0oAxNQmIPRd7O77ZloMRSQ7tLS08M/HHzepogmosRONxJUSADFVD6wIW3j2nLk89uRTFsMRibaenh5+c+edtLS2mlSzAEhaCkliKs91AJITDgcODFt47rz5DB86hEkTJ1gMScSOrfUN1saqNDY28vPf/IZlK0LnzDv8GVDmLEaUAIgNA4FzwxbuTSZ5+rnnWbT4LaqrKhk+dCh5efpqSjTYSADWb9zIE089xR0zZrC1ttZGWF8GNtqoSOLLcx2A5IQqgrEAJTYqSyQSDBowgMLCQhvViRjp6u4OXTaZTNLU3Ey3QR278DowzWaFEk/5rgOQnNAIPAh8zEZlyWSSWrPpUSK57HeuA5DcoBYAseU44FnXQYjkuFpgIsEsABEjmgUgtswFHnIdhEiOuxk9/MUStQCITVOBhahrSSQdlhD0/VsdUCDxpaHWYlMtwcP/RNeBiOSYTuBsYL3rQCR3KAEQ2+YAxwPjXAcikkO+gLrYxDJ1AUg6jAKeB8a4DkQkB9wJfNp1EJJ7NAhQ0mEDcMrb/ysi4c0ArnMdhOQmJQCSLisIkoC1rgMRyVL/B1yN1vyXNFECIOm0FDgEMNr2TCRmOoAbCN789fCXtNEgQEm3duAegqlLRwMFbsMRibQXgXPQgD8RyTGjgD8SvNX4OnToeOdYD1yLWmUlgzQLQDKtAGgGilwHIhIhFwMzXQch8aJsUzJtP/TwF3m/A1wHIPGjJVsl0w4MWzA/4THrPyaTl0Np638/upGnl4Ve2n0hwb7wrlwIfCZMwYriPB64bh/L4bj13VnrmbeqJWzx0L8LkbCUAEimTQpb8KDRpZwxtcpmLM69tKbVJAEoAZ6wGE6qTg9b8Mix5Zw6Jbeu5dwVzSYJwBSbsYj0Rw69S0mWGB224OF7l9uMIxKOGGv0bxqN23E8e4UtePjYMptxRMLhZtdylK04RPpLCYBkWujlgScOLbYZRyTsY/ZvKgEGWwoljNDJXE5eyyFG/6ZyILeaRCTy1AUgmTYwbMGx48pgSKbHD/rvLsXS4+Mnfejy8bp6g8lbhkZWFZCf8OhJhq5sJMEujC6EfmsdO77cwbUEkn5w3ZJJ/B4fun28rqSVazl6YCGeB374uoYCjeaRiPSPEgDJtNDtpAMGFeIXR6PRyvfB6+yFph7oDL9YW17CY0hFPpsaQ2/xXhr65OaqwxZ0fy3fXQPN9328jiQ0m13LkoIEVcV5NLT3hq1Ci2RJRikBkEwL3flbWRKhr6sHfnEeFOfhtfRCQ1fot8iCPKNufJdt6aHfdStKIrQIqefhl+RBSR5ecw80hE7GKMxPAKETgAh9wSUOovE6JXES+mmXNGhbTSe/PA8GhH95y08YJQAun6ShX5cjeinxK/KNrqXhFFUlAJJRSgAk0zrCFuzsju6+KH5ZfvAWGUJXr9HTMPTnaUHoCxLpa1meH7TuhNDVY3QtI9QsInGgBEAyLfQDa3tzj8047KsK9wJXa/bvysoEoC4Hr2VP0md7m9G/q8GksEiqlABIpm0PW3B9XafNOOwrSEBhaj+phvZeOnuM3obrTAobCj1ifX2ty7ylHwoTkJ9a10xtcw/hJ3MAsNWotEiKlABIpm0MW3D15og/NCDlke1LNrebnnKTaQUG1oYtuKY24skcpNwNsGSL0bXsRFMAJcOUAEimhU4AXl3VbDOOtPCKUvtJLVzfZnK6etx2AawLW/CVFVlwLVMc02F4LV2t5SAxpgRAMm112IKvrGiJ7EyAHfyC1H5SL60JvXY8wFKTwhaETgAWLA29/0HG+CkOA3ipxuhaLjMpLBKGEgDJtEVhC9Y3d/PyCqObbPrleeD1r+/Y9+HxN41afd8yKWxB6ARk3bZOVpl3f6RXCmMAkj78+y2jpOY1k8IiYSgBkExbaFL4sZdcjnnrp34+OBZtaGP99i6TM4VOpiyZb1L4wXnbbMWRJl6Q0PXDgpoWalvCLyAEvGpSWCQMJQCSaVuA9WEL3/NM9AdK+/3sOr7nReMH4HOmFRhahcHI9b89lwXd3v1MAO550TgxVQuAZJwSAHHhqbAFl65v4zmzZvMM2PNDo6vHZ4bZG3Ar0XhovBC24LwlTSxcHfEunX5o60py9wtGycw23HfnSAwpARAXZpsUvv0foRsQMmTPAxXvfbmOrc1GTcZPAVFYTecZk8I/j/q17EcDwJ8WbDPZAAjgUQw2EBAJSwmAuPBvDFaRe/D5Wt5c22oxHNt2/9ToSfp8/58bTE/ysGkFlvzdpPA9z2ylZkv013foS2dPkv9+1Pha/tNGLCKpUgIgLmzEoP866cPXZ6yyGI5l3u5bAH7/fC3Ltxo99HqBWSYVWLQaeCVs4c7uJDf9IcLXcg9+O2cra+uNBnL2AI9ZCkckJUoAxJW/mhR+ZEEdjyyI5owAbzcN81ubu7npwdDT53d4EoMFldLgAZPC9z27lWcXR3Rcx27aqTY0dHHzw8ZdGI+iPQDEESUA4sr9BMufhva5Xy+j3qwfPT12s7vf5+9dQ12rcdf9H00rsOwvGPRh+z586qdLaDbrR0+P3ezT8Ll7amg0j/m3phWIhKUEQFypBe41qWD9tk6u/cWyaO0t7/v0tSPMHXO3ct/Lxq0WtcBM00osqwH+YVLBqs3tfOF/l9uJxpZe+hzP+bMnNzNrUeh9rXaoQc3/4pD2nxaX1gHXmlSwZF0bngcnHlBtKSRDveC1fPANf0FNC5fcsYJew+3igJ8QDKKMms3AVSYVLFzVQmVpHkdPqbIUkqGeJF7rB9/w5yxv5soZK013/gO4DXjWuBaRkJQAiEubgBOBcSaVzHmjgXHDizlwXLmdqAx4HUl4X7PwW5vb+dDPl9LUYdxc3AZcTrAGQNSsAc4FRphU8sSr2zlgbBn7ji6zE5UBr70XOt7bBfDa+jbO+tVSWjuNtnCGYCOnKzDsBhMxoQRAXFsOXG1ayaz5dYwZUsxB4x0nAS29eF3vPhyWb+3glJ8uYXOTlbEKP8GwqT3NNgAfN6nAB/4+bxtT9ipj6hjHSUBLL173u9fyjY3tnHb7EhtjOABuJhjMKeKMEgBxbR1wODDJpBLfh4fmb6OqLJ+jplTaiSwEr6H7nZHjz69q5oyfLWWLnYGK24FLgCjvoLMcOB4Yb1JJMgl/f34bIwcWccjECjuRheBt735nDMCTS5s48xdLqG+z8vDfRNCSE8ERrBInSgAkCl4hGAtg/H18/JV6Vm1u50OHDqKgn+u4W5P08RqDB8SMebVccucKG83+O3wVw1X3MmQRwbU0+vB9H2YtqGNTfRenHTyA/Exfy54kXlNwLX8zZwtXzlhJa5dxs/8OX8ZgCWURW5QASBRsAwoJxgMYW7S6lYde2Mah+1QwalCRjSr7xWtNUl/XySf/sJIfPLaRHgujxN72GsFDNUrzHfqyGRgFHGqjsldWNPPYy/UcOaWSYdWFNqrsF6+ll63bOvnYXSu4ffZmeq09+3ka+IK12kQMZDitFulTMcFWwUZdATvLS3hcf84ovnXp3gysKLBV7S71Jn3umrmO7/xtnem2sO/XBRxFdm0XW0GQtBh1BeysIN/ji+eP5usXj6GqLN9WtbvU3ePzm7+u4XsPrWe7nSb/HdqAA4EVNisVCUsJgETJocDzBK0B1lSW5nPD+Xvxn+eMsp4IdPUkuW9OLf8zcy1vpGd/gm8Bt6aj4jQ7lqDLwmor48CKAm68YDTXnTmSAeV2E4GOriR/fmoLP3pgLcs2pmWoxZeAn6ajYpEwlABI1HwJ+HE6Ki4uTPCRY4Zw1anDOWH/agryw3/9X1vVwsy5tfzhic1srE/bTK7ZwBlk705xtwI3paPi0qI8Lj1xKB87cSgn7F8deoyA78OLy5uYObeWP87eTG1j2sbl/QP4CNnRjSMxoQRAoiYP6ADS2s5bUZLH9AMHcNx+VUwbW87UvUsZOXDX4wW2NXWzZmsHr65s4fm3Gpm7uJGVm9I+GH8dQYuI0UbzjuUBDwEfTudJBlUUcNK0ao6dWsVBE8rZZ2RJn9dyS0MXa7Z28NKyZl5Y2sSc1xtYty3tU/GXAEcCTek+kUgqlABI1IwkmE+ecQkPBlcVUl78bqv1loYuWu2N5O+vZoIBkdnU79+XCmAuMC2TJy0qSFBVlv/OtfR9n03bu+iwN5K/v5qAI4ClmT6xiEi2OZqgmTSuRxdBs38uGUnQouH6s3VxRHHZZhFAmwFJ9OztOgCHeoFPAI+7DsSyjcBpOGrZcSzO32eJOCUAEjVjXAfgSDdwKXCP60DSZAlwMkFLQJyMQV2tElFKACRq4pgANAPnEL1tfm1bDpwArHIdSAYVAcNdByGyK0oAJGri1mS6nmDAX641+/elhmCcx2uO48ikOCa1kgWUAEjUxCkBmEOwEVIujPZPxVbgQddBZJASAImk9K6pKZK6uNwsNwKnAFbXms0ia1wHkEFxSmoli6gFQKKkGqhyHUSGrCK+D3+Ata4DyKC4JLWSZZQASJTE6U0pTg/AXVELgIhjSgAkSkK/KRUVFjJ40CCbsaRbnB6Au7IOyPiyfI4oAZBIUgIgURL6RjlixAh+cMstfPaaa5gw3toutOkU9xaALmCz6yD6o7y8nEkTJ5pUoS4AiSQNApQoCX2jHDhgAIlEgsMOOYTDDjmEVatXM/uZZ1j4+uu0t6d9454w4t4CAMFnMNJ1ELvieR57jxnDgfvvz4Rx46jfvp1lK1aErW4AUIk2A5KIUQIgURK6BWDwwIHv+f/jx41j/Lhx9Pb2snT5cl5dtIjXFi2ivr7eOEhL4t4CAEECcLTrIHYoLCxk7JgxTBw/nvFjx1JcXPzOf6uqrDStfm/gddNKRGxSAiBREr4F4H0JwA55eXlMnTKFqVOmcNlHP8qWrVtZt3496zZsYN369dSsWUNjU/9ezEpKSqiuqmLI4MEUFBTw8qtG0/fVAmCQBB08bRoXnn8+K1evpmbNGjZv2cKmzZtpaGzcY9lEIkFpaSlVFRUMHjSI4cOHM2LYMAYNHIjn7XrV3oKCAoqLi+no6Agb8hiUAEjEKAGQKAndAjCojwTg/YYNHcqwoUM57JBDaO/ooKamhmQySVtbG23t7XT39NDTE8zOy8/LIz8/n+KiIsrKy8nPe3eb4FU1NSYJQB3QErZwDgmdBNVv386I4cMZMXw4xx39biNCb28vTc3NNDc3093dTWdXFwCFBQUUFBRQUV5OaVkZq1evTvmclRUVJgmABgJK5CgBkKgwWjN9UIgZAN1vPxwSiQTl5eWUl5f3u2x/Ww36oLf/QOgWgLo+unLy8vIYUF3NgOrq3Zb3PA/f91M6Z2VFBVtra1Mqs5PRYQuKpItmAUhUGO2a1t8WgJ11dXeHPR3Nzc2hy6L+/x1Cfw4tra10dnaGPnFBfurvPpUVFaHPh1oAJIKUAEhUGK0BUF5WlnK5HS0AYTSZJQBqAQjUmBSu3749dNmCwsKUyygBkFyjBECiInz/f8gFgLrcJQBqAQg0AXsetdeHvroB+qOwoCDlMpVmMwG0FoBEjhIAiQqjNQDC6DboAmjSGABbQn8WdXV1oU9aGKIFoMKsBWAkkPpJRdJICYBERUZbAPxkku6ecHvx9Pb20trWFqrs25QAvCt8ApDhLoAqswQgAYwyqUDENiUAEhXhE4AQLQBGAwBbWlIeQf4+SgDeZX0mQH8UhOgCKC0tJT/E4MGdaByARIoSAImKtK8BsDOj5n+z/v92YJtJBTnGSRdAUUFBn4v+7E5FClNFd0HjACRSlABIFCSAvcIWDtMF4HgAoFHzQY4J3wJg0AXgJRLk7bSwU39pJoDkEiUAEgXDMRgglekuAA0AtCr059HQ0EBvb2/oE2smgMSdEgCJgtBvRolEguo9rPq2Kw67AJQAvFfozyOZTPZr7f++aC0AiTslABIFoW+MA6qrSSRS/xprDYDI2AyEXmA/42sBKAGQHKIEQKIgdNNomAGAvu+rBSA6fGB92MImAwEdtAAYLXctYpsSAImCjM4A6OnpMZrG16IEwDYnAwGLMt8CUAwMNalAxCYlABIFGU0ATAYAtra20mMw8AwlALviZCpgmBaAioqKUNMHd6KBgBIZSgAkCsIvAxwmAXDX/98LbDSpIEeFbgEw2RAoLy+PRIpTAROJBGUhNp7aicYBSGQoAZAoyOgYAIe7AG4Ewjc/5K7wLQAGgwBBAwEl3pQAiGvVQFXYwpnuAtAAwLQw6gIwGc8RZlMgCwMBRSJBCYC4ZvRGFKYLwGELgBKAXQvdBdDV3U1La2voE4fZE0AtAJIrNCVF0mUMMBmYBIwDKgje9MuBop3+3kDgkDAn8DyPfSdPTrlcW1tb6LfGbXV1JjsB/gC4KWzhHFYEtBHyhWTC+PEUhXiTh2BGSGdnZ0plmpqb2d7QEOp8QAPw0i7+rPXtYwuw7O1jCcHnIiISacOBq4E/E/R1+zo+cHwm9Keb+zbg/vpE7egGngP+CzgBtdiKSIQUApcADxPcrFzfMKN+LAb+g2DcgwSOBu4iWA3Q9fWJ+rEGuJWgVU1ExIki4Fre3dlOR2pHC/AzYGSqH3wOORV4AffXIhuPXmAWcHjKn7qISEge8AmC9dtd3wRz4WgDbgFKU7kIWe4oYAHuP/tcOJLA/RhspS0i0h9TgWdwf9PLxWMNcEb/L0VWqiRo6k/i/vPOtaMZ+DKQ2qpGIiL9cA3B26rrG10uH0nglwTrxeea44DVuP+Mc/14mnh3K4mIRSXAn3B/Y4vTMR8Y1Z+LkyX+A+jC/ecal2MLML1fV0ZEpA/VwBzc39DieGwEpu35EkVaAvgV7j/LOB6dwKV7vkQiIh80HFiI+xtZnI864Ig9XaiIygfuxv1nGOejF7h+TxdKRGRnlcAruL+B6YBG4ODdX67I8QgG+7n+7HQE40qu3v3lEhEJFBMMJHJ949Lx7rERGNv3JYucH+L+M9Px7tENnL3bKyYiAvwO9zcsHR88FpIdawVcivvPSscHjxZg391cNxGJuStwf6PS0ffx+74vXSRMJXjQuP6cdOz6WEQwq0fkHVo4QgAmEiwtGm5LNcmEgwhaApa4DmQX8oFH0Fa3UTYMGERwnUQAbQcsgcdI00p0w6oLOWJyJZP3KmFQRQEDyvPTcZr0aeuFzuRu/0pzRy9N7b0s29rBK2tbWb61I13RbAb2A+rTdYKQbiLYpMa6suI8jphcyZS9Shk9uIiKkjwK8rPottWZDL5Du9HelaS5s5eabZ28vqGNV9a10Zv00xFNkmBRpnnpqFyyTxb9kiRNLiJYT9yaodWFfOKU4Xz85KFMG1tus2o3tnXhte/+Jr6ztfVd3PdyHb97vpYlm9ttR/Mz4AbblRrYC1iKxTEKRQUJLjpuCFdOH84JB1RRmJ/du+B6zT3Q0N3vv9/U0cusRduZMa+W2UuabIfzGnAYwTRBiTklAPFWACzD0ijzqrJ8vvOxsVx75ghKi3Kod8kHb3MH9KT2Vpb04W+v1vONB9exstZaq0AXsD+w3FaFhmYQbBBlLOHBtWeO5KZL9mbUoCIbVUZHXTdeW0/KxV5e28rX/77WdiJwDcFUTYk5JQDx9gmCG7ixMw8bxJ1fmMzwATk6jKA7ibelMxhOlaL27iTffmg9P529Cd9Oy+4fgE9aqcnMRIIxCcbZ3sQRJdz9lX05YlKleVRR5Pt4W7qge/fdSX25e/42rv9rDc0dVl7cVwBTUCtA7CkBiK8E8CYw2bSib126NzdfNg4v179NjT14Tf1vyn2/v71az+W/X0lHyIfATrqACcB604oM/Ra4zrSS0w4eyH3fmEplaZaND0lV19tJZEhLt3Tw4V8uYfW28HXs5DLgLzYqkuyV3Z1rYuI0LDz8f3zNRG65PAYPf4DKfDDoj77g4IH88/rJlBQY/+wKgc+YVmKoCrjStJLzjhrMQ9/dP/cf/gCFCfyy8I0lk4cVM/fL+zFpqJUNI7VMsCgBiLErTCv4+sVjuOH8vWzEkh08giTAwEmTKrnnmokkzBOmK3D7+70Yw3nlx+9XxV++OjXrB/mlpKrAqN11RFUBj31+CsMqC0wjOQrYx7QSyW45NFJLUlBBMAgo9F1k+oED+N0Xp+DF4tV/JwUJvLbeYEJVSJOHldDdC8+uaDaJpIpg2eYak0oM/BiDwaNDqwv5960HZd+0UFMJD7rBM+gGqi7N5+DRZfx5wbYwQ1J28IDtBN8hiakYpd6yk1MxmLZVWpTHHZ+fTCJuD38Ibptl5g+t7549immjjGfOnWUcSDhVwLEmFfz8uomMGJijA0b3pML8veuUKZVcd/ww02rONQ5EspoSgHg62aTw1y4ew9hhVvohs5JfZv6zyU94/M+FY0yrOdM4kHBOx6D16IT9q7n4+KEWw8kyhQmwsJjR98/bi+oSo2RiGjDYOBDJWkoA4ml62IKVpflcf84om7Fkn7xEcBM3dNq+VRw1zmihpKnAAONAUnecSeFvXqIVg00GA+4woDSf608ablJFAjjJOBDJWkoA4qeM4MERyqUnDqXaQhN4tvOL7fx0rjvBqBnXAw61EkhqDgtbcMKIEk45yEXOEi1eoZ3hV9edMJQ8sxGlh1sJRLKSEoD4mYTBOORLTohx0+1OPEsrHV548ACKzEbBH2QlkNRMC1vw0hOHxmPK6B74RQkrq7CMqi7k2AlGrUjGU4EleykBiJ/QP/jSojyOnpKjK7WlyC+w8xQrL8rjyHFlJlVkuj19MBD6iaO3/7d5GK0psbPpk6tMiisBiDElAPET+oFx0PhyiswXsckNeR42JvMDHGG2YdJYK0H0X+jvj+fBYRMrbMaS1XxLuxoeaTaORAMyYkx38/gJfQfeZ5TRui+5x9KvZ5LZjIpBdqJI//lGDSqirFhLj7wjz04CYLgyYAkGMzokuykBiJ/QCcBg89XHcoulFoDB5Uafq7VteNN9Pn1/3sfS92dIhfGg3BzYs1vCUAIQP6E7nPX29l6+pRt4eZHRzzDTCUDo1019f97Ls3T3LSvMMx1YqQQgppQAxE/oW4UGb7+fnb19DVdUzPRlCX3PsJQv5Q47Xx88z/hLoOdATOnCi4iIxJASABERkRhSAiAiIhJDSgBERERiSAmAiIhIDCkBEBERiSElACIiIjGkBEBERCSGlACIiIjEkBIAERGRGFICICIiEkNKAERERGJICYCIiEgMKQEQERGJISUAIiIiMaQEQEREJIaUAMSPH7ZgZ3fSZhzZL/Qn+V4dZp9rpi9K6PN1dOn78x6Wvj+dPUnTqnRhYkoJQPy0hC04+7XtJH1Ld60c4Fm6bf7rzUaT4qGvZ0itYQu+saaVTfVdNmPJar6l39K/3mzEsKpMf4ckIvJdByAZty1swReXN3Plj5dww3l7MbAi5l8dH7wtXZjcedu7kzzwSj2/emaLSSS1JoVDCP39ae9KcvbNi7jtqgmMH1FsM6bstL0LryP896c36TO/poUb719rEkUn0GRSgYhkj48SND7qyI3jZ2TWQIux63B/vIHElroA4ucl1wGIVS9m+Hz1wKoMn1PSJ9PfH4kQJQDxswrdwHOFDzzp4LxPODinpMds1wGIO0oA4umvrgMQK+YAGx2c914H5xT7OoBZroMQd5QAxNPvgF7XQYixOxyd92lgmaNziz1/BYymoEh2y3MdgDixHZgETHMdiIS2AvgsbuZw+wTTAc9zcG6xoxf4OFDnOhARybzRBPN/XY9C1hHuOOeDlzSjEsB83H8OOsIdmZ49IiIR83nc34h0pH5EZQzHwQT9yK4/Dx2pHSuBql1cT4kZdQHE2wJgf2Cq60Ck35YC5xIs4OLaZoIm5LNcByL91k5wvVa7DkRE3CshGE3u+q1Ex56PDcC4XV9Gp36I+89Gx56PbjRuQ0Tepwz4J+5vUDr6PlYB+/R1ASPga7j/jHT0fXQAF/V59UQk1vKBmwlGB7u+Wel47zELGNTnlYuOjxDMMHH9eel477EMOGg3101EBIDjgIW4v2npgE3AFYC32ysWLaOBmbj/7HQE40R+SNDCJyLSLwngYmAuwTxz1zeyuB1LgRuA0j1dqAg7DLgPzRJwcdQBtxMkYyJ9yqY3C3FjPPAh4HhgCjAGqAAKXAaVI3yggWBL37cI5tX/m9zasGkAwffnRIKFpyYAlYD2A7ajheA7tBR4lWBt/yeBLpdBSXb4/84hbMLsv5r4AAAAAElFTkSuQmCC;" parent="1" vertex="1">
          <mxGeometry x="520" y="120" width="160" height="160" as="geometry" />
        </mxCell>
        <mxCell id="YJ6UbeCUbPOiozkyNc1K-5" style="edgeStyle=orthogonalEdgeStyle;rounded=0;orthogonalLoop=1;jettySize=auto;html=1;exitX=0.625;exitY=0.004;exitDx=0;exitDy=0;entryX=0.5;entryY=0;entryDx=0;entryDy=0;exitPerimeter=0;" parent="1" target="YJ6UbeCUbPOiozkyNc1K-2" edge="1">
          <mxGeometry relative="1" as="geometry">
            <mxPoint x="260" y="120" as="sourcePoint" />
            <mxPoint x="560" y="119" as="targetPoint" />
            <Array as="points">
              <mxPoint x="260" y="40" />
              <mxPoint x="600" y="40" />
            </Array>
          </mxGeometry>
        </mxCell>
        <mxCell id="YJ6UbeCUbPOiozkyNc1K-6" value="&lt;font data-font-src=&quot;https://fonts.googleapis.com/css?family=Play&quot; face=&quot;Play&quot; style=&quot;font-size: 16px;&quot;&gt;Reward&lt;/font&gt;" style="text;html=1;align=center;verticalAlign=middle;resizable=0;points=[];autosize=1;strokeColor=none;fillColor=none;fontSize=16;" parent="1" vertex="1">
          <mxGeometry x="400" y="79" width="80" height="30" as="geometry" />
        </mxCell>
        <mxCell id="YJ6UbeCUbPOiozkyNc1K-7" value="&lt;font data-font-src=&quot;https://fonts.googleapis.com/css?family=Play&quot; face=&quot;Play&quot; style=&quot;font-size: 16px;&quot;&gt;State&lt;/font&gt;" style="text;html=1;align=center;verticalAlign=middle;resizable=0;points=[];autosize=1;strokeColor=none;fillColor=none;fontSize=16;" parent="1" vertex="1">
          <mxGeometry x="410" y="39" width="60" height="30" as="geometry" />
        </mxCell>
        <mxCell id="YJ6UbeCUbPOiozkyNc1K-8" value="&lt;svg style=&quot;vertical-align: -0.357ex; font-size: 16px;&quot; xmlns:xlink=&quot;http://www.w3.org/1999/xlink&quot; viewBox=&quot;0 -442 789.3 599.8&quot; role=&quot;img&quot; height=&quot;1.357ex&quot; width=&quot;1.786ex&quot; xmlns=&quot;http://www.w3.org/2000/svg&quot;&gt;&lt;defs style=&quot;font-size: 16px;&quot;&gt;&lt;path d=&quot;M21 287Q22 290 23 295T28 317T38 348T53 381T73 411T99 433T132 442Q161 442 183 430T214 408T225 388Q227 382 228 382T236 389Q284 441 347 441H350Q398 441 422 400Q430 381 430 363Q430 333 417 315T391 292T366 288Q346 288 334 299T322 328Q322 376 378 392Q356 405 342 405Q286 405 239 331Q229 315 224 298T190 165Q156 25 151 16Q138 -11 108 -11Q95 -11 87 -5T76 7T74 17Q74 30 114 189T154 366Q154 405 128 405Q107 405 92 377T68 316T57 280Q55 278 41 278H27Q21 284 21 287Z&quot; id=&quot;MJX-2-TEX-I-1D45F&quot; style=&quot;font-size: 16px;&quot;&gt;&lt;/path&gt;&lt;path d=&quot;M26 385Q19 392 19 395Q19 399 22 411T27 425Q29 430 36 430T87 431H140L159 511Q162 522 166 540T173 566T179 586T187 603T197 615T211 624T229 626Q247 625 254 615T261 596Q261 589 252 549T232 470L222 433Q222 431 272 431H323Q330 424 330 420Q330 398 317 385H210L174 240Q135 80 135 68Q135 26 162 26Q197 26 230 60T283 144Q285 150 288 151T303 153H307Q322 153 322 145Q322 142 319 133Q314 117 301 95T267 48T216 6T155 -11Q125 -11 98 4T59 56Q57 64 57 83V101L92 241Q127 382 128 383Q128 385 77 385H26Z&quot; id=&quot;MJX-2-TEX-I-1D461&quot; style=&quot;font-size: 16px;&quot;&gt;&lt;/path&gt;&lt;/defs&gt;&lt;g transform=&quot;scale(1,-1)&quot; stroke-width=&quot;0&quot; fill=&quot;currentColor&quot; stroke=&quot;currentColor&quot; style=&quot;font-size: 16px;&quot;&gt;&lt;g data-mml-node=&quot;math&quot; style=&quot;font-size: 16px;&quot;&gt;&lt;g data-mml-node=&quot;msub&quot; style=&quot;font-size: 16px;&quot;&gt;&lt;g data-mml-node=&quot;mi&quot; style=&quot;font-size: 16px;&quot;&gt;&lt;use xlink:href=&quot;#MJX-2-TEX-I-1D45F&quot; data-c=&quot;1D45F&quot; style=&quot;font-size: 16px;&quot;&gt;&lt;/use&gt;&lt;/g&gt;&lt;g transform=&quot;translate(484,-150) scale(0.707)&quot; data-mml-node=&quot;mi&quot; style=&quot;font-size: 16px;&quot;&gt;&lt;use xlink:href=&quot;#MJX-2-TEX-I-1D461&quot; data-c=&quot;1D461&quot; style=&quot;font-size: 16px;&quot;&gt;&lt;/use&gt;&lt;/g&gt;&lt;/g&gt;&lt;/g&gt;&lt;/g&gt;&lt;/svg&gt;" style="text;html=1;align=center;verticalAlign=middle;resizable=0;points=[];autosize=1;strokeColor=none;fillColor=none;fontSize=16;" parent="1" vertex="1">
          <mxGeometry x="459" y="79" width="40" height="30" as="geometry" />
        </mxCell>
        <mxCell id="YJ6UbeCUbPOiozkyNc1K-11" value="$$s_t$$" style="text;html=1;align=center;verticalAlign=middle;resizable=0;points=[];autosize=1;strokeColor=none;fillColor=none;fontSize=16;" parent="1" vertex="1">
          <mxGeometry x="432" y="39" width="80" height="30" as="geometry" />
        </mxCell>
        <mxCell id="YJ6UbeCUbPOiozkyNc1K-15" value="" style="edgeStyle=orthogonalEdgeStyle;rounded=0;orthogonalLoop=1;jettySize=auto;html=1;exitX=0.5;exitY=1;exitDx=0;exitDy=0;entryX=0.5;entryY=1;entryDx=0;entryDy=0;" parent="1" source="YJ6UbeCUbPOiozkyNc1K-2" target="YJ6UbeCUbPOiozkyNc1K-1" edge="1">
          <mxGeometry relative="1" as="geometry">
            <mxPoint x="600" y="280" as="sourcePoint" />
            <mxPoint x="280" y="280" as="targetPoint" />
            <Array as="points">
              <mxPoint x="600" y="320" />
              <mxPoint x="280" y="320" />
            </Array>
          </mxGeometry>
        </mxCell>
        <mxCell id="YJ6UbeCUbPOiozkyNc1K-3" value="" style="shape=image;verticalLabelPosition=bottom;labelBackgroundColor=default;verticalAlign=top;aspect=fixed;imageAspect=0;image=data:image/png,iVBORw0KGgoAAAANSUhEUgAAAgAAAAIACAYAAAD0eNT6AAAABHNCSVQICAgIfAhkiAAAAAlwSFlzAAAOxAAADsQBlSsOGwAAABl0RVh0U29mdHdhcmUAd3d3Lmlua3NjYXBlLm9yZ5vuPBoAACAASURBVHic7N13nFxlvcfxzzNle8tmd5NN3TRSSSGQ0EnoHUQRrwrXrlyVKyh4bQii2LAA0kQvCAgoCIJURaSp9BoSCOm97GY322enPPePAS4lm92d85w5szvf9+s1r5eG7O/8Mrs753ee8nsMIgMTBSYDE4Cxb77GAdXveUWAAqD0HV/bDXQBFtjxntdGYD2wBlgHvAF0+v2PERHJVyboBCSnVQMLgH2APYGZwBTSRYDfUsBq4NU3X88AT5MuFERExCMVAPJOo4HD3nztR/pmn2s2Av8G/gE8BCwPNh0REZHBJwwcDPwcWEp6aH6wvdYB1wLHA0Vu3x4REZGhIwQcDvwW2EbwN3CXrzbgj8CHgEJXb5iIiMhgNh34EemFdkHfqLPx2gFcDezv4s0TEREZTMLACcDfSC+qC/qmHNTrNeC/gTJvb6eIiEhuqwK+SXrBXNA331x6tZBe7zAm87dWREQk99QCFwDNBH+zzeVXD3ADMC2jd1lERCRHVJOe3+8k+JvrYHolSS8anDjwt1xERCQ4JaSH+vXE7+3VDfwSqBnY2y8iIpJ9J5DulBf0zXMovZpJLxaMDOD7ICIikhXTSXfAC/pmOZRfL5FukCQiIhK4CPB10sPVQd8g8+GVIr1QsLo/3xwRERE/zAdeJPibYj6+1gPH9f0tEhERcceQnpOOEfyNMN9fN/Duo41FRER8MQJ4gOBvfHr9/2sZMHd33zQRkcFCxwHnpiOAm8nhbWmFoRCTC8sYV1DM+IISxheWMDxSQHW4gJpIAZXhKABl4QgRk/4xa0nEAehIJdiRjNOU6KExHmNjvIt1PV2s6u5gRayD9lQisH9XP3QDXwZ+E3QiIiJeqADILYb0Qr/vk+7jnxMKTYi5JVUsKB3G3JJKZhVXMLGw9O0bu0sWyyutrfxr5w5ej7WxtKeNpfG2XCwKriVdCMSCTkREJBMqAHJHKel55lOCTsQAc0oqOayijsPLa5lXWkWhCWU1h5S1bGzvYltnjJSFtYlOno0180yshVd6WonbVFbz6cXTwAeATUEnIiIyUCoAcsNI4G5gn6ASCGHYr6yaU4aN4vjKkdRFC4NK5V06E0nW7uygI558+8+6bZKnYs082tXI07FmYsEWA+uA44FXgkxCRGSgVAAEbwZwL9AQxMUnFpZy+vBxfKR6NCOjRUGk0CdrYVtXjI1tnaTsu/9bl03yeHcT93Vu5dWe1mAShJ3AqaSPXRYRGRRUAARrIXA/MCybFw1hOKZyBJ+tbeDg8ppB80MQS6RY1dpBR8+u1wOsTXRyd8cW/tq1jW6b3OXf8VEcOAO4NdsXFhHJxGD57B+KDgXuAsqydcHCUIiPVY/lv+omMqlwcG5ptxY2tXeyuaP3tXdtqQT3dG7hzo5NNKfiWcyOJPAFtENARAYBFQDBOB64DcjKmHuBCXH68HF8deRk6nN0mH+gWmJxVrd0kLS217/TbZPc1bGFP3ZsoDV7uwgscDZwabYuKCKSiZzZapZHjgLuJAs3fwN8aNhofj9xH06tHk15eOgcclcUCTOsOEpbT4LEexcGvCliQswqqOCE0nrCGJbH20nSe8HgiCH9PW4ivUtARCQnqQDIrsWkV/v7fvOfX1LF9RPm84W6CW835RlqIqEQNcUFxFIpuhK9z/lHTYi5hZUcVlxHU7KHtYlOv1MzwDHARuB5vy8mIpIJTQFkz76kV4n7OudfForw3VHT+FTteEJ59O1d39bF1o7ufv3d52It/HLnSrYk+/f3PUgBHwdu8ftCIiIDpRGA7JgCPITPq/2PqKjj9kkLWFRRi8mjmz9AZWEUY0K09fS96G9UpIhjS0bQY1O8Fm/zMy0DnAD8E1jj54VERAYqv+4SwagB/kW6CPBFYSjEBaOm8/naCXn/Dd3eGWNdWye7WRv4Li/27OQnLcvZnuzxM61W4GDgJT8vIiIyEPl+v/BbEfAI6f3+vphVXMFvG/Zij6Ks7SbMec3dPaxu6aC//QHbUgl+vnMFT3Q3+ZnWemABsMXPi4iI9JemAPx1NekhYF98aNhobp64T8528AtKcSRMcTRCc6x/T/WFJsSi4hqGhwt4NtbS78JhgCqBA4CbSPcLEBEJlAoA/3wJ+JYfgSPGcPGYmVw4ejrRLB/SM1gURcIUhsO0xPrfCGiPaBmzCit4KrbDr/MFxgK1wD1+BBcRGQgVAP44gPTKb+fvb1kowo0T9+bD1WNchx5ySqJhIqEQOwdQBIwMF3Fg0XCe6WmhzZ/mQXuTng54wY/gIiL9pTUA7lWT/nAf5zpwfbSIP0xawJ7FFa5DZy4aITy2nlDDWMLjRxEaNQJTUQalxZjiovSrrIRUUwup9ZuJP/Y08UefgnjWOvOxoa2LLf3cIviWnak4321exqs9vuwS6CB98uMyP4KLiPSHCgD37iB9RrxTYwuKuWvyfkwoLHEdekBCdcOJ7DObyD5ziMydTmj0CAgPbKAjtWEzXT+9lvjjz/iU5fut3dnJ9q7ezw/YlZhNcUHzMp6NtfiR0hLSiwK7/AguItIXFQBunQlc6TrolMIy/jxlX0YFsdjPGCJzZxA9+mCiC+YQGj/aTdyUpeuy64jdcKebeH2wFl5vbqO9l5MEexO3Kb7f8jr/6t7hR1q/Ar7sR2ARkb6oAHBnAvAyjjv9TSos5b4p+1MXLXQZtk+hsfUUHHcoBcctTj/l+8FaOr91CT0PPOZP/PeIp1IsbWwjnhrYAr8Elu81v8a/3RcBFjgM+IfrwCIifVEB4IYBHgSOcBl0dEEx903Zj3EF2Rv2j+w7l6JPnkpk7z3B+P/jYVvbaT3xs9jWdt+vBdDWk2B5c1u/GwW9JWEt321extOxZtcprQFmA762JBQReS/tAnDjv3A8lFsXKeS+KfvTkI05f2OIHrKQ0ovOoeiTp6af+LNw8wcwhQXQHSPx3JKsXK8wHOp3y+B3ChnDgUXDebFnp+uugVVAOXC/y6AiIn3RCIB3I4DXSH+QO1EUCvOXyfuyd6mvRwcAENlnNsVf+yzhKQ2+X6s3yeWrafvIWVm95sqWDpq7B34jb00lOKvpZTYmnK7dSwH7oeODRSSL1EXGu5/i8OYfwvCbhnm+3/xDw4dRctE5lF39/UBv/gDhyQ0QiWT1muMrS4iGBv7jXxGKcNGw6ZSHnOYbAi5Hv48ikkX6wPHmQNLHvTrzzfo9OK5ypMuQ7xYKUfiREyi/8yoKjluctaH+3edkCA3Lbm+DiDGMrchsemVspJjvVE11fdzyAuDTLgOKiOyOCoDMGeCXOJxGObpyBOeM9O3QQEx1JWWXX0DxeZ/DlJX6dp1M2PbOrF+zuijKsKJoRl87r7CKT5Q77/X0AyCHujyJyFCmAiBzpwHzXQWbUFjCNePn+bYoI7JwLhV/+BWR/eb5dIXMpRp3YLsG1qnPlXHlpUQyHAX5SNkY9iuqdplOLfA1lwFFRHqjAiAzUeD7roJFjOGa8fOoCPswDx4yFP3Xxym74nuY4c6WKjiVePzZwK4dDRtGVxRn9LUG+GrlZKpDBS5T+hqggx5ExHcqADLzWWCSq2DnjdyDffxY9BeNUHrxuRR95jQI5cBc/66kLLHb7g00hdriQsoLMiu+KkNRzqua4nLkphj4prtwIiK7pgJg4AqAr7sKNr+kinNGTHYV7m2mpJiyyy8geuRBzmO7FPvT/SRfWxV0Gowpz2wUAGB+YRUnlNQ7zIZPAY56LouI7JoKgIH7Txyd9Bcxhp+P25Ow45X4prqSsmsvJrJgjtO4riWeW0LXz34TdBoAlEYjGS8IBPh0xXhqw87aNRcCX3UVTERkV1QADEwEh0//Z4+YzOziSlfhADBVFZRd+0PC092PKjhjLT13/pX2L54PA+zI56fR5cUZ74osMWHOqpzoMp3PkV4UKCLiC7UCHpgPkf5g9mx8QQm/bZif8Qr0XTHFRZRdeSHhqU5vRM7Y9g7iDz9J50WX03P7/ZAc2KE8fouEQvQkLZ2JZEZfPyZSzIpEBxvcdAksANqBR10EExF5rxxdGZazHifd/Mez6yfM56Qqh/PGkQhll36HyH57uYs5ALa9g+TKdaTWbCC5ZiN2y3ZsV3f61daBbWom1dQCAzyJL9t6kimWbN9JplluSnbzme0vELdO/p2bgQbA6eEDIiKQHtKW/pmLo5v//mXVbm/+xlBy4Veye/NPJkk8/TLxp18k8czL6YV8OX5z74+CcIia0kK2dcQy+vpR4SJOKqnn9o6NLtKpJz3qdLOLYCIi76QCoP++5CrQd0dNdxUKgMKPnkjBMYc4jdmb5PLV9Pzl7/Q88Ci2qSUr18y2upIitnf0YBngmcFv+o+yMdzXuYVOm9lUwnt8ERUAIuIDFQD9Uwp82EWgIyrqWOBwz3945hSKz/qEs3i9Sby4jNj1txN/bOgfWFcUDlFREGFnhgsUK0IRTikdxU3t612ksz8wjfSJkyIizmgXQP+cQvrMds++Ub+HizAAmIoySn/8PxD1r45LLltB+6fOo/1T5+XFzf8ttaXetvR9qGw0Ze5ODPxPV4FERN6iAqB/PuEiyOLyWuaVuGvHW3L+lwmNqnMW751sWwddP7qattO/SuLFZb5cI5dVFkYojGT+61FqwpxQ4uxUx9PRjh0RcUwFQN9GA4tcBPpinbvtedHD9id66P7O4r1Tcsly2v7jLGJ/vHdILOzLhMFQW+xtFODk0nqixsmvmLOfQRGRt6gA6NvJOHifphWVc2iFm74upqiQ4rN9ODreWmK3/IW2T32d1KZt7uMPMjUlhZ6+8dWhAhYX1bhK54OuAomIgAqA/nDywfvpmvHOmi4Uff6j7of+4wk6v3kJXT/9NSQSbmMPUhFjKPfQHhjghFJn2z1PQb+vIuKQPlB2bzjg+TSdolCYD1W7OdslPGkchR870Umst9jObtr/+0J6HnzMadyhYFihtwJgWrSMSdFSF6mMAPZzEUhEBFQA9OVoHGyV/EBVPVVhbzeStxT91+kQcbfq33bH6Pji+SSefNFZzKGkqjCa8fkAbzmmeISbZOB4V4FERFQA7N6RLoJ8pHqMizCEJ44leshCJ7EASCToPO9HJF7Kv1X+/RUJhSj3uM1yUXENYTcTQEe4CCIiAioAdsfg4AO3JlLA/mXDHaQDhZ/5CITcHd/Q+b3LiT/xrLN4Q9WwogJPX18ZijK30Mmpj/PQCYEi4ogKgN7NJN2L3ZMTq+qdnPgXGlNPwREHeI7zltht99Fzz8PO4g1lwwoLMB6f4A9xsxsgBBzqIpCIiAqA3nle/AdwXJWbZjCFZ3wAwm56wSRfX0XXz37rJFY+iIQNxVFvvyr7F1W72gXi5OdSREQFQO88r7guCYXZv9TB8H9BAQVHHew9DqS3+33jp9CjE2YHorzA2yLOylCUPaJlLlLRTgARcUIFQO88f9AeVF5DUcj7Wxw9ZAGm3MlWMrpvuIPkmg1OYuWT8gLvOy/2KXRyCNRswEklISL5TQXArg0HJnkNsqjcTRe4guPdTPumtmwn9r+3OYmVb8ocFADzC52cAxEB9nIRSETymwqAXZsL3qds9y2t9pyIqa4kur+bz/vuK27EdnU7iZVvIsZQ5HENxtRoGQVuzgaY6yKIiOQ3FQC7NstrgJJQmFnFFZ4TiR6y0Mniv9TGLfQ8oE5/XpREvX0foibEFDddAWe6CCIi+U0FwK55/oDdq6TKyfa/yD5zPMcA6L7uT5BMOomVr0o8NgQCmBH1XhQCe7oIIiL5TQXArnkuAPYscfBBbwyRfbx/1tv2DuL3as+/VyUR778ujs4F0AiAiHimAmDXJnsN4GL4PzxxLKHh3leOx//6BDambX9eFUa8T8VMiJQ4yIQK1BFQRDxSAfB+xTj4cJ1R5L0AiOw923MMgJ57/+EkTr4rCBtCHqd1xkVKiLhpCTTBRRARyV8qAN5vPA52AEwu9D7UG57heSAC29RC4sWlnuMIGAwFYW+/MhFjGBEpcpHOeBdBRCR/uTtXNneVvvkqA6ro++bu+bi94ZECysLe39rwBO+nCMaffRms9RxH0grDIboT3hZTjgwXsjHR5TWV/YFVXoOIyLtYoAVoBzrefA1ZQ60AmE76sJS5wFRgGgHMlY4rKHYSJzTeewGQeOYVB5nIWwocdHasDzsZAfjKmy8R8c824DXgdeBF4OE3//+QMNgLgDBwGPAx4EjAzck7Ho1xUACY4VVO2v8mX3jVcwz5f1GPUwAAdeFCB5mISBbUvfl652Esm4EHgd+TLghSAeTlxGAtAOqBs4AzgFEB5/I+NRHvH/DhBu9P/yQSJNdv9h5H3uZgJyAVocH6aycipO8/n3jztRG4AbgM2BJcSpkZbIsAG4ArSc99/g85ePMHGBb2dnIcQGiE93MEkhu2QCLhOY78v7CDVr4VIe8/HyKSE0YD3wBWA78CxgWbzsAMlgKgGLgQWAacCTiZRPXL8EiB5ximxPs0QmrNRs8x5N1cdHfUCIDIkFMEfJH0+oDzyfF71FsGQwFwOPAKg+hNLXHxAV/qvQCwO5q95yHv4uD+T5Hx3lBIRHLSWw+rr5BekJ7TcrkACAMXkF5s4flo3mwqCHm/S7gYAbCdOvnPNa+NgACibhoBiUjumgw8BFwK5OycX64WAHWkV1d+l9zNsVcujnw1LkYAOjzvNZf3cDECEHVzJLCI5DZDerH6XwHvi7p8kIufRBOAJ3j3totBJeziCc/BEcC2fUj3sAiEcfC9dfLzISKDxSLS97Sc696ZawXALNJv1JSgE/Ei7qDznm1q8Rwjta3Jcwx5N+vgexsfvNuGRSQzU4F/kb7H5YxcKgAmAn8jR7f2DUSP9f4Bn3xtpfcYr6tTrGsubt0uCkQRGXRGkZ7a3iPoRN6SKwXASNLzJDnRyc8rFwVA/OmXsG2ZD+En31hDat0mz3nIu7m4dWsEQCRv1QL3AiOCTgRyowAoBO5mkK30353WpIPmOz1xYr/7U8Zf3n3NLd5zkPdJpryXAJ0pb4cJicigNhm4C/DeMMajXCgAfgrsE3QSLjUnepzE6b7pLpJLlg/46+J/e4L4P/7tJAd5t4SD0Z2WVNxBJiIyiC0EfhR0EkEXAKcAXwo4B+eakm4KAHp66DjnBySXr+73lySefJHOCy7VEcA+cTEC0JZSe2YR4SvAyUEmEGQBUEW6r/+Q2xO1PR5zFivVuIP2T51H7I/3QbL3oWPb1U33NTfT/uULsF1qAOSXZEojACLihAGuAiqDSiDIpuQ/IFsLIYyBwjIoLO27k0s8Bh07PF1uXY/bBjy2s5uuH11F7MY7iR5xIJG9ZhIaWQvJJKnN20k89SI9Dz3hZOug7F4s6X0EYEvSQYFWWgVlw7zHEcknFkjGe3+YshZiHRBrz9Yo6kjgItINg7IuqKfvvYCnSbf7dS8cwUxcgJmwD4yegakeC/08oMdufo3UDd5mJUpCYTbOOcZTDMlNr+1oo73H2xD+V5pe4dWeVk8xzKd/iTnyM55iiOQlazErX4fW3TwwJWLYHRtg46vYVc9gVz0D/k3dJYH5wEt+XaA3QY0AnI8fN//y4YTmnoiZdzwUZzaqYqq8tyHoTCXZnohRGyn0HEtyS0/S+xSAkxGAkRO8xxDJR8ZgG6ZgXn8FYr38LkYKMXWToG4SZt6J0LkT+8LdpJ69A7rbXGcUJt32/hTXgfsSxBqAPYETnUY0BnPkZwhd+jLmkE9kfPMHoLgiPV3g0Wvd7Z5jSG6x1hL3OAXQnko4WSRqRkz0HEMkb0XC0DCp/4d7lFRiDjid8OdvwMw9Dh8Gz08GZroO2pcgCoCv4/LdKxuGOe82zKd/CaWV2ALvT92mqt5zjKVd3oZ4Jfd0JVNYj62AVic6vScSjkLNWO9xRPKYLS2H2rqBfVFROaGjzib0we85eVB8BwP8j8uA/ZHtAqAK+KCzaNWjCF3wV8xeR7/9R6a4xHvcYd6nAZZ2OR8mkoB1J7w38FmdcHBAU80YCAe5fldkaLD14yA68NN6zeT9CH3sl1A23GU6HyJ9j8yabBcAHwaKnEQqH07o2/fA2Onv+mNbXOo9toN1AC90akX+UNOV8D7/vzzufWrI1E/2HENEgHAYW5fZiK+pbSD8kZ+mp43dKCJdBGRNtguA051ECYUx59wEo99/poIp8T4CYEZ6P4xwaXcb7S5aAkvO6PC4+h/g1R4HI0MT5nqPISJptSMhkuGI2vBxhE76Dhhnt1I398h+ymYBUAXs5yKQOfmrmBkH7fK/2eJ+7PXvK/5I74c1Ja3lmc5mz3Ekd3R6nAJoScXZmHDQI2LiPO8xRCQtFILhtRl/uRk/D7PwNFfZHEAWGwNlswA4BBdb/0ZMwHzg3N7/eyiE9boOoHIklHj/Hvy73VtDIckd3ckUCY9dAF/paXVymqCZtJeDKCLytmE1nr48dMDH0/cN78LAwS4C9Uc2C4BDXQQxp5wHBcW7/ztl3udkXIwCPNy63XMMyQ1tPd7b9z4TczAiVDUCho/xHkdE3mZLSqHIw/K0SCGh/T7qKp3FrgL1JZsFgPcT/yrrMAf2PdRiy8s9X4qRUz2HeKFzJ42OTgaUYLXFvM//P+ugADAT9fQv4otyb6O+ZtaRUOJkEf8CF0H6I5sFgOc7qjng1P619C2r9L4OYLT3ngwpLH9v3eY5jgSvzeMCwFXxDra7OCVy6kLvMUTkfWyZx2nfcAQz3cnDu/enz37KVgFQC1R7jjK/n/31w+H0kI4HZtxscNDK9+6WLZ5jSLA64gniHuf/H+9ucpKLmXO4kzgi8h4udpBNclKg1wBOGwz0JlsFwCTPEcIRzB4DeHMrPZ6UFinEjPE+CvD31m20ajvgoNbS7X3+/9HuRu+JVNZCw2zvcUTk/QoKPW/nM2NmudoS6P2e2Q/ZKgC8L6mvHdfn4r93MpXeBxxMw96eY8Rsivt2ahRgMGuOeSsAVsU7WO9g+5/Z81CX+41F5J2MgYL+nRrbq2gRVDo55T4rHQGz9WnieVWeGWDvc1tc7G1VJ8CE+d6+/k03N613EkeyryuR9NwC+MEuR+tA5hzmJo6I7JINe9+pbiqcFAAOVrL3LVsFgPdTE4oyeD887u00dROd9Hp+or2JlTEHPeAl65q7vS3ci9sUD7koAEwIM1sFgIivQg5uiYUOzqMZYgWAx3EVIDLwAxtsdebdndIMZqr3ngwWuLFpnec4kn1e5/+f6N5Ba8rBGpDp+6d7AIiIb4yLKbbwwO9Vu+D9ntkPQ3tCsbAQW+Jt8MHMcNK/iBsa19GZ8n6anGRPVzzpuf3vnzs3OcnFHPBhJ3FERN4ytAsAgBpvowBm1HQYNtpzGs3JOLfs0FqAwWRbZ8zT1y/paWWpi8N/wlHMwpO9xxEReYehXwBU14DHhR1m2iFOUrly22pSTrrBi9+S1tLU7a0AuL3D0dP/7EOh3PuuFhGRdxr6BUAoDB7XApjpbqYBVsU6uKPZzU1B/LW9s4eUh1ptVbyDfzlq/sP+WT0iXETyxNAvAABbOxLIvDWwqW1ITwU48KPNy0lYjQLkMotle1e3pxg3tK93M9ZTWoVZeKKLSCIi75IXBQBFRVDlrTOgme9mDnZlrIM/7NjgJJb4ozWWIJbIvPXvG/F2Z0//ZvEZUOitrbWIyK7kRwEAMGKUpy83Uw+BUjfzsD/Y/Lp2BOSwLR3env6vaV3j5unfhDBHftZFJBGR98mbAsCWlnk77jEcwcw51kkum+PdXLp1pZNY4lZrLOHp5L/Hupt4qWenk1zM/GNgxAQnsURE3itvCgAARo/1shSA0NzjIRRxkspl21ayocd7f3hxa0N7Z8Zf22NTXNu6xl0yR33OXSwRkffIqwLAlpSBl0OCymtcnfdMdyrJV9e/4iSWuLGjq4fOeOZTMze1r2dL0tv0wdsaZqcP/xER8UleFQAA1I9Nn/qUodABH09vLXTgr63b+FPzRiexxBtrYZOHuf/ViU5ua3f3vTSnftPTz6mISF/yrgCwxcVQU5d5gGGjMTPcHcryjQ1LaUx4O3BGvGvs6sn41L8Elkta3iDhqslTwxzM/OPcxBIR6UXeFQAAtn4sRDKfy3c5CrA9EePMtS+qP2CAEtaysSPzuf8b29axPN7uLB89/YtINuRlAUAkgh01NvOvrxqFmXmEs3Qeat3GdY1rncWTgdnQ2kUimVkJtqSnlVsdDv0zYS5mvpvdJiIiu5OfBQBATR22LPMjl0MHngHRQmfpfGvjUpZ0tTqLJ/3T2pOgsSuznv87U3Eublnu9HwH87GL9PQvIlmRvwUABsZPglCGb0FFHaGFH3GWTXcqyUdXPcMOrQfImpS1rG3tyOxrsfywZTnbk94ODHons+BEzJ5udpmIiPTFzab2waqwCFs/FrMxs+F3s/A0eOVB2LnFSTrre7r4wtoXuXXSPoS8NCyQftnY3pVxy9//bVvLc7EWd8kUFGPO+KG7eOLdpjewL/4NXv8XdsPr0LwZOlvBZt4m2qloIRSXQ10DZuwMmHEQZt5ROjlS+i2/CwCAupHY1mZMWwbD75ECQoedSeqO7zpL52+t2/j2xqVcPHqms5jyfh3xBNs6M3t6f7BzG39wOe8PmJPOhtrxTmNKBlJJ7L/vwN53Bax4Nuhsdi8eS79aG7ErnoV/3ICNFGDmH4M58SsweZ+gM5Qcl8dTAG8yBhomZ7wrwEw5ADNhb6cpXbVtNb/evsZpTPl/CWtZ1dJBJocyPh9r4Zc7V7hNqHY85sSz3caUgVv2T1Ln7ou97JO5f/PvTaIH+9RdpL61GPuzj0KTDh6T3qkAAIgWYMdPyrhNcOior0BBidOUvrnxVf7cstlpTEkf9buqpZ1YcuDDuG/E2/le82vu9vsDGIP53OVQUOwupgxMMoG95bukLjwaNiwLOhtn7NN3kzp3Ifbpu4NORXKUCoC3VA6DugxP4gnNywAAIABJREFUDKwcSWjx552mk7SWz615ngd2bnUaN99tbo/RGhv4YT8bEl18a8dSOqzbUxzNEZ/BzFbL38DEY9hL/xP755+R0ZBQruvYif35x7C3XRx0JpKDVAC8gx09FiqqMvpaM/dYzES3c25xa/nEmud4pK3Radx81dqTYHPHwA9g2pjo4ms7ltCcirtNaMQEzMe+7zam9F8yjv3ZR7FP3RV0Jv6yFnv7xdi7fxl0JpJjVAC8i8E2TIbCTPb3G0LHfA2KMu8tsCuxVIqPrHyaex3tNMhXsWSSVc3tA37IW5fo4qs7ltCUdLw904QIfeEqKCp1G1f6zV53LvaFB4NOI2vszd/RdIC8iwqA94pEsJNnQDQ68K8tG07oiC87TylmU3xy9XPc2bzJeex8kEhZ3mjuIDHAu//yeDtnN73s/uYPmBPOghkHOo8r/WOf/DP2b78JOo3sshZ79ZlaGChvUwGwK4WFMGlqRv3+zYxDMXud5DyluLV8es3z/Gjzcuexh7KUtbzR3D7gg36ei7VwbtMSWlMDXy/Qpz0WYk47331c6Z+uNuz15wadRTA6dmKvPy/oLCRHqADohS0pw06YlFFb1tBhZ2LGzHKfE/DjLcv5yrqXB/w0m49SWFa2dNARH9hN/P7OrXxrx1I6HS/4A6BqBKFzboJIgfvY0i/2vivSTX3ylH36blj+ZNBpSA5QAbA7ldXYhikDLwJCEUInnw9l/nTk+l3TOj6w4km2J9y1oR1qrIU1LR3sjPV/4V7cpriydRU/37mCpB/nM4ajhM6+EYbVu48t/ROPYe+/KugsAmfvuTzoFCQHqADoy7Bq7PiJDLhJQGk1oRO+6ezY4Pd6or2Jw1//Jy917vQl/mBmSff439Hd/5v/9mQP5zQt4c4O/54MzRk/gmn7+xZf+mafux/amoJOI3B6HwRUAPRPdS22YeKARwLMuLmEjvxvn5KCdT2dHPXGP/nl1pVOT6QbzKyFtTu7aOzq/8K9Z2MtfKnxJV6Lt/mWlzn805ij3faKkAw8e0/QGeSGRE/6nAPJayoA+qu6FjtxDzADe8vMnGMxB5zuU1LpbYIXblrGh1c+zbZ4fk8JpCy80dLe7+N9YzbFpTtX8o0dr7Ij5d8pjGbBiZhP/9y3+NJ/dtk/g04hdyx9IugMJGAqAAaichh28lQID+xtCx14Bmb2MT4llfb31u0sWPYI1zeuy8uxgEQqxfLmVlr7Oef/Sk8rZza+yD2dPvdXmLwP5ku/8W0qSAagqw0a1wedRc6w65cGnYIETAXAQJVXwtRZA2wWZAgd9RXMpIW+pQWwMxnn7PUvc8qKJ1kVy+yc+8EonkrxenM77T19r9rfmYpzyc43+GrTK6xPDLwr4ICMnkroG3dAodtzIiRD29YEnUFu0fuR91QAZMAWlWD3mIUtLev/F4XChE76DmbcXP8Se9MjbY3sv+xRLti0jLakD/vYc0hHPMHSxja64ru/+Sew3NmxiU9sf54HO7f5P0oyciKhb90NZcP8vpL0V5d/azwGpc4MjkCXISWzM3Al3Slwjxmwfi009vPAnmgRoQ/9gNQd38Gued7X9GI2xaVbV3JL0wbOHTmFM2rGUTDA9Qu5bntnD+tbO3e7ANICT3Q3cV3bWv+f+N8yagqh79wL1RkeLiW+sA7WyOwxbTrX3nCTg2y8aWtt4/jDF3kLEu92kosMXioAvDAh7LgJUFaGWbcGUv1oHBMtJPTBi0jd8V3sav/PHN+WiHHuhiVcum0lXxs5hY9WjyWaQXOjXJJMWda0dtC8m21+FniqewfXt69jZTyL0yGjp6Zv/sNGZu+akjXhcJiKisqg0xBxYmg9EgalujY9GlDUzzPdI4WEPvh9zOTs7Qnf0NPFV9a9zKxXH+JHm5fTnHR8sl2WdCeSLNvR1uvNP2Etf+vaxue2v8B3mpdl+ea/h27+IjJoqABwxJaUYqftCXUj+9czKJzuFmhmHeF7bu+0LR7jx1uWM3vJ3zl3wxJe6Roc84DWwpaOGK82te2yr//WZIzfta3j49uf5Sctb7Am0ZndBKftR+jCh3TzF5FBQ1MALoVC2DENUDkMs241xPqYYwtHCB13HraqntQTN0IWN/C1pxL8ZvsafrN9DXuVVPGR6jGcVFVPXTSTo5D91ZlIsHZnJx3vWejXaZP8u3sHD3Vt47lYS2DbH80Bp2LOvBpy8L0TEemNCgA/lFdip8/GbN0EWzaBTe3mLxvMAWcQqhpF6v6fQQBD8893tvB8Zwvf2Pgq+5dWc2JVPYdX1NEQ8PY1ay2bO2Jsae9+e6FfSyrOs7FmnujewTOxZnp2+976z3zg3PTJfoN8XYWI5B8VAH4JhbD1YzBV1bBhDbTtfqjdzDycUEUdqTsvhK5g+vsnreXx9iYeb0/3CJ9cWMphFXXsV1bNvqXVjMjiE+7OnjjrWjtp6ulhabyNJT2tPBdr4Y14e240OooWYj79C8ziM4LOREQkIyoAfGaLS2DKDGjbCevXYLp734pmxs4m/ImrSd39fezGV7OXZC9WxDpYsX0112xfDcD4ghLmllQyo7icGUUVTC0uY1xBCYUOthcmrGVjvItXO1p5cucOlna3sTLewdpEZ27c8N+proHQ2TfAxL2CzkREJGMqALKlvBKmz8Y2bcNs2QQ9vexJrqgl9NGfkXr0f7FP30Y21wX0ZW1PJ2t7Ormr5f9PzDPAiGgR4wtKGB4poDoSZXikgKpw+rz7slCYiAlhsex8sylReyrBjkQPTYkeGhMxNvR0syneRcLmzr+1N2bBiZgvXAWl2gomIoObCoBsMgZqRmCH10Ljdsy2TRDbRSEQihBa/DnsuNmk7vkxdOduBzMLbIl3s2WoNxUJRzCnnY858WzN94vIkKBtgEEwIagdgZ05Fztpaq8thc2kfQl/8te+nyEgfRi/J6GLH8WcdI5u/iIyZGgEIFAGKoelXx1t0LgNmne8u6NgRS2hD/0A+9qjpP56WWALBPNSOIo5/suYD38bIgVBZyMi4pQKgBxhS8uhtBzGNsCORtjRiGlv5601AGbaIYTHzib10K+wrz0aaK55oWE2oTOvgoY5QWciIuILFQC5JhSGmhHptQLxHmjZAS07MO1tUDqM0Enfwc48jNQ/fg07NgSd7dBTPhxz6rcwR3w6/b0QERmiVADksmgB1I6E2pHYZBLadmJad2IKFxOeuAD78oOkHv9f6NS0gGfhKObIz2BO/bZW+ItIXlABMFiEw1BVja2qTv//RBwmzyB80IdJ/fVq7D9vDqSL4FBg9joG84mfwIgJQaciIpI1KgAGq0j07YLATLkC8+GvY/9yKfYfv4OeIb4lzwVjMPOOxnzw6zB576CzERHJOm0DHCpqx2E+9TNCv1qG+dA3oaQi6Ixykwlh9v0AoUuewXz9Nt38RSRvqQAYaiprMad+k9BlSzDzjgo6m9wyagqhS1/CnH0jjJkWdDYiIoFSATBUlVfDuJlBZ5FTzPAxmucXEXmTCgAREZE8pAJAREQkD6kAEBERyUMqAGS3TI4cfpMreYiIDBXqAyC7dfTRR7No0SI2bNjw9mvbtm00NjbS0dHh/HqFhYXU1NRQV1fHqFGjGDt2LKNHj2bDhg1cc801zq8nIpKvVADIbhljqK2tpba2lnnz5r3rv3V1ddHY2EhLSwvt7e1vvzo6OkgmkySTSWKx2Nt/PxqNEo1GMcZQVlZGaWkpZWVllJWVUVFRQU1NDeXl5bvMY9OmTb7+OyUATRtg6xpsVyvEY33/fa/Wver/NQYZ++Sd2blQURmmtBLqp0DZsOxcU/qkAkAyVlxczNixYxk7dmzQqchgEOvAPnUXPP0X7NLHoaMl6Izynv3F6dm71lv/o64BM2sRHPAhzMyDwWgmOigqAETEXx0t6TbVD14Dna1BZyNB27YG+/D18PD12PpJmJO/hjn4ozp9MwAqvUTEN/aft5E6ex72zp/q5i/vt3kl9qozSX1rEaxbEnQ2eUcFgIi4l4xjr/kS9rJPws7tQWcjuW7VC6S+uQj7yI1BZ5JXNAUgIm7Fu7GXfBT74l+DzkQGk3g39qozoXkL5gPnBp1NXtAIgIi4k0pif/kJ3fwlY/bWC7EPXB10GnlBBYCIOGNvuxj77D1BpyGDnL3+POySR4JOY8hTASAibix/Kr3YT8Qrm8Je+Xnoag86kyFNBYCIeGctqd+eAzYVdCa+KiwsDDoFAAoLciMPXzVtxN7x46CzGNJUAIiIZ/bZe2DNS0Gn4bu6ESOCTgGAwqIiKioqg07Dd/bBX0NrY9BpDFkqAETEu/uvCjqDrJg9d17ffylL9pw7N+gU/BfrSDcNEl+oABARbxrXY5c+EXQWvotEIhx6xJFBp/G2I485NugUssI+fmvQKQxZKgBExBP78sNDfu4f4AOnnkb9qNFBp/G24048mfENE4JOw38bXksfHCXOqQAQEW+WPxV0Br6bMGkSZ53ztaDTeJdwOMwPfvozCouKgk7Fd/b1J4NOYUhSASAintiNrwedgq8mTZ7Cr379W8p6Oao6SDP3nM3PLruC0rKyoFPx18blQWcwJKkAEBFvmrcEnYEvotEoH//EJ/ndH25n1OgxQafTqwMOPoSbbruDAw9ZFHQq/mneHHQGQ5LOAhARb7q9N2uZu9f8nBjKLigooKa2lll7zuGQww5j+PCaoFPql4YJE7n8mt+wcsUbPPrw31m1cgU7GhtJWRt0amzbuoXVK1d6C9LV5iYZeRcVACLiTSrpOcRFP76EMWPHOkgmv02aPIVJk6cEnca7/OmPt/L987/tLYiDnzF5P00BiIiI5CEVACIiInlIBYCIiEgeUgEgIiKSh1QAiIiI5CEVACIiInlIBYCIiEgeUgEgIiKSh1QAiIiI5CEVACIiInlIBYCIiEgeUgEgIiKSh1QAiIiI5CEVACIiInlIBYCIiEgeUgEgIiKSh1QAiIiI5CEVACIiInlIBYCIiEgeUgEgIiKSh1QAiIiI5CEVACIiInlIBYCIiEgeUgEgIiKSh1QAiIiI5CEVACIiInlIBYCIiEgeUgEgIiKSh1QAiIiI5CEVACIiInlIBYCIiEgeUgEgIiKShyJBJyAisnXL5qBTAKCgoIDhNTWEw+GgU/Ek1t1NU1MjqZQNOhVampuDTkF6oQJARLwpKIIObyE+c/pH3eTigDGGaTNmcsRRR/Phj51OaWlp0Cn1y/p1a7n5ht/xyN8fYsvmTUGn41ZBUdAZDEmaAhARb0oqgs7AKWsty15dwmU/v4QTjljMo/94OOiUdiuVSnHlZb/klGOP4tabbhh6N3+AksqgMxiSVACIiCembkLQKfimeccOzvniF7jztj8GncouWWv55rnncO2VvyKRSASdjn9GDN2fsSCpABARb8bNDDoDX6VSKS6+8HxefP65oFN5n2uv/BUP3ntP0Gn4b9ysoDMYklQAiIg3Mw4KOgPfJRIJfvz9C0mlUkGn8rYtmzfx219fHXQa/osWYfZYEHQWQ5IKABHxxMw8CEqrgk7Dd68tXcpzzzwddBpv++MtN9MTiwWdhu/MnMOhoDjoNIYkFQAi4k20CHPgh4POIise+8ffg07hbY/n+OJEZxZ/POgMhiwVACLimTn+LAgP/V3Fa9esCToFIL34b93aNUGn4b/RUzHzjw06iyFLBYCIeFfXgDniM0Fn4bsdTU1BpwBAR3s7PT09QafhO/PxH4DRbcovemdFxAlz2vlQMzboNHyVK4sAUzY38vCT2fcDmL2ODjqNIU0FgIi4UVJB6L+vh0hB0JnIYDdyIubzVwSdxZCnAkBE3NljIeaL12rYVjJXWUvof+4cch0mc5F+S0XEKbP/BzHn3ARR9W+XARpWT+jb90D9pKAzyQsqAETEObPgREIXPgh1DUGnIoOEmXkwoR8+PuQ7S+YSFQAi4o9J8wn9+F+Yo7+QF1sEJUPl1ZjPXob5zj0wbGTQ2eQV/VaKiH9KKjCfvARz3Jew91yGfeKP0NESdFaSC+onYQ79ZHr7aHFZ0NnkJRUAIuK/ugbMp36OOf2H2KWPw9InYN0S7NZV0NkGPV3+55CMQ3eH/9cZTLLVwrm4HMqGYeonw8R5mFmLYOK87FxbeqUCQESyJ1qY7u0+53AATBYvbV/5B/b7J2Txirkv9L8bgk5BAqQ1ACIiInlIBYCIiEgeUgEgIiKSh1QAiIiI5CEVACIiInlIBYCIiEgeUgEgIiKSh1QAiIiI5CEVACIiInlIBYCIiEgeUgEgIiKSh1QAiIiI5CEVACIiInlIBYCIiEgeUgEwFFmLffnv2Bf/FnQmOcWuX4p97Jb0ufAiInlOBcBQkujBPnYzqfP2xf7gJFj7StAZ5ZaWrdgrPkvqv6Zhb7sY2puDzkhEJDCRoBMQB2Kd2Ad/jb3vV9C8Jehscl/LVuztF2PvuRRz2CcxJ30VKmuDzkpEJKtUAAxmyTj2Hzdib/8hNG8OOpvBp7sDe++vsA9dhzn68+lCoLQy6KxERLJCUwCDkbXYf95G6pz52GvP0s3fq1gH9q6fk/rvPbF/uRTi3UFnJCLiOxUAg82mN7DfPwF72Sdhy6qgsxla2nZgb/oWqa/ug33xr0FnIyLiKxUAg0WsE3vbxaTOXYhd8kjQ2QxtW1djf3gK9senQuP6oLMREfGFCoBBwD7/AKmz52FvvxgSPUGnkzfs8/eT+to+2AeuBmuDTkdExCkVALks3o29/lzsT06Fpo1BZ5Ofutqx130N+4MTYcemoLMREXFGBUCuWvcqqW8egr3/Kj195gD7yj/SowH/uj3oVEREnNA2wBxk77sS+/tva7g/13TsxF76CVj2BOY/fwKRgqAzkoEw3p93mhq3c9211zhIxptYLOY9iDHeY8igpgIgl8Rj2N98BfvIjUFnIrth//ob7JpXCH31ZqgaEXQ60k+msBivY2nbtm7lsp/91Ek+gSsqCzoDCZimAHJF82ZSFxytm/9gsfwpUt84CFY8G3Qm0l/lNUFnkFsq9H7kOxUAuWDVC6T+50BY8UzQmchA7NhE6sJjsE/dFXQm0h+14zRt8w6mfnLQKUjAVAAEbdk/SV10HLRsDToTyURPF/aXZ2D/fl3QmUhfwhFomB10Frlj8t5BZyABUwEQIPv8/aQuPhk6W4NORbxIJbHXnoW9+xdBZyJ9MHsuDjqFnGFmLQo6BQmYCoCA2Cf+iL3kP6CnK+hUxAVrsb//DvaWC4LORHbDHPDhoFPIDdWjYOq+QWchAVMBEAD77L3YKz8HyUTQqYhj9s+XYO/4cdBpSG/GTodp+wWdReDMYZ+EUDjoNCRgKgCyzC55FPvL/9TNfwizf7gIe8/lQachvTCnfD3oFIJVWok55sygs5AcoAIgm1Y8g/3ph30/btaYEA2TJjOuYaKv1xlsqmtqmTZrNpFI1Pdr2Zu+hX3sFt+vIwNn5hyOmX9s0GkExnz4fCitCjoNyQEqALJl2xpSP/oQdHf4epnR48Zz5Aknsfd+B1JcWurrtQabSDTKrLl7cczJH2TytOkYB53hemVT2KvPxL76mH/XkIyZT/8CyocHnUb2zTgIc+Rngs5CcoQKgGzo6SL1i9Ohrcm3S5SVl3Pg4sPZ7+DFlFdU+nadoaCwqIi5ey/k8GNPYHhtnX8XSiawP/8YbF3t3zUkM8NHY876Xwj7PxqUM2rGEjrrOs39y9tUAPjNWuyVn4dVL/h2iSnTZ3LE8SczcvQY364xFFUOG8bio45l7j4LCYd9+lBsbyb1s49CzN+RHxk4M/swzJlX5ccNsbKO0DfuhGEjg85EcogKAJ/Zu3+B/fcdvsQuLinh4MOOZM78ffy7geWByVOnc9ixJ1BVXe3PBda+gr1Ki65ykTnoI5hzboLCITxdVj+J0PcegjHTgs5EcowKAD+tegH7h4t8CT28to7DjjmBuvpRvsTPNxWVVRx61HE0TPKnPar99x3Yh3/nS2zxxuxzAqGLH4XxewadinPmwNMI/fAJGKkFwfJ+KgD8EuskdfmnIBl3HnrC5CkccsTRFBUXO4+dz0LhMHvvdyCz99ob48NRqfaGr2s9QK4aM43QDx/HfOKnUOnjupBsmTAX8+2/YL78WyguDzobyVEqAHxib/ombHrDedypM/dk/r4HEArpW+eXPWbMYr+DFxNyPa3S1U7qis9CKuk2rrgRjmCOOZPQr17FnHkVZubB6fMDBovicsyBp2G+dXe6mFHbY+nDIPrpHjzsyw9j//Zb53Hn7L2AKdNmOI8r7zdq7Dj2P+RQ/v3owySTDm/Yrz+Jve8KzPFnuYspbhUUYxadDotOx3R3YN94Ol3MN22ArlZIpYLOMC1SACWVUDceM24mNMwZXAWLBE4/La4l49jrvwbWOg2751576+afZSNHjWb/RYfxz0f+TsphEWBv+wHmgFNhWL2zmOKTotL0k7SepmUI0jiyY/a+K2HjcqcxZ+w5h6kzZjmNKf0zon4UCw88xG3ToO4O7M3nu4snIpIBFQAu7dzm/CCY8RMnMWPOPKcxZWBGjx3H7Pluz063j98Kr/3LaUwRkYFQAeCQvfV70NnqLN7w2jrmL9zfWTzJ3JRpM5gweYq7gNaSuuEbzqeKRET6SwWAK9vXYh/9vbNwRcXF7HeIDyvRJWPzFuxH9fAadwFXPod98a/u4omIDIAKAEfsn3/udM///H0PoKhI+/xzSSgUYuFBhxCNuusfb//kdspIRKS/VAC40LQR++hNzsJNnjadevX1z0mlZeXM2Xuhu4BvPI1d8oi7eCIi/aQCwAF77+UQjzmJVVJaxqy5853EEn80TJrMCJctmO+8xF0sEZF+UgHgVTyGfewWZ+Hm7bOQSETtGXLdvAX7OjuAyb76KGxe6SSWiEh/qQDwyD59N7Q1OYk1asxY6seMdRJL/FVWXsEernozWIt9+Ho3sURE+kkFgFeOPriNMRr6H2SmzpxFYVGRk1j20d/7cnCUiEhvVAB4sXU19tXHnIQaN2EiFVVVTmJJdkQiUabNmu0m2M5t2OfudxNLRKQfVAB4YJ++21kjl6kzHd1IJKsmTpnqbrvmU3e5iSMi0g8qADywz93nJM6oMeOoqKx0EkuyKxwOM3HKHk5i2Rf/CsmEk1giIn1RAZCp9mZY/pSTUFOm65S/wWzi1GluOjY6/JkSEemLCoAM2RcedPK0VlZeQe2IkQ4ykqAUFRU7a9zkalRJRKQvKgAytfRxJ2HGT5zkJI5frA6r6ZeGSZOdxHG1qFREpC8qADJkVzzrJM64Cf4VAGEHDYV6enocZOKdizwiYf8aLI0cNdrNlsC1S6Cny3scEZE+qADIRHcHbHjNc5jKYcMoLStzkNCuRR0UAB0dHQ4y8a69vd1zjIjDQ3zey5gQI0eN9h4oGYc1L3mPIyLSBxUAGbArn4NU0nOcUaP97frn4oa3detWB5l45yIPl6f47Uq9o++nXfGckzgiIrujAiATq908oY1w8cS4G4WF3oekN23aRCIR/Na0tWvXeo7hqmtfb0bUj8IY4z3Q6he9xxAR6YMKgExsW+05RCgUYtjwGgfJ9K7cQW+BWCzGqlWrHGSTuc7OTicFQHlFhYNsehctKHDSzdFuCfb9FpH8oAIgE9u834yqqoc7O02uN6Vl5YRC3r/FzzzzjINsMvfcc8+RSqU8xymv8L/V8vDaOu9Btq/zHkNEpA8qADJgt3svAKp9fvqH9ChDWXm55zhPPvkksVjMQUaZeewx71vjjDGU+TwCAI6+ry1bIN7tPY6IyG6oABgoa508obkYnu+PmjrvTYY6Ojp45JFHvCeTgWXLlrFy5UrPcYZVDyfiYFdEX5yMMlgL29d7jyMishsqAAaqpwtinZ7DVFRm5+S/2pFuugzec889tLa2OonVX6lUij/84Q9OYtWNrHcSpy/llY5GGdqb3MQREemFCoCBctSkpbTM+9B8f9SNqHeyMr2jo4ObbrrJQUb9d//997NunZv58NosFQAFBYUUFBR6jmO7vReZIiK7owJgoBw8/YP/W9LeeZ2auhFOYj377LM89NBDTmL15bXXXuPOO+90EquwsCir5y0UFTs4HjiWGw2YRGToUgEwUA4KgGg06vsOgHdyed7Arbfe6vuugHXr1nH55Zc7WfkPMKahwcluiP5yUtw5KjRFRHqjAmCgHKzOjjoYIh6I0eManBUcqVSKa665hscfd3MY0nu9/vrr/OQnP6Gry10//PE+nrewKwUFBd6D9GgXgIj4SwXAQIW9f7hbR0+2/RWNRhnv6LQ6SBcB1113HTfccIOzw4KstTzwwANccskldHa6e/qtrqmluqbWWbz+SKUcnKAYcVBEiIjshv/7ooaaAu/Du8mk93MEBmrqjD1Zs+INZ8PqAI888ghLlizhtNNOY6+99sp4seGKFSu45ZZbWL3ae4fF95o+a7bzmH1JJh20TnbwcyYisjsqAAYq6n34Ph7vwVrrpm98P5WWlTG2YSJrV61wGrexsZErrriCMWPGsHjxYhYsWEBpaWmfX9fT08OLL77Io48+yrJly5zm9JaqYdXUj/H3wKVd6XHRNEkFgIj4TAXAQJUN8xzCWkusu9vNavEBmDlnHhvXrfHlcJ8NGzZw44038vvf/56GhgYmTpxIfX095eXllJSU0N3dTUdHB1u2bGHt2rWsWLHC2fRBb2bvtbev8XvT3e19/YIpq3aQySCVSsLObel1EF1tkOjBdrVhCorTBXhxBUQiUFkHBdn9Hcp7HTuhfQfEY9DThe1uh1QKU1KR/t4UFENJBZQPDzpT6QcVAAP11g94p7emOJ0d7VkvAEpKS5m+5xxeecG/42ZTqRSrVq0K/AChseMnUFc/KuvXTSaTxLodLOCrdHCmQK7raseufgFWPg/rl2K3r4PG9dC0EZLx9/31Xa6sqKyD2nGYmrFQPxkmzsNMmg92TEMaAAAgAElEQVTD/T1pc0hLJWHjcuyq52HNS7BlNbZxXboDalfbLr/kfd+bgmKoG4+pGQd142D8bMzk+TB2BoT9PZZb+k8FQCYq6zwXAG2tO7O+OA1gyvSZrF21ktadLVm/drZEowXM3nufQK7d3roTax0sAqwaggVArBP76qPw/IPYpY/DpjfAelyTsnMb7NyGXfHs239kAapGYPZYCPOOxMw7CoZlpxHUoLX2FewLD2JfeghWvQDdHvtQ9HTBhtewG157+48sQLQIJszB7LkYs9dRMGk+GK1FD4oKgAyY2nHYzd7m0ltbgrkBh0IhFh54CA8/cE8gixGzYf6++1NcXBLItXe6KKwqaqCw73UUg0KsE/vUn+Gft6dv+o46afapZSv26bvh6buxxqSfQBecgFn0cRg+Jjs55LoVz2AfvRn73P3QtCE714x3w/KnsMufwv7pR1BRg9nraDjoPzAzD4YsrosSFQCZqZ8MLz/sKURT43ZHyQxc5bBhzNl7Ic8/9a/AcvDLpD2mMWZ8Q2DX37Hdwfd11B7eYwRt5XPYh3+H/edtvQ4bZ421sOYl7JqXsLddjJl9KCw+A7PghPwbjm5rSt/0/3EDbPBn8e2AtDZiH7kJHrkJW9eAWfRxzOIzoDr703f5SAVAJkZN9RyiuamRVCqV1Q517zRxyh7saNzOmpVvBHJ9PwyvrWX2/GCG/t/iorAzo6Y4yCQgr/0be9fPsc/fH3Qmu2ZT6WHulx7C1ozFHPdlzOGfHPqLCVsbsQ/+Gnvv5cEXZL3Ztgb7x+9j//RjzAEfwpzy9fTDlvhGky+ZGDfDc4hkMsn2rVscJJO5+fvuR/3o7G+T80NFZSUHLDo8qy2W36u7q4uWHQ5O8Rs703uMbFv6BKnzDyf13SNy9+b/Xo3rsb87j9R/z8E+cA246N+Qa9qasNd9jdQXp2Nvvzh3b/7vlIxjH7uF1Ff3xl7xufTCUPGFCoAMmAnzIOT9RrNx3RrvyXhgTIh9DzqE4bWDe8FZSUkpBx56JAWF2W2x/F4b1691sgDQTJ7vIJssad6CveKzpL53DLz+ZNDZZGbHJux1XyX1tX2wHqf2coZNYR+7mdQ587EPXJ29tRcuJRPpf8PZe2Fvu9hJG3Z5NxUAmSgugzHTPIfZuG4d1usqaI/CkQgHHXYkI0cNzm1T5RWVLDrqWEr60XzIbxvXrfUeJByFhux3Lxwwa7H3XUnq7LnYx25Jz7MPdpvewF58EvZXn4GOQbxLZs3LpL5xcPrpubUx6Gy86+nC3n4xqXMXpheSijMqADJkpu7nOUYs1k3jtm0OsvEmEomw/6LDGNcwMehUBqS6ppbFOXLzj3V3s33rVu+BJszN/fno1kbsT07F/u486GoPOhu3rMU+fiupc/eFZf8MOpsBs4/dTOr8w2H1i0Gn4t7mldjvHYu9/txd9omQgVMBkKnZhzoJs251sA1z3hIKhVhw4MHsOW8+ZhDsy50weQ8OOeLowIf937Jh7Ronozlm7uEOsvGPffUxUufti33+gaBT8VfTBlLfOxZ7+w8Hx+hGRwv2p6eln/qH8lHS1mLvv4rUBUdnb+viEJb7n/Q5yuy52MkWorWrV9Lt8Ohbr6bO3JPFRx9LaVlZ0KnsUiQSZcEBBzN/3/0DXfD3TtZa3nhtqZNYZs5hTuL4wT5yE/YHJ0FzsItXsyaVxN72A+wvPp7bc+jb15L6zmHYZ+8NOpPsWf4UqW8tGpojHVmkAiBTxeWwxwLPYVLJJCsc3TxcqR5ew+HHncjkqdOzemBRX0aPHceRJ5zMuAm5NVWxYd0a2tu8dYYE0v3TJwe7jXGXrMXedjH26jPzcujVPnUXqYuOhzYHOzxcW7eE1PlHwMbXg84k+5q3kLrgqKE/GuUjFQAemP0+6CTOyuWvE4/n1gdrNFrA3H0WctgxJ1BTNyLQXMorKjlw8eHsd8ihOTHf/16vv7rESRyz8CQnu0tcs9efm95CNhiGwv2y/ClS3zsO2puDzuT/vfE0qe8cBjs2BZ1JcLo7sJf8B/bZe4LOZFBSAeCB2fdkJx/Y8XgPK5e/1vdfDEBVdTWLjjyGRUcew4gsH65TOayafQ9axJEnnMzI0bnZvnXrpo1u9v4D7HeKmzgO2T9clN5GJumn7R9+IDcWPq57ldSPPui9Z/9QkIxjf3FGusGTDIgKAC8q6zD/1959x1tV3Xkf/6x9zrmV2+kdBAQsiCiWxF5jwTJOnGhMNMY0E9s40TiZSZs4mqiJJmaSx8c4xiePT2KiiQ1REUWxoAgi0jvCBS7c3k9Zzx9bJ2hULnevc/Yp3/fr5euVYPjt32WTs75n7bXXOvA4J6VWLVtKV1f2Lt4ZOHgIx5x0KqeceQ6TphyQtpMMY7EYY/ebwHGnnM4pZ85i5JixWfUYYk+pVIq3Fr3upljNMMzUY9zUcsQ+eTf24VvDbiO7rH0De9s/QSK9R1l/oh0bSP14VnbNRoQt0Yu942LY41Ao2TttBRzUSV8KfC4AQDwe5603FnLkMccH7ymNqmpqOHjG4Rx06GE0bK9nx/Z6GrbX09S4u9+b4FRWVTNo6FAGDxnG0BEjs2Zx396sXr7M2amK5sQvZtX0v31nPvaBm8JuIyvZZc/DAzdhLrst8xePd5O64/PQ7OCV03zT3UHqpxfi3foyVIf72DJXKAAEZA4/E1sz1MnK6Hc3bWTHhG0Zn2rvD2MMg4cNZ/B7vcbjcdpammltaaG9tYXOzg4S8QSJRJx4by/RWIxoNEY0FqW0tIwBlZVUVFZRWVVNcUlJyD/Nvutob2fFsqVuinkRPwBki6Z67J1f9M+FD1GsxFBS5eFFDJGYv/4w0WtJ9li628LdQMs+9WuYfDQmw49t7L3Xwca3MnrND/MiUFodwYtCrNRgUxDvtKSSlu42SyoR4lqR5h3Yu6/A3PQXHTPcBwoAQUVimJMu898XdmDxwlc55axzcuZb8PtisRi1AwdRO3BQ2K1kxJLXXyWZcLN3vJlxBgzMkjMZbIrUnZdCS+ZOq4wUGQZPijFoUoyaUVGqR0UZMDBCrPSDj356OizxTn/gTyWhqzlJ244kLduSNG9O0LA2Tndr5oKB/c2VmPHTYci4zFxv/oP+KX4ZVDUiypApMerGxqgeFaVySISSau8Dp/amEpaulhTvb4PR3ZaiszFFy9YELVuT7FoXp2VrImNrSO3S5+CR2zDnfzszF8xhCgAOmNO/jn38LicLctrbWln06svM/FR2PQ+Wv1mzcjn1W91tQmJmXe2sVlB23u8ysgNeaZXHmCOKGXNECYP3jxGJ7X2dR3G5gZRHvDuFF4HyugjldRGG7nE2V2t9kq1Le9i6uJfmd9N8uE9XG/a+6zE3/jm91wFob8L+7sa0X8aLwLCDihgzs4RRM4oprd77t2gvaiit9OhsSYGFkgqPkgqP2jF/G156Oy3bl/eydUkP29+Jk4ynNw3Yh2/FHH0BDM2uV4azjQKACxW1mBMvxT55t5NymzesY9CQoYybkMPHwuapxl0NvP2mw4VGU4+BSUe6qxdEexP2/34vrZcYOrWIyaeVMvrwkn4teSiu8KecP24NXuWwCJXDyphyWhlNmxOsf7GbTa/3pG1a2i6eA68/hjn87LTU/5/rPPj9tO5DUFrtMfmUMiaeVEpZzb5PnXsxQ0mF97EzMEVlhtGHFTP6sGJ6Oy0bX+1m3fxuOnal6TFTvAd73z9jvvNIeurnCQUAR8zZV2Of/a2zHcOWvP4qNbV1VNfWOqknwfV0d/PK/OdJpdxNM5t/uMFZraDsH3+UtkFm6NQipl9YzpDJRYFrlVR6dDRabOqTB/Wa0VFmXDyAqWeWsfLpTjYs6E7LsgZ7/w2YQ06FWJq2pd74FnbufWkpXVLpcfB55ex/cimRomBv20SLDbEyQ7zzk+9LUZlh0omlTDy+lE0Lu1n+ZCedje4f3dglz8AbT2AOO9N57XyhVRKu1A7HfObrzsolk0lemT+P3p4eZzWl/1KpFK+99AJdne7euzbTTsYceLyzeoE078A+5/75cmm1x7FXVXH692qcDP4AGENJZd8Hq9Jqj+mfHcDJN9QwcL/g23f/nYbN2Bf/n/u677GP3AauTw01sP8ppZz/8zqmnlEWePB/X1GZ1+eZHePB2CNLOO27NUw5rSwtL8HYR37qvmgeUQBwyJzzz1Dh7ht7R3sb85+dQ29viO8cC9ZaXn/5JXZur3dX1HiYi37grl5AdvavnJ+3PvzgImbdWsf4T7l/yyMSM0RL923Qqhwe4fhrqph2QbnzwcY+9nP3gzTAjg3YhY86LVlS5XHyDdUc9eVKisrdDgHGQHHlvtWMFBkOOLuME/65mgGDHN+YtW/A8pfc1swjCgAulVdhLvhXpyWbmxp5+fm5JBytOJd9t+jVl9my0e2pjeaEL8DYaU5r9ltPB/aZe52WnHZ+OafeVNOnRWT9VVz2wdXofWJg4vGlHHNl1d+9ZRDItjX+egDH7BO/cPo6Zu3YKLNurWPk9PSdohmJGqIl+/5nWzM6yknfrmbw/m5naezjdzmtl08UABwzp13h/ECXXTt38PLzc0kmw30vuxAtXfQ6G9etcVu0oja7vv2/OQc63GxoBHDEZRVMv3AApHkDR+PR70F80KQYx19TRVG5wyZf/IO7WgDJBPZld28YDN4/xme+X9uvRX77qqjMsO/pzL+fn/5GFSOmOXpcBNglT0Nbo7N6+UQBwDXj4V1+u/Nd3XZur+eVF54jkciuQ4PylbWWt95YyOoV7zivbT5/s3/yX7ZY+FdnpaZ/dgBTTi9zVm9vYqWm30GjakSUT3+jiqij59928VNOH6PYFQucLcqsGR3l5Btq3M56fAIvYoj2c5LBi/ghcvAkRzMByQR2UQEdlbwPFADSYfyhmLOucl52+7atzJvzJJ0OF6LJ30smkyx8aT5r0nBMszn4JMxxFzuv22/xHmdT1yMPLWba+Zk9rdF4/Ztufl/tmKg/W+FCV7u/CY0rr/3FSZlYieH4ax3PdvRBUYD74kUNR3650t1sxWvuQm4+UQBIE/PZ78LoA53XbWlqYt7sJ2hu1JRWOvT29DD/2Tls2bTBffHyaszXftWvqdG0Wfemk9Ptigd4HPONyrRP+3+UouJgFx1zRDEjDnH0TPyd+W7qAHb5i07qHH5JBVXDM//GtxczRCL9vzdFZYYZF7kJZ3b5i+lZpJnjFADSJVaM9817IOZ+BXRXVycvPDPb6W50Ai3NTcyd/Ri7G3ampb75yi+hbkRaaveX3ejmPINDLiinuCKcjxMvZgJv+37wuW5eQ7MbHO3T39MJ24KvPakZHWXiiek5ubMvvIAff0OmFDH0AAfrAbo7YLvbhbz5QAEgncYchLksPe+hxuNxFsx7ljdfe9nZnvSFbP2a1Tz31BN0tKfnrHdz+tcwR56bltqBbFgSuERRmQl1kAECP8cvHxhxMwuwaSlONr3fvMzJ6v8DzioL9UwcF+sr9j/Jzd8tZ+EsjygApJk56TLM8Zekrf76NauZO/txWpr0SKA/erq7WTBvbnqD1ITDMJ//cXpqB2S3rgpcY+xRJUQDTsMH5WIjmzFHOAgAHS3QFHy/CBf3JVpsGHtkuCdtRqIm8BOvQRNjlNc5mJ7ZujJ4jTyjAJAB5vI7YPyhaavf2tLMc089wdqVK7CZOnIrD2zbspmnH/8L9Vu3pO8iNUPxrvs/6dsmNqj24KvMnUzRBuQ5eMQ9cELMzcs77U3Ba7QGvy8DJ8RCD2bgL+gLxPghILA0nqWQqxQAMqGoFO+Gh9J65GsymWTJG68x98nH2LVzR9qukw/a21pZMG8uL7/wHD3dbne/+4CiUrzrH4S6kem7RlCdrYFL1IwO/0gRL9K/9873FC0ylA90kABc7KnQlR/3BdyEs6rhWXJf8owCQKZUD/FDQGlFWi/T3NTI80/PZuGC+XR1dab1WrkmkYjz9uJFPP1Ymr/1A3gRzLfudb4plHMdLYFLlIS0+O/DvEjw2a/iAcF/FutioOl0cF8c/CwueAHeBHhfkYufxcHf9XyTHRGxUIw+EO/GP5O6+Vx/lW8abd6wnm1btjBp6gFMmDyFoqIsnYLOgGQyyaZ1a1nx9luZCUXGYK64EzNzVvqvFVQk+vFn6/ZRKpklj52sAYL14uTY4KiD6WoHX5uz5b64eCrp5GeJpOEgqBynAJBpk4/G/MsfsLdeAPH0nvSXSMRZvnQJq5e/w9gJE9h/6kGUlmVul7awJRJxNqxdw+rly+jqzNxsiLnoR5gTL83Y9QIpqwocRrtaUm4WaQVh3QwS3W3B3xU3ZZWBa1BeFbhEV0t2vPfuIlT1tDr4WRz8meYbBYAQmINOgGt+h/35F9IeAsAfCNeuXMGGNasZu99EJkyeSkWlgw+pLNXd1cX6NatYu3IFvb2ZPU7ZXPRDzKxrMnrNQMqrAq9a37U2wcDx4X67Sjoa/J2cS1/u4ETQsuCD1a512bFtuItg1rjJwRs6A2qC18gzCgAhMYedCTf9xZ8J6M7M1r7JZJJ1q1eybvVKamrrGDdxf0aPHUc0lvtTY9ZaGrbXs37tarZt2UwqleFvP8ZgvnAL5owrM3vdgEzVYOy7wV6P2rqkh8mnhrsPQMrBidk7ljsaMKsGBa9RPSRwiaZNCTobU5TVhrgWwIINuJ1BMm5pWOPg3lQ6uC95RgEgRGbqMZgbHyb1089mfIFKU+Numl57maWLFjJi9FjGjN+PgYOH4HnZsXCoL6y1NDfuZvPGDWzesC69K/o/SSSKueIu/4jfXDPmoMDb125d0hP6QJNwMM28foGDvz91I5180zSjDwy4msF/9r7m+a6Mn8+wp2TcBl4D8O7iXuJdDtYAjHG/NXuuUwAI25RP4f1wLqlbzoeGzRm/fCKRYNP6tWxav5ZINErdoMEMGzGSEaPGUFYe3gfHx0kk4jRs30791i3Ub303o8/2P1JxOeaa+zGHnh5uH/019uDAJVJJWPpIO0deHtJjJQvJ3mADRMPqOLvXB/+WacYdErgGAMMnQnFZ4PUZ7zzeyeRTS5283dAfiZ5g98WmYNXTbv4/7uze5BEFgGwwcjLej+aSuvUfnWzN2l/JRIKd9dvYWb+Nt95YSFVNDQMHDaGmro6a2joqq6sxGd5XtL2tlabdu2javZvduxpo3NWQPZsd1QzzX+3M4Q8WM+6QwN80AVbP7WLSSWXUjs38R0qi1wZa/J9KWJb8ydFjOAeBCvDPxB1zEKx+LVCZ3o4USx7q4IjL0vv68cdJBAxma+Z10bo9+JbI1Ax18lgl3ygAZIuaYXg/fAZ7z1XY+Q+G3Q3gnzzY0vS3Xc0ikQhVNbXU1NZRXlFBWXk5ZeUDKCsrp6S0/8+Ae3t76exop7Ojg872djo72mluaqRp927icQcPd9Nh8lF41zzgf7DkslFT/Wnr3cEOlkol4fmfN3P2LXXEAhwD2x+J7mDrPZY+0knLNjfbQJvppzqpA2AOOQUbMAAArJjTyfBpRYw6NLOvAid6gh3A17Q5wbLHHH37P8TdfcknCgDZpKgUc+U9sN8M7O++A8nsWMX7vmQySeN738I/LBKJUFJaSlFRMV4kQiQaJRaL4XkesViMRCJBKpWit7eXVDJJMpEgkYjT1dVFIp5dP+femNO/ivnCLfnxXrExmJlnY2f/V+BSrfVJ5t3WzEk3VBOJZSYE2KQNtI3Buhe7WftCl5tm6kbAfjPc1ALMzHOwf/yP4IUszL+rhdP/vYa6DL6tEe/q/+jf2ZTilXta3ezLAJCNB3FlAQWALGRO/xpm0kxSd10G9evCbqdPkskkHe3tdJCe0/SyQlmlv9jv6AvC7sQpM/McJwEAYNvbvcy/q4Vjr6rKSAjo6ez/ALFhQTdL/uju76s54pzA2xF/wKgp/loAB8cCx7ssz9zSzKk31WTkMU0ybknG+3dvOnYnefGXrXQ2OXqTp6wSc8BxbmrlmdxZ8l1oxh+K958LMMddHHYnAjD103i3Lcy7wR+AKUf7A40jmxb28PSPm+l2sXnLJ0gmLInufR9krPUXxy16sN3JLnWAP5NywhcdFdujrMOa3S0pZn+/kXcXp39vjN72/v3BNm5MMO/2FtobHDz3f4859nPZexhXyBQAslnpAMw3foO58c/ZfaBMPisuw1z0Q7x/eyJ/74HxMGdd5bTkjhW9PPrt3dQvS98ajp5+DDLdLSle/GULK55y+/aImXYyjD7AaU0Ac8rl4GJnwffEuyzP3trMG79vdze9/uFrdFuS+1jbWn8h6fM/cxwcvQjmjG+6q5dnFABygJl+Gt5PX8Oc+EW3U4zyiczBJ+Hd/jrmnOtwc05s9jLHXuR8QWNnU4o5/9HEi3e30O14W9reLktqH6aYrYVNr/Xw9M1N7FyVhjUns651XxOgtAJz8uVua1pY9mgHf7l+N1vfchvQbMruczBrfjfB83c0s/SRDlLuvvgDYI48F4aMc1s0j2TqU20GcHaQAmbkFMxR5ztqJwcVlWAOOxNz6OnYze9A49awO8pftcMxX7odc8nNUF4ddjeZEYlCtBiWPO28dNOmBKue7SLZY6kdGyVaFCzEphLQ08c9+62FLW/08Npv29jwcnda1tWaA47F/ONN7gu/X3/MQdjn/tv5tuE97Zb1L3bTsDZB5bAI5bXBhgNrobvVYvu49W/r9iRLHurgrT91uHvev6dIDO+q+/ZpZ0bTuAsCbh9uV82HXZsC1QAeBxYFLbI3CgC5pmYY5oRL/G9r6xdnbBvhglBcjjnveryr78fsd2jY3WScGT8du+hJaN7hvHYqATtWxFk5p4v2nUlKaz3Kavb948em/Gn8vb1e1t2SYu38bt54oJ2Nr3TT25GmvSMiMbxvPwSVA9NTH6CkHIoHpCWcAbRtT7LmuS62vd2LFzVUDYv06wjf3o7UXjf+SSWhflkvS/7UwduPdNCyzfFX/j2Ys76FOebCffs9BRYA9BZALjIe5uTLMcd8DvvUr7F/vV1nXQcRiWFOuARzwU25/15/EF4E7/I7SP37KW7OcP0IiR7L6ue6WP1cFxVDIow5ooThBxcxeFKMaPFeBh3rD+wfdbiMtdC6LcHOVXG2vtXL7vXxdP0IH2DO/CaMnJz+65z6Zey8+2Hj0rRdY+eqODtXtfDKPYaR04sZNaOYoQfE+nTSY7zLfux2vd1tKXatjVO/rJf6t3vpDfDmRp/VDsf8w3fSf50cpwCQy4rLMOdchznxUuyTd2Pn/FpBYF9EizDHXew/49dzQt+kIzFnXIl94pdpv1TbjiTLHu1g2aMdeFFD7egoNWOiVI+MMmBQhNIaj9IqDy8C0RJDZ2OS3g5LosfS2ZSiqyVF244kLVsTNG9JZGZg2dPIKZgLbszMtbwI3tf/i9R3T4J4es+8SPRYNr7azcZX/esMGBShdmyUmlFRKodFKav1KKvx8KKGojJDosfS3pAklYTu1hRdzSk6didp2ZqkZVuCth3p+5b/kYyH+erdUDogs9fNQQoA+aCiFnPhv2FmXYOd8xv/ne40TOPmjdIBmBO+gDnran/zFvkAc/GPsGvfgFWvZuyaqYRl1/o4uxzsx58RxeV41z4AxRk8L2PsNMylt2LvuTpz1wTaG5K0NyTZ/Hpmj9buL3Pe9ZhDTgm7jZygtwDySWkF5tzr8e5egbn2AcxBJ4TdUXYZMs5/pe+XKzBf/IkG/48TieFd/d9QURd2J1nLXHFnRqb+/+66J1+OOeafMn7dnDH1GMw//mvYXeQMzQDko2gR5sjz4MjzMOsXY59/ALvgIWhv2vvvzTexEszMs+H4SzAHHQ8ZPswoZ9WNxLvxT6R+dJYWmn6IueCmUAdh87VfQUsDdunc0HrISiOn4F33+7x/ZdclfRrmu/HTMV+6A+/Xa/1ZgZmz/GNG85kXwRx4HOaKO/F+sw5z1X2Yg0/U4L+vJhyO+Zc/Qqwk7E6yhjn9q2l95a9PokWY637v9NyBnDdkHN53H4WK2rA7ySmaASgUseK/zQr0dGAXPw0LH8UufQ7adofdXXDF5ZgDjoXDzvBDjqavnTAHHgdX/RZ712XO30PPNeakyzCX3hZ2G77SAXjfedifodn0dtjdhGvQaLzvPgY1w8LuJOcoABSi4vK/hQGbgnWLsEuexb4zH9Ytgh6326SmRSQK4w7BTPkUTDsZM/lo7fedJmbmLMy/P0HqJxfmR1jsB3POdZjP/SC7duKsqMP74bPYn12CTdMeAVlv9AF4Nz6s9Tz9pABQ6IznT/VOOBxzwXtHEK9fjF31GmxYjN3wln8aWZCDvV0YNBoz7hAYNw0mHYGZeHhmV2AXuklH4n1/DqlbzoeGzWF3kzleBHP5He6343WlpBzz7T/Cvddi594XdjcZZQ48HnP9g1BaEXYrOUsBQD4oEoOJMzETZwJgwF8E9u4KbP1aqF8L9Wuwu96FXVugZSckE8GvawxUDfY38Bg4CobuB8P2wwybCKOmwoCa4NeQYEZOxvvPF7G/+hr2zdlhd5N+dSPxrvotTD467E4+WSSK+covYPJR2P99TW7M4AVhjH9k+iU3+59X0m8KALJ3JeUw4TDMhMP+55f+ZyLUpvw9B9oaobMF29Hsb0bU2+X/++72vwWE9/fVjxZBeRWUV2PKqvyFO1WD/V+X7FZR53/jnHsf9v4b/naf84yZOcvfTCaHgqc59iLM+ENJ3XkpbF4WdjvpUTcC75v3wtRPh91JXlAAkGCM5y++eW8BThY9IZV0MQZz8pcwk44gde81sPKVsDtyp2Yo5vM/xnx63/aQzxojJ+P9x3PYh2/FPv4LSKTvOOaMMh7mpEv9dRg5FMqynd6LEpH+GX0A3g+e8WcEcn0RViSK+czX8X62OHcH//cVl2E+9wO829/AHHJq2N0EN+4QvB89i7niLg3+jmkGQEQCMTPOwDEHBxUAAAu0SURBVEw9Bjv7V9gn7/YfB+UKL4I5+gLM+d+GEfuH3Y1bQ8djvvMwLJ6D/fOtsGZh2B3tm1FTMef9C+bof9AeHmmiACAiwZVWYM6/AXPGN7FP34N94hfZfR5FrBjz6Qsx514PQ8eH3U1amemnYaafhn17Hvbhn8DyF8Nu6ZONn+4P/IefpYE/zRQARMSdknLMrGswZ33L31fi2d9iX3/MzZsiLoyYhDnu85gTvgCVA8PuJqPMQSf454NsW+NvD/78A9DSEHZbvtIKf8A/9iKdYZJBCgAi4p4X8T/IDzoB07gN++oj/lT0igWZ31Fw9AH+t+CZZ8OEwzN77Ww0fCLmoh9iPvtdfwOhRbOxi+dA0/bM9jGgBjPtZJhxBuawM/N/i/IspAAgIulVOxxzxpVwxpWY7g7/EJsVL2HXvQkbl7p9b914/rf8/WbApJn+IriBo9zVzyfRIsxhZ8FhZ2GshQ1L/HuzdhF23SJo3Ob2epUD/fuy3wz/bI6Jh+vgnpApAIhI5pSU+2c1zJzlvzKaTMDWldjNy2HXZn+XwYbN2KZ6Pxh0tfmvsnW2QlGpv91zeTVEY/6AMngsDBwNg0Zhhk6AcYdA6YCQf8gcZIz/7H38dP+/AjTV+zuB7tz43n3ZhG2sh9YG/550d/j7fKRSUFbp35+iEiivwdQOh8GjYdAYGDgKM26a/58lqygAiEh4IlEYfSBm9IEf+GXtJ5EFaoZhPnTAju5LftESSxERkQKkACAiIlKAFABEREQKkAKAiIhIAVIAEBERKUAKACIiIgVIAUBERKQAKQCIiIgUIAUAERGRAqQAICIiUoAUAERERAqQAoCIiEgBUgAQEREpQAoAIiIiBUgBQEREpAApAIiIiBSg3AkAiXjYHYiISB6zNhW8SDJ3xqrcCQDdbWF3ICIi+SzlIAD0dASvkSE5EwDsri1htyAiInnMJJOBa9iWHQ46yYycCQDs3AQ9nWF3ISIi+cha6O0JViPeDa073fSTAbkTAFJJ7OrXwu5CRETyUW+PHwICsFveBhfrCDIkdwIAwJuzw+5ARETyUVfwGWa7Lre+pOZUALALHoJEb9htiIhInjFtLcEKJBPYlfPcNJMhORUAaGnAzn8w7C5ERCTftAYLAPbtOdAZMERkWG4FAMA+/BPo7Qq7DRERyROmqwN6uvtfIN5D6pXfu2soQ3IuANCwCfvnW8LuQkRE8sXuXYF+e2rB73Jq9f/7ci8AAPbRn2OXvRB2GyIikutSSWhs6PdvtxvfxC78o8OGMicnAwCpJPb2z8HmZWF3IiIiuaxhByQS/fu9uzaR+uuPAr8+GJbcDAAAna2kbj4PtiwPuxMREclFiSRmZ32/fqtt2EDyD9/O6W3qczcAADTVk/reqdhFT4bdiYiI5BhTvxni+354j12zgNTvr4H23WnoKnNyOwAAdDRjf3oh9p6rob0p7G5ERCQHmI422LWPC/e6Wkk9dQeph7+fU4f+fJxo2A04YS322Xuxrz6M+cw3MKdeAZUDw+5KRESyUTIJG9b2/dl9ZwupN/+KXfRITk/5f5jJ0HW+AvwmQ9eCSAwz7WSYdjJm8pEwbCIUl2Xs8iIikqWsxaxbBa3NH/+/ifdgG7fAu8uwG17HblgEqX4uFOyfrwL/K90XyY8ZgA9LxrFvzoY3Z2MBjIGyKv8fL/efeoiISD9YIBH3X/37yH9v/an97vb3/sf5LT8DwIdZCx3N/j8iIiKSB4sARUREZJ8pAIiIiBQgBQAREZECpAAgIiJSgBQARERECpACgIiISAFSABARESlACgAiIiIFSAFARESkACkAiIiIFKDcCQC1o6B6eNhdiIiIfLTq4f5YlSNyJgCYweOJfOV+vHP+DWpGhN2OiIiIr3II3mnXErniPszg8WF302e5dRiQMZjJxxGZ9Cns209j334Ku3UFhXBqk4iIZBODGTEFc/BnMAeeAl5uDaeQawHgfV4UM+0MzLQzoGU7dvlc7PJ52F0bw+5MRETymBk0FjPlRMzUE6FqaNjtBJKbAWBPVUMxR12MOepi6GjE1q/Cbl8N9auwuzZAZyskesLuUkREckmsGEorMQPHwbD9McP2xwydBOW1YXfmTO4HgD2V12ImHIWZcNQHfz3RA12t2O42SCbC6U1ERLJbJIopqYTSCogWh91N2uVXAPg40WKoGISpGBR2JyIiIlkhZ94CEBEREXcUAERERAqQAoCIiEgBUgAQEREpQAoAIiIiBUgBQEREpAApAIiIiBQgBQAREZECpAAgIiJSgBQARERECpACgIiISAFSABARESlACgAiIiIFSAFARESkACkAiIiIFCAFABERkQKkACAiIlKAFABEREQKkAKAiIhIAVIAEBERKUAKACIiIgVIAUBERKQAKQCIiIgUIAUAERGRAqQAICIiUoAUAERERAqQAoCIiEgBUgAQEREpQAoAIiIiBUgBQEREpAApAIiIiBQgBQAREZECpAAgIiJSgBQARERECpACgIiISAFSABARESlACgAiIiIFSAFARESkACkAiIiIFCAFABERkQKkACAiIlKAMhUAugNXSPQ6aENERCSN4j0uqnS5KLI3mQoAbYEr9HQ4aENERCSNetpdVAk+ZvZBpgJA4D8R21zvog8REZG0sc3bXJRpdVFkbzIVAHYHrtC2C7ozEopERET2XVcLtDe5qNToosjeZCoArAFssBIWu/ktJ82IiIi45o9RAYc6v8Da4N3sXSbXAASew7erFzhoRURExD27+iUXZd7FwWPzvsjka4Argxawq190tcBCRETEne427BonX1JXuSjSF5kMAC8HrhDvxi76q4NWRERE3LGLHnH1CmDGprozGQDmuSiSWvgHaM/I+ggREZG962gi9fqfXVVzMlb2RaZnAIJvCNTTSWru3cG7ERERcSD1zC9c7VXTCbzqolBfZDIAdANPuShkV76AXfK4i1IiIiL9Zhc/il0131W5pwAnzxH6ItNnATzgqlDqmV9i173mqpyIiMg+seteI/Ws0xlpZ2NkX5hMXgwoArYBdU6qRWJ4Z92ImXyck3IiIiJ9YdcsIPXozZBw9oW9ERhOBmcAIpm60HuSwGDgaCfVbAq7+iUMFjPqIDCZzjMiIlJQbIrUS/djn/kFpBIuK98NzHZZcG/CGDGHAeuBEpdFzfApmFO+hRk6yWVZERERAGz9SuzTd2G3r3ZdugsYD2x3XfiTZHoGAPwdjkYAhzut2rYL+9aTsGMtlFdjqoZqRkBERIKxFrtpMfbZu7HP3wPtwY+2+Qi/AR5KR+FPEtYIOQJ/Z8ABabtCxUDM2BmYEQdA3WjMgDooLlcoEBGRj2Yt9HRg23fD7s3Yd5dhNy5K16D/vlZgCv76uIwKczS8HvhpiNcXEREJ27XAz8O4cJgBIAa8CRwYYg8iIiJhWQrMAJyuJuyrTO8DsKc4cBH+4gcREZFC0g1cSkiDP4SzCHBPO/HffTwz5D5EREQy6UrgiTAbCDsAALwBTAIOCrsRERGRDHgA+G7YTWTLkvgi4DHg1LAbERERSaN5wGfI4I5/HydbAgBABf4fzIywGxEREUmDRcAJQFvYjUC4iwA/rA04BVgQdiMiIiKOLQROJ0sGf8iuAADQhP8Y4MmwGxEREXHkcfxv/rvCbmRP2bAI8MPi+FsiVgJHkF2PKURERPrKAj8DvkwWPPP/sGwfXGcB9wG1YTciIiKyD1rwB/4/hd3Ix8m2RwAf9igwHfhr2I2IiIj00cP4u9xm7eAP2T8DsKezgDvxj0wUERHJNmuBq4DZYTfSF9k+A7Cnx4HJwBfxTxIUERHJBuuBrwJTyZHBH3JrBmBPEeBc/H2UTweioXYjIiKFJg48Bfw38BcgFWo3/ZCrAWBPg4HP4r8+eCxQFW47IiKSp1qAF4A5+G+rNYTbTjD5EAD2FMHfSfAQYH/8RwZjgQH4Ow1Wk38/s4iIuJHCH+RbgXZgI/4j59XAYvwj7JNhNefa/wfIpaWGMTMzBAAAAABJRU5ErkJggg==;" parent="1" vertex="1">
          <mxGeometry x="400" y="280" width="80" height="80" as="geometry" />
        </mxCell>
        <mxCell id="YJ6UbeCUbPOiozkyNc1K-16" value="Action" style="text;html=1;align=center;verticalAlign=middle;resizable=0;points=[];autosize=1;strokeColor=none;fillColor=none;fontFamily=Play;fontSource=https%3A%2F%2Ffonts.googleapis.com%2Fcss%3Ffamily%3DPlay;fontSize=16;" parent="1" vertex="1">
          <mxGeometry x="405" y="358" width="70" height="30" as="geometry" />
        </mxCell>
        <mxCell id="YJ6UbeCUbPOiozkyNc1K-17" value="$$a_t$$" style="text;html=1;align=center;verticalAlign=middle;resizable=0;points=[];autosize=1;strokeColor=none;fillColor=none;fontSize=16;" parent="1" vertex="1">
          <mxGeometry x="400" y="375" width="80" height="30" as="geometry" />
        </mxCell>
      </root>
    </mxGraphModel>
  </diagram>
</mxfile>
